<svg width="41" height="41" viewBox="0 0 41 41" fill="none" xmlns="http://www.w3.org/2000/svg">
<g clip-path="url(#clip0_646_6893)">
<mask id="path-1-outside-1_646_6893" maskUnits="userSpaceOnUse" x="0.0680542" y="9.52637" width="26" height="25" fill="black">
<rect fill="white" x="0.0680542" y="9.52637" width="26" height="25"/>
<path d="M5.1175 28.1749C5.1175 30.2938 6.83522 32.0115 8.95414 32.0115C11.0731 32.0115 12.7908 30.2938 12.7908 28.1749C12.7908 26.0559 11.0731 24.3382 8.95414 24.3382C6.83522 24.3382 5.1175 26.0559 5.1175 28.1749Z"/>
</mask>
<path d="M10.4888 12.8283L11.3832 13.2756L11.3832 13.2756L10.4888 12.8283ZM8.18681 17.4323L9.08124 17.8795C9.06979 17.9024 9.05747 17.9248 9.04431 17.9468L8.18681 17.4323ZM3.58284 28.1749L3.58284 27.1749H3.58284V28.1749ZM4.4548 27.1749C5.00709 27.1749 5.4548 27.6226 5.4548 28.1749C5.4548 28.7271 5.00709 29.1749 4.4548 29.1749V27.1749ZM14.3254 29.1749C13.7732 29.1749 13.3254 28.7271 13.3254 28.1749C13.3254 27.6226 13.7732 27.1749 14.3254 27.1749V29.1749ZM25.0681 27.1749C25.6203 27.1749 26.0681 27.6226 26.0681 28.1749C26.0681 28.7271 25.6203 29.1749 25.0681 29.1749V27.1749ZM12.7908 11.5264C12.6156 11.5264 12.4493 11.5875 12.2129 11.8652C11.9461 12.1786 11.7009 12.6403 11.3832 13.2756L9.59438 12.3811C9.89061 11.7887 10.2383 11.0994 10.69 10.5688C11.1721 10.0024 11.8498 9.52637 12.7908 9.52637V11.5264ZM11.3832 13.2756L9.08124 17.8795L7.29239 16.9851L9.59438 12.3811L11.3832 13.2756ZM8.18681 17.4323C9.04431 17.9468 9.04386 17.9475 9.04341 17.9483C9.04326 17.9485 9.04281 17.9493 9.0425 17.9498C9.04189 17.9508 9.04127 17.9518 9.04064 17.9529C9.03938 17.9549 9.03808 17.957 9.03674 17.9592C9.03405 17.9635 9.03121 17.9681 9.0282 17.9728C9.02218 17.9822 9.0155 17.9924 9.00812 18.0032C8.99336 18.0249 8.97581 18.0494 8.95521 18.0761C8.91398 18.1295 8.86066 18.1918 8.79321 18.2593C8.65757 18.3949 8.46836 18.5477 8.21206 18.6901C7.69527 18.9772 6.94724 19.1996 5.88483 19.1996V17.1996C6.664 17.1996 7.06697 17.0384 7.24077 16.9418C7.32977 16.8924 7.37076 16.8533 7.37899 16.8451C7.38347 16.8406 7.38051 16.843 7.37165 16.8545C7.36724 16.8602 7.36138 16.8681 7.35427 16.8786C7.35071 16.8838 7.34684 16.8897 7.34267 16.8962C7.34059 16.8995 7.33843 16.9029 7.33621 16.9065C7.33509 16.9083 7.33396 16.9101 7.33281 16.912C7.33224 16.913 7.33166 16.9139 7.33108 16.9149C7.33079 16.9154 7.33035 16.9161 7.3302 16.9163C7.32976 16.9171 7.32932 16.9178 8.18681 17.4323ZM5.88483 19.1996C5.36665 19.1996 4.59279 19.3305 3.98604 19.68C3.42903 20.0009 3.04818 20.4706 3.04818 21.2689H1.04818C1.04818 19.6119 1.94621 18.5469 2.9878 17.947C3.97966 17.3756 5.12412 17.1996 5.88483 17.1996V19.1996ZM3.04818 21.2689V26.6402H1.04818V21.2689H3.04818ZM3.04818 26.6402C3.04818 26.6611 3.07789 26.805 3.24795 26.9751C3.418 27.1451 3.56195 27.1749 3.58284 27.1749L3.58284 29.1749C2.87128 29.1749 2.2479 28.8035 1.83374 28.3893C1.41958 27.9752 1.04818 27.3518 1.04818 26.6402H3.04818ZM3.58284 27.1749H4.4548V29.1749H3.58284V27.1749ZM14.3254 27.1749H25.0681V29.1749H14.3254V27.1749ZM12.7908 9.52637H25.0681V11.5264H12.7908V9.52637ZM7.1175 28.1749C7.1175 29.1892 7.93978 30.0115 8.95414 30.0115V34.0115C5.73066 34.0115 3.1175 31.3983 3.1175 28.1749H7.1175ZM8.95414 30.0115C9.9685 30.0115 10.7908 29.1892 10.7908 28.1749H14.7908C14.7908 31.3983 12.1776 34.0115 8.95414 34.0115V30.0115ZM10.7908 28.1749C10.7908 27.1605 9.9685 26.3382 8.95414 26.3382V22.3382C12.1776 22.3382 14.7908 24.9514 14.7908 28.1749H10.7908ZM8.95414 26.3382C7.93978 26.3382 7.1175 27.1605 7.1175 28.1749H3.1175C3.1175 24.9514 5.73066 22.3382 8.95414 22.3382V26.3382Z" fill="white" mask="url(#path-1-outside-1_646_6893)"/>
<mask id="path-3-outside-2_646_6893" maskUnits="userSpaceOnUse" x="15.4879" y="9.52637" width="26" height="25" fill="black">
<rect fill="white" x="15.4879" y="9.52637" width="26" height="25"/>
<path d="M36.4384 28.1749C36.4384 30.2938 34.7207 32.0115 32.6018 32.0115C30.4828 32.0115 28.7651 30.2938 28.7651 28.1749C28.7651 26.0559 30.4828 24.3382 32.6018 24.3382C34.7207 24.3382 36.4384 26.0559 36.4384 28.1749Z"/>
</mask>
<path d="M31.0671 12.8283L30.1727 13.2756L30.1727 13.2756L31.0671 12.8283ZM33.3691 17.4323L32.4747 17.8795C32.4861 17.9024 32.4984 17.9248 32.5116 17.9468L33.3691 17.4323ZM37.9731 28.1749L37.9731 27.1749H37.9731V28.1749ZM37.1011 27.1749C36.5488 27.1749 36.1011 27.6226 36.1011 28.1749C36.1011 28.7271 36.5488 29.1749 37.1011 29.1749V27.1749ZM27.2305 29.1749C27.7827 29.1749 28.2305 28.7271 28.2305 28.1749C28.2305 27.6226 27.7827 27.1749 27.2305 27.1749V29.1749ZM16.4879 27.1749C15.9356 27.1749 15.4879 27.6226 15.4879 28.1749C15.4879 28.7271 15.9356 29.1749 16.4879 29.1749V27.1749ZM28.7651 11.5264C28.9403 11.5264 29.1066 11.5875 29.343 11.8652C29.6098 12.1786 29.8551 12.6403 30.1727 13.2756L31.9615 12.3811C31.6653 11.7887 31.3176 11.0994 30.8659 10.5688C30.3838 10.0024 29.7061 9.52637 28.7651 9.52637V11.5264ZM30.1727 13.2756L32.4747 17.8795L34.2635 16.9851L31.9615 12.3811L30.1727 13.2756ZM33.3691 17.4323C32.5116 17.9468 32.512 17.9475 32.5125 17.9483C32.5127 17.9485 32.5131 17.9493 32.5134 17.9498C32.514 17.9508 32.5146 17.9518 32.5153 17.9529C32.5165 17.9549 32.5178 17.957 32.5192 17.9592C32.5219 17.9635 32.5247 17.9681 32.5277 17.9728C32.5337 17.9822 32.5404 17.9924 32.5478 18.0032C32.5626 18.0249 32.5801 18.0494 32.6007 18.0761C32.6419 18.1295 32.6952 18.1918 32.7627 18.2593C32.8983 18.3949 33.0875 18.5477 33.3439 18.6901C33.8606 18.9772 34.6087 19.1996 35.6711 19.1996V17.1996C34.8919 17.1996 34.4889 17.0384 34.3151 16.9418C34.2261 16.8924 34.1851 16.8533 34.1769 16.8451C34.1724 16.8406 34.1754 16.843 34.1843 16.8545C34.1887 16.8602 34.1945 16.8681 34.2016 16.8786C34.2052 16.8838 34.2091 16.8897 34.2132 16.8962C34.2153 16.8995 34.2175 16.9029 34.2197 16.9065C34.2208 16.9083 34.2219 16.9101 34.2231 16.912C34.2237 16.913 34.2242 16.9139 34.2248 16.9149C34.2251 16.9154 34.2256 16.9161 34.2257 16.9163C34.2261 16.9171 34.2266 16.9178 33.3691 17.4323ZM35.6711 19.1996C36.1893 19.1996 36.9631 19.3305 37.5699 19.68C38.1269 20.0009 38.5077 20.4706 38.5077 21.2689H40.5077C40.5077 19.6119 39.6097 18.5469 38.5681 17.947C37.5762 17.3756 36.4318 17.1996 35.6711 17.1996V19.1996ZM38.5077 21.2689V26.6402H40.5077V21.2689H38.5077ZM38.5077 26.6402C38.5077 26.6611 38.478 26.805 38.308 26.9751C38.1379 27.1451 37.994 27.1749 37.9731 27.1749L37.9731 29.1749C38.6846 29.1749 39.308 28.8035 39.7222 28.3893C40.1363 27.9752 40.5077 27.3518 40.5077 26.6402H38.5077ZM37.9731 27.1749H37.1011V29.1749H37.9731V27.1749ZM27.2305 27.1749H16.4879V29.1749H27.2305V27.1749ZM28.7651 9.52637H16.4879V11.5264H28.7651V9.52637ZM34.4384 28.1749C34.4384 29.1892 33.6161 30.0115 32.6018 30.0115V34.0115C35.8252 34.0115 38.4384 31.3983 38.4384 28.1749H34.4384ZM32.6018 30.0115C31.5874 30.0115 30.7651 29.1892 30.7651 28.1749H26.7651C26.7651 31.3983 29.3783 34.0115 32.6018 34.0115V30.0115ZM30.7651 28.1749C30.7651 27.1605 31.5874 26.3382 32.6018 26.3382V22.3382C29.3783 22.3382 26.7651 24.9514 26.7651 28.1749H30.7651ZM32.6018 26.3382C33.6161 26.3382 34.4384 27.1605 34.4384 28.1749H38.4384C38.4384 24.9514 35.8252 22.3382 32.6018 22.3382V26.3382Z" fill="white" mask="url(#path-3-outside-2_646_6893)"/>
<path d="M28.4086 13.0406H21.895C21.8398 13.0406 21.795 13.0854 21.795 13.1406V19.3583C21.795 19.4135 21.8398 19.4583 21.895 19.4583H31.6418C31.7169 19.4583 31.7652 19.3787 31.7305 19.3121L28.4974 13.0945C28.4801 13.0614 28.4459 13.0406 28.4086 13.0406Z" stroke="white" stroke-width="2"/>
<path d="M13.4681 13.0406H19.9817C20.037 13.0406 20.0817 13.0854 20.0817 13.1406V19.3583C20.0817 19.4135 20.037 19.4583 19.9817 19.4583H10.2349C10.1599 19.4583 10.1115 19.3787 10.1462 19.3121L13.3793 13.0945C13.3966 13.0614 13.4308 13.0406 13.4681 13.0406Z" stroke="white" stroke-width="2"/>
</g>
<defs>
<clipPath id="clip0_646_6893">
<rect width="40.229" height="40.2288" fill="white" transform="translate(0.371948 0.469116)"/>
</clipPath>
</defs>
</svg>
