<svg width="25" height="24" viewBox="0 0 25 24" fill="none" xmlns="http://www.w3.org/2000/svg">
<path d="M22.5068 12.6533V12V11.3381L24.2019 9.89404C24.5143 9.62589 24.7194 9.25883 24.7808 8.85773C24.8421 8.45663 24.7559 8.04731 24.5373 7.70212L22.4538 4.26381C22.299 4.00273 22.0764 3.78587 21.8083 3.635C21.5402 3.48413 21.2361 3.40455 20.9265 3.40424C20.7346 3.40281 20.5438 3.43184 20.3615 3.4902L18.2161 4.19505C17.8458 3.9554 17.4594 3.74003 17.0596 3.55037L16.6094 1.38423C16.5286 0.988489 16.3075 0.632999 15.9847 0.379993C15.6619 0.126987 15.258 -0.00741487 14.8437 0.000315835H10.7119C10.2976 -0.00741487 9.8937 0.126987 9.5709 0.379993C9.24809 0.632999 9.02697 0.988489 8.94624 1.38423L8.49599 3.55037C8.09335 3.73999 7.70404 3.95535 7.33063 4.19505L5.22945 3.45581C5.04519 3.40907 4.85439 3.39166 4.66442 3.40424C4.35479 3.40455 4.05068 3.48413 3.7826 3.635C3.51453 3.78587 3.29191 4.00273 3.1371 4.26381L1.05357 7.70212C0.847505 8.0468 0.770931 8.45051 0.836966 8.84412C0.903001 9.23773 1.10754 9.59673 1.41554 9.85966L3.08413 11.3467V12.6619L1.41554 14.106C1.09884 14.3707 0.888706 14.7361 0.822442 15.1374C0.756179 15.5387 0.838066 15.9498 1.05357 16.2979L3.1371 19.7362C3.29191 19.9973 3.51453 20.2141 3.7826 20.365C4.05068 20.5159 4.35479 20.5955 4.66442 20.5958C4.85631 20.5972 5.04715 20.5682 5.22945 20.5098L7.37477 19.805C7.74516 20.0446 8.13152 20.26 8.5313 20.4496L8.98155 22.6158C9.06229 23.0115 9.28341 23.367 9.60621 23.62C9.92901 23.873 10.3329 24.0074 10.7473 23.9997H14.9143C15.3286 24.0074 15.7325 23.873 16.0553 23.62C16.3781 23.367 16.5993 23.0115 16.68 22.6158L17.1302 20.4496C17.5329 20.26 17.9222 20.0446 18.2956 19.805L20.4321 20.5098C20.6144 20.5682 20.8052 20.5972 20.9971 20.5958C21.3068 20.5955 21.6109 20.5159 21.8789 20.365C22.147 20.2141 22.3696 19.9973 22.5245 19.7362L24.5373 16.2979C24.7434 15.9532 24.82 15.5495 24.754 15.1559C24.6879 14.7623 24.4834 14.4033 24.1754 14.1403L22.5068 12.6533ZM20.9265 18.8766L17.8983 17.8795C17.1895 18.4641 16.3793 18.9211 15.5058 19.229L14.879 22.3149H10.7119L10.0851 19.2634C9.21853 18.9467 8.41275 18.4905 7.70142 17.9139L4.66442 18.8766L2.5809 15.4383L4.98225 13.3753C4.81901 12.4855 4.81901 11.5746 4.98225 10.6848L2.5809 8.5617L4.66442 5.12339L7.6926 6.1205C8.40147 5.53589 9.21163 5.07891 10.0851 4.77096L10.7119 1.68509H14.879L15.5058 4.73658C16.3724 5.05327 17.1782 5.50946 17.8895 6.08612L20.9265 5.12339L23.01 8.5617L20.6087 10.6247C20.7719 11.5145 20.7719 12.4254 20.6087 13.3152L23.01 15.4383L20.9265 18.8766Z" fill="#E5E1DE"/>
<path d="M12.7956 17.1574C11.748 17.1574 10.7238 16.855 9.85272 16.2883C8.98162 15.7215 8.30268 14.9161 7.90175 13.9737C7.50083 13.0313 7.39593 11.9943 7.60032 10.9938C7.80471 9.99337 8.30921 9.0744 9.05002 8.35312C9.79083 7.63183 10.7347 7.14063 11.7622 6.94163C12.7898 6.74263 13.8548 6.84476 14.8227 7.23512C15.7907 7.62548 16.6179 8.28652 17.2 9.13466C17.782 9.9828 18.0927 10.9799 18.0927 12C18.0998 12.6792 17.9676 13.3529 17.7039 13.9818C17.4402 14.6106 17.0503 15.1819 16.557 15.6622C16.0637 16.1425 15.477 16.5222 14.8311 16.7789C14.1852 17.0356 13.4932 17.1643 12.7956 17.1574ZM12.7956 8.56168C12.3289 8.5511 11.8648 8.6328 11.4315 8.80184C10.9981 8.97088 10.6045 9.22376 10.2743 9.54517C9.94423 9.86658 9.68451 10.2498 9.51089 10.6718C9.33727 11.0937 9.25336 11.5456 9.26423 12C9.25336 12.4544 9.33727 12.9063 9.51089 13.3282C9.68451 13.7501 9.94423 14.1334 10.2743 14.4548C10.6045 14.7762 10.9981 15.0291 11.4315 15.1981C11.8648 15.3672 12.3289 15.4489 12.7956 15.4383C13.2624 15.4489 13.7264 15.3672 14.1598 15.1981C14.5932 15.0291 14.9868 14.7762 15.3169 14.4548C15.647 14.1334 15.9067 13.7501 16.0804 13.3282C16.254 12.9063 16.3379 12.4544 16.327 12C16.3379 11.5456 16.254 11.0937 16.0804 10.6718C15.9067 10.2498 15.647 9.86658 15.3169 9.54517C14.9868 9.22376 14.5932 8.97088 14.1598 8.80184C13.7264 8.6328 13.2624 8.5511 12.7956 8.56168Z" fill="#E5E1DE"/>
</svg>
