<svg width="24" height="24" viewBox="0 0 24 24" fill="none" xmlns="http://www.w3.org/2000/svg">
<path d="M12 20.7273C9.56364 20.7273 7.5 19.8818 5.80909 18.1909C4.11818 16.5 3.27273 14.4364 3.27273 12C3.27273 9.56364 4.11818 7.5 5.80909 5.80909C7.5 4.11818 9.56364 3.27273 12 3.27273C14.4364 3.27273 16.5 4.11818 18.1909 5.80909C19.8818 7.5 20.7273 9.56364 20.7273 12C20.7273 14.4364 19.8818 16.5 18.1909 18.1909C16.5 19.8818 14.4364 20.7273 12 20.7273ZM12 18.5455C13.8182 18.5455 15.3636 17.9091 16.6364 16.6364C17.9091 15.3636 18.5455 13.8182 18.5455 12C18.5455 11.6909 18.5229 11.3862 18.4778 11.0858C18.432 10.7862 18.3636 10.4909 18.2727 10.2C18 10.2545 17.7273 10.2953 17.4545 10.3222C17.1818 10.3498 16.9091 10.3636 16.6364 10.3636C15.4909 10.3636 14.4 10.1455 13.3636 9.70909C12.3273 9.27273 11.4 8.63636 10.5818 7.8C10.0727 8.83636 9.37273 9.73636 8.48182 10.5C7.59091 11.2636 6.58182 11.8182 5.45455 12.1636C5.50909 13.9455 6.168 15.4545 7.43127 16.6909C8.69527 17.9273 10.2182 18.5455 12 18.5455ZM9.27273 14.1818C8.96364 14.1818 8.70473 14.0771 8.496 13.8676C8.28655 13.6589 8.18182 13.4 8.18182 13.0909C8.18182 12.7818 8.28655 12.5225 8.496 12.3131C8.70473 12.1044 8.96364 12 9.27273 12C9.58182 12 9.84109 12.1044 10.0505 12.3131C10.2593 12.5225 10.3636 12.7818 10.3636 13.0909C10.3636 13.4 10.2593 13.6589 10.0505 13.8676C9.84109 14.0771 9.58182 14.1818 9.27273 14.1818ZM14.7273 14.1818C14.4182 14.1818 14.1593 14.0771 13.9505 13.8676C13.7411 13.6589 13.6364 13.4 13.6364 13.0909C13.6364 12.7818 13.7411 12.5225 13.9505 12.3131C14.1593 12.1044 14.4182 12 14.7273 12C15.0364 12 15.2956 12.1044 15.5051 12.3131C15.7138 12.5225 15.8182 12.7818 15.8182 13.0909C15.8182 13.4 15.7138 13.6589 15.5051 13.8676C15.2956 14.0771 15.0364 14.1818 14.7273 14.1818ZM0 5.45455V2.18182C0 1.58182 0.213818 1.068 0.641455 0.640364C1.06836 0.213455 1.58182 0 2.18182 0H5.45455V2.18182H2.18182V5.45455H0ZM5.45455 24H2.18182C1.58182 24 1.06836 23.7865 0.641455 23.3596C0.213818 22.932 0 22.4182 0 21.8182V18.5455H2.18182V21.8182H5.45455V24ZM18.5455 24V21.8182H21.8182V18.5455H24V21.8182C24 22.4182 23.7865 22.932 23.3596 23.3596C22.932 23.7865 22.4182 24 21.8182 24H18.5455ZM21.8182 5.45455V2.18182H18.5455V0H21.8182C22.4182 0 22.932 0.213455 23.3596 0.640364C23.7865 1.068 24 1.58182 24 2.18182V5.45455H21.8182Z" fill="#F2F2F2"/>
</svg>
