<svg width="340" height="172" viewBox="0 0 340 172" fill="none" xmlns="http://www.w3.org/2000/svg">
<mask id="path-1-outside-1_570_13168" maskUnits="userSpaceOnUse" x="28.1772" y="0" width="311" height="172" fill="black">
<rect fill="white" x="28.1772" width="311" height="172"/>
<path fill-rule="evenodd" clip-rule="evenodd" d="M33.1772 20.6431C33.1772 12.0036 40.1809 5 48.8203 5H319.25C327.89 5 334.893 12.0036 334.893 20.6431V63.471C325.972 67.0426 319.67 75.768 319.67 85.9652C319.67 96.1624 325.972 104.888 334.893 108.459V151.287C334.893 159.927 327.89 166.93 319.25 166.93H48.8203C40.1809 166.93 33.1772 159.927 33.1772 151.287V108.46C42.0993 104.888 48.4016 96.1628 48.4016 85.9652C48.4016 75.7675 42.0993 67.0419 33.1772 63.4705V20.6431Z"/>
</mask>
<path fill-rule="evenodd" clip-rule="evenodd" d="M33.1772 20.6431C33.1772 12.0036 40.1809 5 48.8203 5H319.25C327.89 5 334.893 12.0036 334.893 20.6431V63.471C325.972 67.0426 319.67 75.768 319.67 85.9652C319.67 96.1624 325.972 104.888 334.893 108.459V151.287C334.893 159.927 327.89 166.93 319.25 166.93H48.8203C40.1809 166.93 33.1772 159.927 33.1772 151.287V108.46C42.0993 104.888 48.4016 96.1628 48.4016 85.9652C48.4016 75.7675 42.0993 67.0419 33.1772 63.4705V20.6431Z" fill="#333333"/>
<path d="M334.893 63.471L336.479 67.4317L339.16 66.3585V63.471H334.893ZM334.893 108.459H339.16V105.572L336.479 104.499L334.893 108.459ZM33.1772 108.46L31.5918 104.499L28.911 105.572V108.46H33.1772ZM33.1772 63.4705H28.911V66.3582L31.5918 67.4313L33.1772 63.4705ZM48.8203 0.733711C37.8247 0.733711 28.911 9.64744 28.911 20.6431H37.4435C37.4435 14.3598 42.5371 9.26629 48.8203 9.26629V0.733711ZM319.25 0.733711H48.8203V9.26629H319.25V0.733711ZM339.16 20.6431C339.16 9.64742 330.246 0.733711 319.25 0.733711V9.26629C325.534 9.26629 330.627 14.3599 330.627 20.6431H339.16ZM339.16 63.471V20.6431H330.627V63.471H339.16ZM323.937 85.9652C323.937 77.5709 329.121 70.3773 336.479 67.4317L333.308 59.5103C322.823 63.708 315.404 73.9651 315.404 85.9652H323.937ZM336.479 104.499C329.121 101.553 323.937 94.3595 323.937 85.9652H315.404C315.404 97.9653 322.823 108.222 333.308 112.42L336.479 104.499ZM339.16 151.287V108.459H330.627V151.287H339.16ZM319.25 171.197C330.246 171.197 339.16 162.283 339.16 151.287H330.627C330.627 157.57 325.534 162.664 319.25 162.664V171.197ZM48.8203 171.197H319.25V162.664H48.8203V171.197ZM28.911 151.287C28.911 162.283 37.8247 171.197 48.8203 171.197V162.664C42.5371 162.664 37.4435 157.57 37.4435 151.287H28.911ZM28.911 108.46V151.287H37.4435V108.46H28.911ZM44.1353 85.9652C44.1353 94.3598 38.95 101.554 31.5918 104.499L34.7627 112.421C45.2486 108.223 52.6679 97.9658 52.6679 85.9652H44.1353ZM31.5918 67.4313C38.95 70.3767 44.1353 77.5705 44.1353 85.9652H52.6679C52.6679 73.9646 45.2486 63.7071 34.7627 59.5098L31.5918 67.4313ZM28.911 20.6431V63.4705H37.4435V20.6431H28.911Z" fill="#B89742" mask="url(#path-1-outside-1_570_13168)"/>
<rect x="2" y="66.3489" width="40.2288" height="40.2288" rx="20.1144" fill="#D9D9D9" stroke="url(#paint0_linear_570_13168)" stroke-width="2.84419"/>
<path d="M49.8682 44.7952H300.604" stroke="white" stroke-linecap="round"/>
<path d="M301.298 5.76099V166.424" stroke="white" stroke-linecap="round" stroke-dasharray="2 2"/>
<ellipse cx="313.27" cy="53.7773" rx="7.54289" ry="7.5429" fill="#F1E0AC"/>
<path d="M313.427 57.312C313.054 57.312 312.699 57.256 312.363 57.144C312.027 57.0267 311.745 56.8587 311.515 56.64L311.755 56.12C312.017 56.3333 312.281 56.488 312.547 56.584C312.814 56.68 313.102 56.728 313.411 56.728C313.817 56.728 314.126 56.64 314.339 56.464C314.558 56.2827 314.667 56.0187 314.667 55.672C314.667 55.3413 314.558 55.0907 314.339 54.92C314.121 54.7493 313.803 54.664 313.387 54.664H312.555V54.096H313.331C313.694 54.096 313.979 54.0027 314.187 53.816C314.401 53.624 314.507 53.3627 314.507 53.032C314.507 52.7387 314.409 52.512 314.211 52.352C314.019 52.192 313.745 52.112 313.387 52.112C312.801 52.112 312.289 52.3253 311.851 52.752L311.611 52.24C311.819 52.016 312.083 51.8427 312.403 51.72C312.729 51.592 313.07 51.528 313.427 51.528C313.971 51.528 314.395 51.656 314.699 51.912C315.009 52.168 315.163 52.5227 315.163 52.976C315.163 53.2907 315.083 53.568 314.923 53.808C314.763 54.0427 314.542 54.2133 314.259 54.32C314.595 54.4107 314.857 54.5787 315.043 54.824C315.23 55.064 315.323 55.3627 315.323 55.72C315.323 56.2053 315.153 56.592 314.811 56.88C314.475 57.168 314.014 57.312 313.427 57.312Z" fill="#1D1E22"/>
<path d="M311.385 17.5715H315.156M312.013 17.5715H314.528L315.156 23.8573H311.385L312.013 17.5715Z" stroke="#EFC862" stroke-width="2" stroke-linecap="round" stroke-linejoin="round"/>
<path d="M310.127 23.8572H313.27M316.413 23.8572H313.27M313.27 23.8572L313.27 27.6286" stroke="#EFC862" stroke-width="2" stroke-linecap="round" stroke-linejoin="round"/>
<g clip-path="url(#clip0_570_13168)">
<g filter="url(#filter0_d_570_13168)">
<path fill-rule="evenodd" clip-rule="evenodd" d="M310.409 144.669H313.225C314.402 144.669 315.224 145.481 315.224 146.643V149.987C315.224 151.15 314.402 151.961 313.225 151.961H310.409C309.232 151.961 308.41 151.15 308.41 149.987V146.643C308.41 145.481 309.232 144.669 310.409 144.669ZM317.139 145.826C317.352 145.717 317.603 145.729 317.806 145.857C318.01 145.985 318.132 146.207 318.132 146.45V150.181C318.132 150.424 318.01 150.646 317.806 150.774C317.695 150.843 317.571 150.879 317.445 150.879C317.341 150.879 317.236 150.854 317.139 150.804L316.419 150.441C316.152 150.306 315.987 150.034 315.987 149.733V146.897C315.987 146.595 316.152 146.324 316.419 146.19L317.139 145.826Z" fill="white"/>
</g>
</g>
<g clip-path="url(#clip1_570_13168)">
<g filter="url(#filter1_d_570_13168)">
<path fill-rule="evenodd" clip-rule="evenodd" d="M313.783 136.513L312.47 135.113L309.909 136.513L312.726 133.523L314.071 134.923L316.6 133.523L313.783 136.513ZM313.271 130.086C310.424 130.086 308.116 132.223 308.116 134.859C308.116 136.361 308.866 137.7 310.037 138.575V140.395L311.792 139.432C312.26 139.561 312.757 139.631 313.271 139.631C316.117 139.631 318.425 137.495 318.425 134.859C318.425 132.223 316.117 130.086 313.271 130.086Z" fill="white"/>
</g>
</g>
<g clip-path="url(#clip2_570_13168)">
<g filter="url(#filter2_d_570_13168)">
<path fill-rule="evenodd" clip-rule="evenodd" d="M310.858 119.566C310.328 119.199 310.01 118.978 309.905 118.904C309.713 118.774 309.532 118.595 309.361 118.367C309.191 118.139 309.105 117.928 309.105 117.732C309.105 117.491 309.17 117.289 309.298 117.128C309.427 116.967 309.611 116.886 309.849 116.886H316.691C316.893 116.886 317.067 116.959 317.214 117.105C317.361 117.251 317.435 117.426 317.435 117.63C317.435 117.875 317.359 118.109 317.207 118.332C317.055 118.555 316.866 118.746 316.64 118.904C315.475 119.713 314.75 120.216 314.465 120.414C314.434 120.436 314.368 120.483 314.267 120.556C314.167 120.629 314.083 120.688 314.016 120.733C313.95 120.778 313.869 120.828 313.775 120.884C313.68 120.94 313.591 120.982 313.507 121.009C313.424 121.037 313.346 121.051 313.275 121.051H313.27H313.266C313.194 121.051 313.117 121.037 313.033 121.009C312.95 120.982 312.86 120.94 312.766 120.884C312.671 120.828 312.591 120.778 312.524 120.733C312.458 120.688 312.374 120.629 312.273 120.556C312.172 120.483 312.107 120.436 312.076 120.414C311.794 120.216 311.388 119.933 310.858 119.566ZM314.655 121.005C315.182 120.624 315.954 120.089 316.97 119.401C317.147 119.28 317.302 119.145 317.435 118.997V122.687C317.435 122.892 317.362 123.067 317.217 123.213C317.071 123.358 316.896 123.431 316.691 123.431H309.849C309.645 123.431 309.47 123.358 309.324 123.213C309.178 123.067 309.105 122.892 309.105 122.687V118.997C309.242 119.149 309.398 119.283 309.575 119.401C310.697 120.163 311.467 120.698 311.885 121.005C312.062 121.135 312.205 121.236 312.315 121.309C312.425 121.382 312.572 121.456 312.754 121.532C312.937 121.608 313.108 121.646 313.266 121.646H313.27H313.275C313.433 121.646 313.603 121.608 313.786 121.532C313.969 121.456 314.115 121.382 314.225 121.309C314.336 121.236 314.479 121.135 314.655 121.005Z" fill="white"/>
</g>
</g>
<defs>
<filter id="filter0_d_570_13168" x="295.41" y="133.669" width="35.7222" height="33.2915" filterUnits="userSpaceOnUse" color-interpolation-filters="sRGB">
<feFlood flood-opacity="0" result="BackgroundImageFix"/>
<feColorMatrix in="SourceAlpha" type="matrix" values="0 0 0 0 0 0 0 0 0 0 0 0 0 0 0 0 0 0 127 0" result="hardAlpha"/>
<feMorphology radius="9" operator="dilate" in="SourceAlpha" result="effect1_dropShadow_570_13168"/>
<feOffset dy="2"/>
<feGaussianBlur stdDeviation="2"/>
<feColorMatrix type="matrix" values="0 0 0 0 0.0546562 0 0 0 0 0.0276042 0 0 0 0 0.220833 0 0 0 0.25 0"/>
<feBlend mode="normal" in2="BackgroundImageFix" result="effect1_dropShadow_570_13168"/>
<feBlend mode="normal" in="SourceGraphic" in2="effect1_dropShadow_570_13168" result="shape"/>
</filter>
<filter id="filter1_d_570_13168" x="295.116" y="119.086" width="36.3086" height="36.3086" filterUnits="userSpaceOnUse" color-interpolation-filters="sRGB">
<feFlood flood-opacity="0" result="BackgroundImageFix"/>
<feColorMatrix in="SourceAlpha" type="matrix" values="0 0 0 0 0 0 0 0 0 0 0 0 0 0 0 0 0 0 127 0" result="hardAlpha"/>
<feMorphology radius="9" operator="dilate" in="SourceAlpha" result="effect1_dropShadow_570_13168"/>
<feOffset dy="2"/>
<feGaussianBlur stdDeviation="2"/>
<feColorMatrix type="matrix" values="0 0 0 0 0.0546562 0 0 0 0 0.0276042 0 0 0 0 0.220833 0 0 0 0.25 0"/>
<feBlend mode="normal" in2="BackgroundImageFix" result="effect1_dropShadow_570_13168"/>
<feBlend mode="normal" in="SourceGraphic" in2="effect1_dropShadow_570_13168" result="shape"/>
</filter>
<filter id="filter2_d_570_13168" x="296.105" y="105.886" width="34.3296" height="32.5447" filterUnits="userSpaceOnUse" color-interpolation-filters="sRGB">
<feFlood flood-opacity="0" result="BackgroundImageFix"/>
<feColorMatrix in="SourceAlpha" type="matrix" values="0 0 0 0 0 0 0 0 0 0 0 0 0 0 0 0 0 0 127 0" result="hardAlpha"/>
<feMorphology radius="9" operator="dilate" in="SourceAlpha" result="effect1_dropShadow_570_13168"/>
<feOffset dy="2"/>
<feGaussianBlur stdDeviation="2"/>
<feColorMatrix type="matrix" values="0 0 0 0 0.0546562 0 0 0 0 0.0276042 0 0 0 0 0.220833 0 0 0 0.25 0"/>
<feBlend mode="normal" in2="BackgroundImageFix" result="effect1_dropShadow_570_13168"/>
<feBlend mode="normal" in="SourceGraphic" in2="effect1_dropShadow_570_13168" result="shape"/>
</filter>
<linearGradient id="paint0_linear_570_13168" x1="22.1144" y1="66.3489" x2="22.1144" y2="106.578" gradientUnits="userSpaceOnUse">
<stop stop-color="#302A1D"/>
<stop offset="1" stop-color="#212134"/>
</linearGradient>
<clipPath id="clip0_570_13168">
<rect width="15.0858" height="15.0858" fill="white" transform="translate(305.728 140.772)"/>
</clipPath>
<clipPath id="clip1_570_13168">
<rect width="15.0858" height="15.0858" fill="white" transform="translate(305.728 127.698)"/>
</clipPath>
<clipPath id="clip2_570_13168">
<rect width="15.0858" height="15.0858" fill="white" transform="translate(305.728 112.612)"/>
</clipPath>
</defs>
</svg>
