<svg width="24" height="24" viewBox="0 0 24 24" fill="none" xmlns="http://www.w3.org/2000/svg">
<path d="M15.542 6.40173L7.55923 13.7393C7.3277 13.9449 7.14302 14.1908 7.01597 14.4626C6.88893 14.7345 6.82205 15.0269 6.81925 15.3227C6.81646 15.6186 6.87779 15.912 6.99968 16.1858C7.12157 16.4597 7.30157 16.7085 7.52919 16.9177C7.7568 17.1269 8.02746 17.2924 8.32538 17.4044C8.6233 17.5164 8.94252 17.5728 9.2644 17.5702C9.58628 17.5677 9.90437 17.5062 10.2001 17.3894C10.4959 17.2726 10.7634 17.1029 10.987 16.8901L18.7613 9.55246C19.6445 8.71196 20.1332 7.58624 20.1221 6.41776C20.1111 5.24929 19.6012 4.13154 18.7023 3.30528C17.8033 2.47901 16.5873 2.01032 15.3161 2.00017C14.0449 1.99001 12.8202 2.4392 11.9058 3.25099L4.13025 10.5875C2.76627 11.8412 2 13.5417 2 15.3147C2 17.0878 2.76627 18.7882 4.13025 20.0419C5.49422 21.2957 7.34417 22 9.27312 22C11.2021 22 13.052 21.2957 14.416 20.0419L22 13.0865" stroke="#868686" stroke-width="3" stroke-linecap="round" stroke-linejoin="round"/>
</svg>
