<svg width="25" height="24" viewBox="0 0 25 24" fill="none" xmlns="http://www.w3.org/2000/svg">
<path d="M19.7399 17.2693L24.8001 22.3282L23.1283 24L18.0693 18.9398C16.187 20.4488 13.8456 21.2696 11.4331 21.2661C5.56366 21.2661 0.800049 16.5025 0.800049 10.6331C0.800049 4.76361 5.56366 0 11.4331 0C17.3026 0 22.0662 4.76361 22.0662 10.6331C22.0696 13.0456 21.2489 15.3869 19.7399 17.2693ZM17.3699 16.3926C18.8693 14.8507 19.7067 12.7838 19.7033 10.6331C19.7033 6.06321 16.0018 2.3629 11.4331 2.3629C6.86326 2.3629 3.16295 6.06321 3.16295 10.6331C3.16295 15.2017 6.86326 18.9032 11.4331 18.9032C13.5839 18.9066 15.6508 18.0693 17.1927 16.5699L17.3699 16.3926Z" fill="#E5E1DE"/>
</svg>
