<?xml version="1.0" standalone="no"?>
<!DOCTYPE svg PUBLIC "-//W3C//DTD SVG 20010904//EN"
 "http://www.w3.org/TR/2001/REC-SVG-20010904/DTD/svg10.dtd">
<svg version="1.0" xmlns="http://www.w3.org/2000/svg"
 width="2439.000000pt" height="3252.000000pt" viewBox="0 0 2439.000000 3252.000000"
 preserveAspectRatio="xMidYMid meet">

<g transform="translate(0.000000,3252.000000) scale(0.100000,-0.100000)"
fill="#000000" stroke="none">
<path d="M0 16260 l0 -16260 12195 0 12195 0 0 16260 0 16260 -12195 0 -12195
0 0 -16260z m18378 13470 c2 -47 -1 -81 -5 -76 -4 4 -8 33 -8 64 0 32 -4 68
-9 81 -6 18 -5 22 5 19 10 -3 15 -29 17 -88z m-14196 -92 c3 -24 2 -65 -2 -93
l-7 -50 -2 56 c-1 37 -6 61 -16 69 -8 7 -15 21 -15 32 0 15 -5 18 -20 13 -11
-4 -20 -2 -20 4 0 6 17 11 39 11 38 0 38 -1 43 -42z m14189 -66 c-8 -3 -8 -9
-1 -23 8 -15 9 -117 1 -201 -1 -5 -5 -8 -10 -8 -14 0 -21 56 -11 91 5 17 7 36
4 41 -3 4 -7 37 -9 73 -3 52 -1 63 11 58 9 -3 15 2 16 18 1 15 3 10 5 -11 3
-19 0 -36 -6 -38z m-4748 -91 c13 -13 -1 -31 -23 -31 -22 0 -80 31 -80 44 0
11 91 -1 103 -13z m-41 -57 c15 -10 8 -33 -13 -39 -13 -4 -27 -1 -38 9 -10 9
-23 16 -29 16 -13 0 -16 13 -5 24 7 7 70 -1 85 -10z m4146 -42 c-3 -13 -8 -10
-21 14 -9 17 -13 34 -10 38 10 9 35 -32 31 -52z m-5371 21 c7 -20 -28 -23 -48
-4 -20 19 -20 19 12 16 18 -1 35 -7 36 -12z m-3174 -80 c-13 -2 -35 -2 -50 0
-16 2 -5 4 22 4 28 0 40 -2 28 -4z m4733 -45 c18 2 35 -2 39 -8 4 -6 -5 -10
-22 -10 -39 0 -73 10 -73 22 0 5 5 6 12 2 7 -4 27 -7 44 -6z m731 -1 c-1 -5
-6 -8 -10 -8 -4 1 -33 2 -64 3 l-58 1 45 6 c62 8 91 8 87 -2z m-250 -3 c-3 -3
-12 -4 -19 -1 -8 3 -5 6 6 6 11 1 17 -2 13 -5z m96 -1 c-7 -2 -21 -2 -30 0
-10 3 -4 5 12 5 17 0 24 -2 18 -5z m-10316 -376 c-2 -23 -3 -1 -3 48 0 50 1
68 3 42 2 -26 2 -67 0 -90z m3 -117 c0 -11 -4 -20 -9 -20 -5 0 -7 9 -4 20 3
11 7 20 9 20 2 0 4 -9 4 -20z m6 -341 c-2 -85 -4 -169 -5 -188 -2 -55 -16 -25
-18 37 -1 32 -4 84 -6 117 -3 33 0 65 5 71 5 7 6 35 4 63 -3 28 -3 58 1 67 15
40 22 -23 19 -167z m1595 -42 c-9 -9 -10 -5 -7 13 6 36 8 37 13 16 3 -10 0
-23 -6 -29z m-1604 -320 c-2 -23 -3 -1 -3 48 0 50 1 68 3 42 2 -26 2 -67 0
-90z m3239 -14 c14 -10 14 -14 -2 -38 -22 -33 -35 -17 -32 40 2 48 12 70 16
35 2 -14 10 -30 18 -37z m7615 -11 c-6 -2 -9 -8 -5 -13 3 -5 3 -9 0 -9 -3 0
-10 10 -17 21 -7 13 -7 19 -1 15 6 -3 14 -1 18 6 6 9 9 9 12 -2 3 -8 0 -16 -7
-18z m-10851 -42 c0 -5 -2 -10 -4 -10 -3 0 -8 5 -11 10 -3 6 -1 10 4 10 6 0
11 -4 11 -10z m3233 -70 c-6 -24 -23 -37 -23 -18 0 12 18 38 26 38 1 0 0 -9
-3 -20z m13967 -34 c0 -11 -19 -15 -25 -6 -3 5 1 10 9 10 9 0 16 -2 16 -4z
m-11124 -39 c1 -11 -5 -17 -17 -17 -10 0 -19 6 -19 13 0 31 31 34 36 4z
m-2779 -785 l1 -643 -26 -10 c-14 -5 -31 -8 -39 -5 -16 6 -17 38 -2 53 8 8 7
17 -2 34 -10 18 -14 100 -16 329 -4 433 -4 491 4 503 3 5 5 28 5 49 -1 26 4
44 18 58 26 26 25 40 -2 41 l-23 2 23 4 c12 2 22 9 22 14 0 5 -11 7 -25 3 -15
-4 -25 -2 -25 5 0 6 8 11 18 11 9 0 23 9 30 21 8 13 9 18 2 14 -8 -5 -9 3 -5
29 6 27 4 36 -6 36 -11 0 -11 3 1 10 12 8 10 10 -9 8 -13 -2 -26 3 -29 11 -3
11 2 12 23 7 23 -6 26 -4 21 9 -3 9 -1 25 5 36 8 16 7 26 -6 46 -9 13 -14 28
-10 31 3 4 10 0 15 -8 6 -10 9 -5 8 16 -1 17 3 37 8 45 17 26 20 -107 21 -759z
m-73 722 c6 -24 2 -43 -8 -33 -11 10 -17 59 -8 59 5 0 13 -12 16 -26z m2870 1
c4 -11 -2 -15 -24 -15 -29 0 -38 9 -23 23 12 12 41 7 47 -8z m-2860 -200 c-4
-8 -8 -15 -10 -15 -2 0 -4 7 -4 15 0 8 4 15 10 15 5 0 7 -7 4 -15z m13712 -73
c-10 -10 -29 15 -21 28 6 9 10 8 17 -4 6 -10 7 -20 4 -24z m-15339 -444 c-3
-8 -6 -5 -6 6 -1 11 2 17 5 13 3 -3 4 -12 1 -19z m-992 -191 c2 -6 6 -56 10
-110 l6 -97 -27 -10 c-49 -19 -95 18 -57 45 16 12 16 14 0 38 -9 15 -17 44
-17 65 0 40 -20 69 -39 58 -11 -7 -3 -37 12 -47 12 -8 19 -129 7 -129 -5 0
-10 5 -12 12 -2 6 -19 17 -38 23 l-33 11 2 69 c1 38 4 73 7 76 8 13 174 10
179 -4z m-235 -7 c0 -5 -6 -10 -14 -10 -8 0 -18 5 -21 10 -3 6 3 10 14 10 12
0 21 -4 21 -10z m10 -51 c0 -6 -4 -7 -10 -4 -5 3 -10 11 -10 16 0 6 5 7 10 4
6 -3 10 -11 10 -16z m10124 -444 c3 -8 1 -15 -4 -15 -6 0 -10 7 -10 15 0 8 2
15 4 15 2 0 6 -7 10 -15z m-7224 -10 c6 -8 9 -19 5 -25 -4 -7 -7 -66 -6 -132
0 -67 -3 -118 -6 -114 -4 4 -8 28 -9 54 -1 26 -4 84 -6 129 -1 46 -7 83 -11
83 -5 0 -5 5 -2 10 9 14 21 12 35 -5z m7724 -48 c-16 -52 -25 -68 -33 -62 -6
3 -6 18 0 38 6 17 13 38 15 45 2 7 9 10 14 7 6 -4 8 -16 4 -28z m-436 14 c7 0
18 -13 24 -28 16 -37 55 -75 62 -60 3 8 9 6 19 -5 8 -10 16 -16 19 -13 2 3 3
-8 0 -24 -6 -40 14 -74 40 -68 17 5 19 2 14 -16 -3 -12 -6 -28 -6 -35 0 -9 -7
-11 -20 -7 -32 10 -27 -33 5 -45 14 -5 29 -9 33 -9 21 3 42 -2 42 -11 0 -14
-47 -12 -56 2 -5 8 -14 -2 -25 -27 -18 -39 -18 -40 1 -49 21 -10 27 -26 9 -26
-6 0 -8 -9 -4 -20 4 -14 2 -20 -8 -20 -14 0 -32 27 -29 43 1 4 -2 7 -8 7 -14
0 -12 -20 5 -50 17 -29 19 -44 6 -35 -5 3 -17 -2 -26 -11 -12 -13 -19 -14 -28
-5 -6 6 -15 11 -19 11 -11 0 -10 -38 2 -45 15 -9 -11 -44 -28 -37 -10 3 -13 1
-8 -6 4 -7 1 -12 -8 -12 -9 0 -16 5 -16 11 0 7 -11 8 -31 4 -64 -14 -83 -13
-97 7 -8 10 -24 18 -35 17 -39 -3 -58 1 -53 9 6 10 -32 90 -51 110 -7 8 -11
18 -8 23 4 5 -4 9 -15 9 -16 0 -20 4 -16 15 3 8 9 22 12 30 3 8 1 15 -5 15 -6
0 -11 -4 -11 -9 0 -5 -16 -9 -36 -9 -27 0 -37 5 -44 22 -9 24 -3 39 11 30 5
-3 7 -9 4 -14 -3 -4 4 -10 15 -13 11 -3 20 -1 20 4 0 5 -5 9 -10 9 -7 0 -7 6
-1 18 11 21 -3 42 -26 42 -7 0 -13 5 -13 10 0 12 17 13 24 1 3 -5 15 -7 26 -4
13 4 26 -1 34 -12 8 -11 15 -14 19 -8 4 6 -3 23 -15 38 l-21 27 34 -7 c32 -7
33 -6 14 9 -20 15 -20 15 4 16 14 0 21 5 18 13 -21 51 -21 50 1 36 17 -11 23
-10 38 1 9 8 29 14 43 13 14 -1 18 1 9 3 -10 3 -18 12 -18 20 0 11 7 13 26 8
24 -6 25 -5 15 14 -15 28 -4 54 19 47 25 -8 37 15 15 27 -10 6 -13 13 -7 17 9
5 79 7 120 2z m839 -53 c-3 -8 -6 -5 -6 6 -1 11 2 17 5 13 3 -3 4 -12 1 -19z
m-377 -28 c0 -11 -2 -20 -4 -20 -2 0 -6 9 -9 20 -3 11 -1 20 4 20 5 0 9 -9 9
-20z m388 -37 c-1 -38 -2 -43 -8 -23 -11 36 -12 70 -1 70 5 0 9 -21 9 -47z
m-7672 -2 c2 -17 -1 -33 -6 -36 -6 -4 -10 11 -10 36 0 47 11 46 16 0z m6592
-10 c3 -8 -1 -12 -9 -9 -7 2 -15 10 -17 17 -3 8 1 12 9 9 7 -2 15 -10 17 -17z
m-6522 -47 c-4 -9 -9 -15 -11 -12 -3 3 -3 13 1 22 4 9 9 15 11 12 3 -3 3 -13
-1 -22z m7601 -36 c-3 -7 -5 -2 -5 12 0 14 2 19 5 13 2 -7 2 -19 0 -25z m319
7 c7 -28 -2 -75 -15 -75 -12 0 -35 76 -27 89 12 19 35 12 42 -14z m-945 2 c-1
-12 -15 -9 -19 4 -3 6 1 10 8 8 6 -3 11 -8 11 -12z m252 -77 c-8 -28 -23 -25
-23 6 0 14 -4 23 -10 19 -6 -3 -10 4 -10 17 0 18 2 20 10 8 7 -12 10 -11 16 5
7 17 9 16 15 -8 4 -15 5 -36 2 -47z m374 18 c-3 -7 -5 -2 -5 12 0 14 2 19 5
13 2 -7 2 -19 0 -25z m-607 7 c9 -10 6 -15 -9 -20 -24 -7 -41 1 -41 18 0 17
36 19 50 2z m607 -87 c-3 -7 -5 -2 -5 12 0 14 2 19 5 13 2 -7 2 -19 0 -25z
m-8135 -18 c2 -22 0 -40 -4 -40 -5 0 -8 18 -8 40 0 22 2 40 4 40 2 0 6 -18 8
-40z m7508 -10 c0 -5 -7 -10 -15 -10 -8 0 -15 5 -15 10 0 6 7 10 15 10 8 0 15
-4 15 -10z m210 -34 c-14 -14 -24 0 -16 21 6 15 8 15 16 3 6 -9 5 -19 0 -24z
m1710 3 c0 -19 -21 -50 -31 -44 -5 4 -9 17 -9 31 0 17 5 24 20 24 11 0 20 -5
20 -11z m-3524 -7 c16 -11 34 -48 34 -71 0 -12 1 -21 3 -22 1 0 29 -3 61 -5
33 -2 61 -6 63 -7 1 -2 4 -96 5 -210 2 -158 0 -208 -9 -212 -22 -8 -42 6 -45
33 -5 40 -30 42 -26 1 l3 -33 -133 -4 c-92 -2 -138 1 -148 9 -11 9 -14 43 -14
150 0 127 -2 139 -20 149 -16 9 -19 20 -18 76 1 61 3 67 33 90 21 16 45 24 71
24 21 0 57 9 79 19 47 23 47 23 61 13z m-5903 -62 c-9 -10 -20 24 -15 44 6 19
7 18 12 -9 4 -16 5 -32 3 -35z m3859 22 c5 -5 -211 -7 -272 -2 -3 0 0 4 6 8
14 9 256 3 266 -6z m2186 -9 c-15 -2 -42 -2 -60 0 -18 2 -6 4 27 4 33 0 48 -2
33 -4z m-2294 -13 c22 -8 26 -16 26 -50 0 -39 1 -40 34 -40 19 0 38 -4 41 -10
3 -5 26 -10 49 -10 24 0 49 -6 55 -13 7 -9 9 -62 6 -163 -3 -82 -5 -153 -5
-157 0 -4 -37 -7 -82 -5 l-83 3 2 29 c4 51 10 58 33 44 18 -11 23 -10 34 4 12
17 10 78 -3 78 -16 -1 -29 -17 -28 -34 1 -10 -4 -21 -12 -24 -11 -4 -13 2 -8
26 4 21 1 34 -11 45 -15 14 -20 13 -44 -8 -21 -18 -28 -33 -28 -60 0 -19 4
-35 10 -35 5 0 14 -10 21 -21 9 -17 8 -23 -2 -30 -21 -13 -157 -11 -165 2 -4
6 -5 48 -4 93 3 79 3 144 1 216 -3 102 -1 109 33 119 42 13 99 13 130 1z
m-7044 -19 c0 -11 -4 -23 -10 -26 -6 -4 -9 5 -8 19 3 30 18 35 18 7z m12655
-10 c6 -21 -3 -51 -17 -51 -5 0 -7 -4 -3 -9 8 -14 -15 -25 -27 -13 -8 8 -8 15
1 26 6 7 11 18 10 22 -7 41 24 63 36 25z m-5465 -6 c17 -20 -3 -45 -30 -38
-25 7 -44 29 -35 43 9 15 51 12 65 -5z m3842 -995 c-2 -256 -4 -483 -4 -505
-1 -22 -1 -71 0 -110 1 -38 1 -81 1 -95 0 -14 3 -61 8 -105 4 -44 6 -246 5
-449 -3 -359 -3 -370 -24 -399 -23 -32 -25 -67 -9 -168 5 -29 5 -63 0 -74 -7
-19 -8 -19 -8 3 -1 13 -8 30 -16 38 -8 9 -15 33 -15 55 0 47 -15 50 -38 8 -9
-17 -26 -42 -36 -56 -14 -18 -20 -43 -20 -84 -1 -56 0 -58 29 -63 33 -7 95
-46 95 -60 0 -5 -9 -1 -20 9 -41 37 -207 27 -245 -15 -34 -38 -57 -21 -33 23
7 12 11 32 9 45 -1 13 2 29 8 35 5 7 10 22 10 32 1 92 9 180 17 180 4 0 10
-44 11 -98 2 -76 -1 -105 -13 -123 -9 -13 -14 -29 -11 -36 3 -7 6 -4 7 7 1 19
1 19 14 2 10 -13 24 -17 48 -15 30 3 33 6 36 41 3 35 1 38 -17 32 -14 -4 -21
0 -26 14 -9 31 3 843 13 853 10 10 28 -8 35 -37 3 -14 5 -10 6 11 1 27 -4 34
-34 48 -49 23 -56 44 -53 144 3 82 4 87 26 90 21 3 23 9 22 45 -5 125 1 348 9
342 5 -3 10 -72 10 -153 0 -220 0 -232 10 -232 6 0 11 21 13 48 3 39 6 47 23
47 16 0 20 7 22 40 2 36 1 38 -9 18 -27 -54 -30 -19 -24 237 7 311 12 400 33
674 12 148 13 213 6 225 -7 12 -8 81 -3 217 8 210 10 198 -36 262 -16 21 -16
22 10 22 22 0 30 -9 50 -52 14 -29 28 -62 32 -73 6 -15 10 -7 17 35 6 30 14
57 18 60 4 3 4 12 -1 20 -6 9 -3 18 8 26 16 12 18 -7 27 -254 5 -147 8 -476 7
-732z m-1655 858 c-2 -24 -4 -7 -4 37 0 44 2 63 4 43 2 -21 2 -57 0 -80z
m-6084 72 c-7 -28 -13 -25 -13 6 0 14 4 23 9 20 5 -3 7 -15 4 -26z m7851 -34
c-3 -21 -8 -35 -11 -32 -2 2 -1 20 3 40 3 21 8 35 11 32 2 -2 1 -20 -3 -40z
m-757 18 c-3 -3 -12 -4 -19 -1 -8 3 -5 6 6 6 11 1 17 -2 13 -5z m-7087 -33 c0
-14 -26 -20 -52 -13 -22 6 -22 7 7 13 44 10 45 10 45 0z m7177 -17 c-3 -3 -12
-4 -19 -1 -8 3 -5 6 6 6 11 1 17 -2 13 -5z m-10492 -43 c-3 -6 -11 -11 -17
-11 -6 0 -6 6 2 15 14 17 26 13 15 -4z m10535 3 c0 -10 -6 -14 -14 -11 -7 3
-18 1 -23 -4 -11 -11 -43 -1 -43 13 0 6 6 8 13 5 6 -2 21 -1 32 4 30 12 35 11
35 -7z m100 -59 c0 -38 -16 -37 -17 1 -1 18 3 31 8 28 5 -3 9 -16 9 -29z
m-145 5 c-3 -5 -11 -10 -16 -10 -6 0 -7 5 -4 10 3 6 11 10 16 10 6 0 7 -4 4
-10z m-10488 -132 c-3 -8 -6 -5 -6 6 -1 11 2 17 5 13 3 -3 4 -12 1 -19z
m13355 -26 c-25 -41 -73 -100 -107 -134 -16 -16 -37 -40 -45 -53 -16 -24 -173
-206 -222 -257 -14 -15 -31 -28 -37 -28 -11 0 -2 12 79 104 20 23 43 52 52 66
22 36 286 330 295 330 2 0 -5 -13 -15 -28z m-10117 -22 c3 -6 -1 -7 -9 -4 -18
7 -21 14 -7 14 6 0 13 -4 16 -10z m70 -60 c3 -5 1 -10 -4 -10 -6 0 -11 5 -11
10 0 6 2 10 4 10 3 0 8 -4 11 -10z m-3318 -112 c-3 -8 -6 -5 -6 6 -1 11 2 17
5 13 3 -3 4 -12 1 -19z m10840 -190 c-3 -8 -6 -5 -6 6 -1 11 2 17 5 13 3 -3 4
-12 1 -19z m333 -30 c0 -16 -3 -19 -11 -11 -6 6 -8 16 -5 22 11 17 16 13 16
-11z m-320 -14 c0 -8 -4 -12 -10 -9 -5 3 -10 13 -10 21 0 8 5 12 10 9 6 -3 10
-13 10 -21z m0 -84 c0 -27 -4 -50 -9 -50 -5 0 -9 23 -9 50 -1 28 3 50 9 50 5
0 9 -22 9 -50z m2031 -53 c-10 -9 -11 -8 -5 6 3 10 9 15 12 12 3 -3 0 -11 -7
-18z m-2292 -64 c-1 -49 -2 -54 -9 -29 -8 26 -3 86 6 86 2 0 4 -26 3 -57z
m-6452 -5 c-3 -7 -5 -2 -5 12 0 14 2 19 5 13 2 -7 2 -19 0 -25z m6713 -18 c0
-5 -4 -10 -10 -10 -5 0 -10 5 -10 10 0 6 5 10 10 10 6 0 10 -4 10 -10z m319
-154 c-1 -46 2 -89 6 -96 7 -12 7 -401 0 -409 -3 -2 -12 2 -21 9 -14 12 -15
45 -10 299 6 331 4 294 16 286 5 -3 9 -43 9 -89z m-7048 1 c-8 -8 -11 -3 -11
19 1 25 2 27 11 11 8 -14 8 -22 0 -30z m228 -35 c8 -25 6 -30 -5 -25 -8 3 -14
19 -14 36 0 36 7 32 19 -11z m-203 -26 c6 -5 14 -66 9 -66 -11 0 -54 54 -55
68 0 9 7 11 23 6 12 -3 23 -7 23 -8z m207 -78 c17 -65 20 -108 7 -108 -6 0
-10 -11 -10 -25 0 -14 6 -25 13 -25 7 0 18 -13 24 -30 12 -33 7 -36 -30 -19
-26 12 -35 51 -32 134 1 22 3 59 4 83 0 23 3 42 5 42 3 0 11 -24 19 -52z
m6497 -19 c0 -37 -4 -58 -10 -54 -11 7 -13 57 -4 93 10 36 14 26 14 -39z
m-6711 -36 c1 16 20 25 22 10 6 -38 4 -225 -2 -229 -14 -8 -29 33 -28 78 0 24
-2 72 -5 108 -4 43 -2 57 3 40 6 -17 9 -20 10 -7z m-4122 -65 c-3 -7 -5 -2 -5
12 0 14 2 19 5 13 2 -7 2 -19 0 -25z m4413 -24 c0 -8 -4 -14 -10 -14 -5 0 -10
9 -10 21 0 11 5 17 10 14 6 -3 10 -13 10 -21z m106 -39 c-4 -10 1 -15 14 -15
18 0 19 -3 8 -20 -15 -24 -34 -26 -42 -4 -8 21 2 54 16 54 5 0 8 -7 4 -15z
m-116 -143 c13 -49 13 -58 -6 -76 -10 -11 -11 -16 -3 -16 7 0 10 -2 7 -5 -9
-9 -78 36 -78 51 0 8 5 14 10 14 6 0 10 10 10 23 0 12 3 32 6 44 9 33 40 12
54 -35z m249 21 c0 -25 -1 -26 -9 -8 -12 27 -12 35 0 35 6 0 10 -12 9 -27z
m172 20 c0 -5 3 -33 5 -63 4 -58 21 -110 38 -122 7 -5 5 -8 -5 -8 -35 0 -51
35 -52 119 -1 45 1 81 6 81 4 0 7 -3 8 -7z m-761 -40 c0 -43 -5 -41 -13 5 -4
18 -2 32 3 32 6 0 10 -16 10 -37z m440 27 c0 -5 -2 -10 -4 -10 -3 0 -8 5 -11
10 -3 6 -1 10 4 10 6 0 11 -4 11 -10z m52 -24 c4 -19 1 -22 -14 -18 -19 5 -25
22 -7 22 5 0 7 5 4 10 -3 6 -2 10 3 10 5 0 12 -11 14 -24z m-407 2 c7 -22 12
-248 5 -248 -3 0 -16 9 -28 20 -23 22 -28 45 -13 54 11 7 9 25 -3 45 -6 9 -5
12 2 7 18 -11 22 9 7 37 -17 32 -9 97 12 97 7 0 16 -6 18 -12z m609 -33 c7
-46 2 -70 -15 -60 -12 8 -12 105 0 105 5 0 12 -20 15 -45z m211 -192 c-1 -2
-12 5 -24 14 -22 15 -23 21 -18 87 4 39 11 72 17 74 5 2 11 11 12 20 1 10 4
-30 8 -88 3 -58 6 -106 5 -107z m-902 157 c3 -12 1 -18 -5 -14 -7 5 -9 -2 -6
-20 3 -14 1 -26 -3 -26 -10 0 -11 25 -3 58 8 27 10 28 17 2z m514 -13 c19 -18
23 -32 23 -85 l0 -62 -27 6 c-16 4 -43 18 -61 31 -26 20 -31 29 -26 46 4 12 8
38 10 57 2 19 3 37 3 39 2 10 57 -13 78 -32z m449 10 c1 -7 8 -25 15 -42 9
-23 13 -26 16 -12 3 9 9 15 14 12 13 -9 11 -21 -7 -39 -8 -9 -11 -16 -5 -16 6
0 11 -7 11 -16 0 -12 -7 -15 -25 -11 -31 5 -29 -13 3 -28 20 -9 22 -17 22 -82
0 -71 -1 -73 -20 -61 -14 9 -20 24 -20 49 0 22 -7 42 -19 53 -16 14 -18 28
-14 84 5 89 13 135 21 128 3 -4 7 -12 8 -19z m6133 -354 c-2 -265 -5 -356 -16
-380 -13 -33 -27 -41 -37 -24 -3 5 -1 107 6 227 6 121 10 283 9 361 -2 78 0
146 4 152 3 6 13 11 21 11 13 0 15 -45 13 -347z m-7094 269 c0 -18 -20 -15
-23 4 -3 10 1 15 10 12 7 -3 13 -10 13 -16z m295 3 c7 -8 18 -15 25 -15 7 0
15 -14 19 -30 3 -17 9 -30 13 -29 23 4 26 -3 6 -19 -33 -26 -35 -77 -3 -85 15
-4 20 -14 20 -41 0 -20 2 -36 4 -36 2 0 12 -3 21 -6 13 -5 16 1 15 37 -1 81 0
82 16 69 9 -8 14 -9 14 -2 0 6 -4 13 -9 16 -10 6 -20 76 -11 76 3 0 12 -5 20
-10 11 -7 11 -10 2 -10 -10 0 -10 -5 -2 -20 14 -27 34 -26 27 1 -6 21 -5 21
19 -2 l25 -23 -23 -18 c-17 -13 -19 -18 -7 -18 8 0 20 5 27 12 9 9 12 -10 12
-85 0 -111 -6 -117 -68 -68 -20 16 -54 34 -75 41 -33 10 -38 15 -33 35 7 28
-1 37 -23 23 -13 -8 -23 -8 -37 0 -18 11 -18 11 5 12 19 0 22 4 17 23 -3 12
-6 28 -6 35 0 6 -4 12 -10 12 -5 0 -10 -9 -10 -20 0 -11 -4 -20 -10 -20 -16 0
-28 34 -23 68 4 26 9 31 23 27 20 -6 35 9 25 25 -5 8 -11 8 -20 0 -15 -12 -30
3 -20 20 3 6 1 10 -6 10 -8 0 -8 4 1 15 7 8 16 15 20 15 4 0 13 -7 20 -15z
m300 -40 c0 -8 -4 -15 -10 -15 -5 0 -10 7 -10 15 0 8 5 15 10 15 6 0 10 -7 10
-15z m-595 -83 c-3 -8 -5 -44 -5 -80 0 -47 -3 -63 -10 -52 -5 8 -10 11 -10 5
1 -5 7 -19 15 -29 17 -23 20 -46 5 -46 -5 0 -7 7 -3 15 3 10 0 15 -8 13 -14
-3 -15 18 -9 192 1 33 1 34 16 15 8 -11 12 -26 9 -33z m714 31 c0 -11 -3 -13
-6 -5 -8 21 -24 13 -22 -10 1 -13 1 -34 0 -48 l-3 -25 -8 25 c-4 14 -8 37 -9
53 -1 22 3 27 24 27 17 0 25 -5 24 -17z m-672 -95 c-2 -13 -4 -3 -4 22 0 25 2
35 4 23 2 -13 2 -33 0 -45z m51 -67 c2 -71 0 -111 -7 -116 -14 -8 -13 -14 -16
129 -3 87 -1 116 8 107 6 -6 12 -58 15 -120z m796 59 c3 -23 9 -46 14 -49 5
-3 11 -25 14 -49 3 -34 0 -43 -15 -48 -13 -4 -17 -14 -15 -32 2 -22 7 -26 28
-24 40 5 80 5 85 0 10 -9 15 -104 9 -150 -3 -25 -12 -49 -19 -52 -8 -3 -28 8
-46 25 -17 16 -42 29 -55 29 -16 0 -24 6 -25 18 -2 45 6 352 10 376 3 21 11
-3 15 -44z m-74 18 c26 -29 25 -42 -5 -58 -20 -11 -27 -11 -40 0 -21 18 -19
27 10 34 14 4 25 11 25 17 0 6 -5 7 -10 4 -6 -4 -18 -4 -28 0 -14 5 -14 7 -2
15 22 14 27 12 50 -12z m195 -90 c4 -15 3 -47 0 -72 l-7 -45 -34 25 c-28 22
-32 29 -24 49 5 12 6 32 3 44 -3 11 -3 27 0 35 9 23 55 -3 62 -36z m-966 -26
c-13 -5 -11 -30 4 -35 6 -2 9 -8 4 -12 -17 -19 -28 14 -21 66 8 54 8 54 15 19
4 -20 4 -36 -2 -38z m277 -44 c-3 -23 0 -38 7 -38 7 0 7 -4 -1 -12 -19 -19
-14 -51 13 -88 14 -19 25 -35 25 -36 0 -1 -21 6 -47 15 l-48 17 -6 84 c-3 47
-3 99 -1 117 l5 32 28 -26 c23 -23 28 -34 25 -65z m520 -57 c-4 -48 -11 -87
-16 -89 -5 -2 -6 -10 -3 -19 4 -11 2 -14 -8 -11 -8 3 -12 12 -10 19 13 48 13
59 -3 59 -12 0 -14 -7 -9 -30 6 -35 -3 -37 -36 -9 l-24 20 21 15 c12 8 22 22
22 30 0 8 7 14 15 14 18 0 20 20 3 21 -10 0 -10 2 0 6 14 6 16 39 2 48 -6 3
-13 -1 -16 -9 -10 -27 -22 -18 -21 16 2 31 27 54 27 24 0 -9 5 -16 10 -16 6 0
10 11 10 23 0 38 14 41 28 6 10 -23 12 -58 8 -118z m-147 122 c-5 -30 3 -53
19 -53 15 -1 15 -2 -2 -15 -31 -23 -46 -18 -46 14 0 35 9 61 21 61 5 0 8 -3 8
-7z m-206 -93 c14 -11 28 -33 31 -48 8 -38 15 -190 9 -196 -5 -4 -143 63 -143
70 0 1 10 0 21 -3 20 -6 21 -3 15 33 -10 65 -12 135 -4 140 5 3 6 10 3 15 -11
17 42 9 68 -11z m-4556 -32 c-3 -8 -6 -5 -6 6 -1 11 2 17 5 13 3 -3 4 -12 1
-19z m4069 -102 c3 -91 1 -117 -8 -114 -9 3 -14 39 -16 122 -2 85 1 117 9 114
7 -2 13 -45 15 -122z m58 77 c4 -5 13 -8 19 -8 19 0 17 -226 -2 -233 -18 -7
-53 36 -46 57 2 9 6 39 7 67 2 38 6 50 15 47 16 -6 6 25 -14 45 -7 7 -13 18
-13 23 0 11 24 12 34 2z m659 -12 c3 -14 -1 -17 -19 -13 -29 5 -32 27 -5 29
11 1 21 -6 24 -16z m-31 -83 c0 -13 2 -43 4 -68 2 -25 6 -61 10 -80 6 -32 9
-26 23 54 9 49 21 91 26 93 6 2 11 -37 12 -102 3 -113 0 -119 -50 -93 -12 6
-29 14 -37 18 -18 8 -24 72 -15 148 6 52 24 72 27 30z m-394 -36 c2 -15 10
-22 26 -22 27 0 60 -33 53 -52 -2 -7 2 -28 10 -47 9 -24 10 -37 3 -41 -7 -5
-6 -11 5 -20 12 -10 15 -10 17 1 0 8 2 19 3 24 2 6 4 15 5 20 1 6 1 25 0 43
-1 17 3 32 8 32 15 0 56 -23 78 -45 23 -21 40 -100 25 -110 -6 -3 -6 -18 0
-38 15 -54 12 -69 -13 -62 -22 6 -152 70 -226 110 l-37 20 3 95 c1 52 5 101 7
108 7 20 30 9 33 -16z m-1058 -19 c-11 -17 -11 -17 -6 0 3 10 6 24 7 30 0 9 2
9 5 0 3 -7 0 -20 -6 -30z m1576 -38 c-7 -18 7 -65 19 -65 6 0 10 8 11 17 3 54
29 80 51 51 7 -10 10 -142 4 -190 -2 -19 -21 -6 -21 15 0 12 -4 29 -10 37 -7
12 -12 12 -29 -4 -34 -30 -49 -7 -46 67 4 95 4 99 16 92 6 -4 8 -13 5 -20z
m202 -77 c2 -37 0 -48 -12 -48 -8 0 -17 4 -21 10 -13 22 -35 -3 -35 -41 0 -21
-4 -39 -10 -39 -18 0 -16 115 2 138 7 8 7 12 -1 12 -7 0 -10 4 -6 10 3 5 22 8
43 7 37 -2 37 -2 40 -49z m-5078 20 c0 -11 -12 -10 -30 2 -12 7 -10 9 8 7 12
0 22 -5 22 -9z m4060 -7 c0 -12 48 -42 70 -44 17 -1 18 -11 18 -114 -1 -125
-1 -124 -65 -101 l-33 12 0 98 c0 97 13 138 18 56 1 -24 4 -52 6 -63 3 -11 5
-23 5 -27 1 -4 8 -5 16 -2 11 5 12 11 5 24 -14 26 -13 30 8 31 10 0 12 3 5 6
-7 2 -13 19 -13 36 0 41 -12 59 -36 55 -13 -2 -20 4 -22 20 -2 12 1 22 7 22 6
0 11 -4 11 -9z m-666 -87 c1 -28 5 -43 13 -41 12 2 13 0 13 -34 0 -18 -3 -19
-15 -9 -12 10 -16 9 -21 -4 -8 -22 -1 -39 19 -42 9 -1 15 2 12 6 -3 5 -1 11 5
15 6 4 10 -9 10 -34 0 -44 -2 -46 -47 -31 l-29 11 2 98 c1 55 5 109 9 122 7
21 8 21 18 4 5 -10 10 -37 11 -61z m1277 -79 c4 -75 3 -80 -16 -80 -19 0 -20
6 -17 80 2 44 6 89 9 100 6 20 6 20 13 0 4 -11 9 -56 11 -100z m80 51 c4 -25
4 -58 -1 -75 -5 -19 -5 -31 1 -31 5 0 9 -8 9 -18 0 -10 5 -23 12 -30 9 -9 7
-12 -9 -12 -27 0 -41 19 -38 50 1 14 3 58 4 99 1 81 9 87 22 17z m-3286 -15
c0 -22 -3 -41 -7 -41 -5 0 -8 9 -8 19 0 28 -11 52 -21 45 -5 -3 -9 2 -9 10 0
11 7 15 23 12 19 -3 22 -9 22 -45z m3388 2 c6 19 37 -11 37 -37 0 -37 12 -66
26 -66 8 0 14 -9 14 -20 0 -11 -7 -20 -15 -20 -24 0 -30 -29 -9 -45 34 -25 7
-27 -59 -4 -57 19 -65 25 -65 48 0 14 3 30 6 35 8 15 8 67 -1 73 -4 3 -2 12 5
21 10 12 10 14 1 8 -14 -8 -16 -2 -7 32 l7 23 28 -30 c17 -19 29 -26 32 -18z
m5829 15 c-9 -9 -12 -7 -12 12 0 19 3 21 12 12 9 -9 9 -15 0 -24z m-12315 -14
c-3 -3 -12 -4 -19 -1 -8 3 -5 6 6 6 11 1 17 -2 13 -5z m5142 -56 c-1 -35 -7
-66 -13 -70 -8 -5 -7 -11 2 -20 17 -17 15 -28 -4 -28 -15 0 -16 10 -9 82 4 46
9 86 11 90 11 18 15 4 13 -54z m853 45 c8 -10 18 -26 21 -35 3 -10 19 -20 34
-24 15 -4 31 -12 35 -18 4 -6 15 -11 25 -12 10 -1 28 -2 41 -3 12 0 22 -6 22
-11 0 -6 5 -16 10 -23 46 -54 48 -59 44 -100 -2 -23 -7 -50 -10 -60 -4 -11 0
-23 7 -28 27 -17 39 -9 39 24 0 17 4 38 9 45 12 20 21 -9 21 -69 0 -46 -11
-62 -25 -39 -7 12 -71 40 -90 40 -13 0 -76 29 -180 84 -47 25 -59 36 -56 51 1
11 5 59 8 108 5 90 14 105 45 70z m6383 7 c-3 -5 -21 -10 -38 -10 -24 0 -28 3
-17 10 20 13 63 13 55 0z m-12371 -26 c18 -7 23 -78 7 -88 -19 -12 -41 7 -47
39 -9 48 3 63 40 49z m6693 -26 c-3 -7 -5 -2 -5 12 0 14 2 19 5 13 2 -7 2 -19
0 -25z m5510 16 c-3 -3 -12 -4 -19 -1 -8 3 -5 6 6 6 11 1 17 -2 13 -5z
m-12099 -16 c7 -7 12 -29 12 -50 0 -30 -4 -38 -18 -38 -37 0 -53 40 -32 81 12
22 21 24 38 7z m6502 -3 c18 0 26 -6 28 -22 2 -13 15 -27 32 -35 35 -15 36
-27 46 -274 5 -154 4 -172 -11 -177 -9 -4 -13 -12 -9 -19 7 -11 9 -24 15 -123
3 -45 1 -50 -19 -53 -13 -2 -28 1 -35 6 -7 5 -24 12 -40 16 -23 6 -26 9 -17
26 13 24 13 40 0 40 -5 0 -10 -9 -10 -19 0 -27 -15 -34 -30 -16 -7 8 -21 15
-32 15 -12 0 -17 4 -12 12 5 8 8 108 5 161 -1 4 -7 7 -15 7 -11 0 -13 -18 -11
-90 4 -89 4 -90 -20 -90 -13 0 -26 4 -29 9 -3 5 -17 9 -31 9 -14 0 -32 8 -39
18 -17 23 -26 97 -19 151 5 38 7 40 38 37 39 -3 93 -19 150 -44 22 -9 52 -22
68 -28 15 -7 27 -18 27 -26 0 -11 7 -12 28 -7 36 10 38 45 2 49 -13 2 -33 10
-44 18 -11 8 -28 14 -37 14 -9 0 -26 9 -39 20 -13 11 -34 20 -47 20 -13 0 -26
6 -29 14 -3 8 -12 12 -19 10 -17 -7 -75 23 -76 39 0 9 -2 9 -6 0 -7 -20 -32
-15 -27 5 3 9 5 53 7 97 2 78 3 80 27 80 17 0 24 -5 21 -15 -10 -44 -11 -99
-1 -105 5 -3 7 -12 4 -18 -5 -8 -4 -9 4 -2 6 6 12 38 14 73 2 65 10 76 28 41
8 -13 17 -18 28 -14 9 3 31 -2 49 -12 33 -18 42 -36 23 -48 -16 -10 -12 -35 6
-35 11 0 15 6 11 19 -2 10 -1 24 3 31 13 21 30 1 32 -38 l1 -37 4 33 c3 18 7
32 11 30 4 -2 19 -10 35 -17 33 -17 46 -8 25 16 -17 19 -31 76 -17 67 5 -3 9
13 9 35 0 23 -4 41 -9 41 -5 0 -7 8 -4 19 3 10 0 22 -6 25 -8 5 -11 -13 -11
-55 0 -56 -1 -60 -17 -48 -15 12 -16 12 -10 -3 3 -10 2 -20 -2 -23 -5 -3 -12
2 -15 11 -3 8 -10 13 -15 9 -5 -3 -12 -1 -16 5 -3 5 0 10 7 10 8 0 14 9 14 20
0 11 -3 20 -6 20 -8 0 -6 57 3 66 4 4 7 12 7 17 0 6 -3 7 -7 4 -3 -4 -12 -2
-20 4 -10 9 -11 15 -2 26 7 8 15 10 18 6 3 -4 17 -8 31 -8z m5537 -1 c-16 -8
-38 -13 -50 -11 -22 3 -21 4 3 15 14 6 36 11 50 11 l25 0 -28 -15z m-11949
-40 c3 -32 -19 -61 -38 -49 -11 7 -14 68 -3 79 16 16 38 -1 41 -30z m337 -54
c6 -5 39 -14 75 -20 88 -17 92 -18 85 -30 -4 -6 11 -10 39 -10 55 0 146 -19
146 -30 0 -4 8 -6 19 -3 10 3 22 0 26 -6 13 -21 -23 -22 -85 -2 -78 26 -83 26
-75 1 7 -23 -2 -25 -55 -11 -19 5 -61 12 -94 16 -52 6 -64 12 -102 50 -51 50
-56 68 -16 59 15 -4 32 -10 37 -14z m11207 8 c-6 -6 -37 -13 -69 -14 l-58 -3
55 13 c74 18 87 19 72 4z m1510 -177 c-88 -86 -188 -178 -222 -206 -69 -55
-139 -123 -156 -152 -10 -16 -67 -51 -86 -53 -22 -1 -4 33 22 43 27 10 30 16
30 57 l1 45 15 -27 c8 -16 16 -28 19 -28 2 0 19 22 37 49 28 42 96 103 181
161 12 8 87 80 167 160 113 113 146 140 149 125 2 -14 -41 -61 -157 -174z
m-13244 137 c14 -14 16 -74 4 -82 -5 -3 -18 -2 -30 1 -17 4 -22 13 -22 37 0
29 15 56 30 56 3 0 11 -5 18 -12z m5052 -48 c0 -19 -5 -42 -10 -50 -7 -11 -10
-7 -10 18 0 20 -4 31 -10 27 -13 -8 -13 -155 0 -175 8 -12 10 -10 10 8 0 13 4
20 10 17 5 -3 9 -22 7 -41 -2 -36 -25 -47 -44 -21 -13 15 -24 177 -16 233 5
41 6 41 34 30 24 -9 29 -16 29 -46z m135 50 c3 -5 -1 -10 -9 -10 -9 0 -16 5
-16 10 0 6 4 10 9 10 6 0 13 -4 16 -10z m533 -2 c7 -7 12 -32 12 -57 0 -26 5
-53 10 -61 7 -11 10 -4 10 27 0 34 3 41 15 37 8 -4 15 -14 15 -23 0 -9 5 -22
10 -27 6 -6 10 -33 10 -60 0 -27 -1 -57 -1 -67 0 -32 -43 -17 -50 18 -4 17 -7
22 -8 13 0 -10 -10 -22 -21 -28 -28 -15 -36 12 -39 128 -2 110 6 131 37 100z
m5773 -4 c-45 -14 -67 -11 -41 6 8 6 31 9 50 9 l35 -1 -44 -14z m-11384 -18
c24 -21 26 -26 16 -49 -7 -14 -22 -31 -35 -38 -13 -6 -20 -8 -16 -4 5 5 -1 14
-11 21 -13 9 -17 22 -14 41 10 62 17 66 60 29z m5211 -16 c-1 -43 -13 -53 -23
-20 -5 17 9 60 20 60 3 0 4 -18 3 -40z m462 31 c0 -16 -28 -20 -34 -5 -4 9 1
14 14 14 11 0 20 -4 20 -9z m485 -11 c3 -5 1 -10 -4 -10 -6 0 -11 5 -11 10 0
6 2 10 4 10 3 0 8 -4 11 -10z m-1156 -63 c-5 -16 -11 -32 -14 -35 -7 -8 -6 53
1 73 11 29 23 -4 13 -38z m424 -24 c3 -29 2 -53 -2 -53 -20 0 -146 49 -148 57
-6 18 31 25 43 9 6 -9 16 -16 22 -16 18 0 52 33 52 51 0 22 12 32 21 17 4 -7
9 -37 12 -65z m347 31 c0 -8 -5 -12 -10 -9 -6 4 -8 11 -5 16 9 14 15 11 15 -7z
m190 -84 c11 -21 40 -28 40 -10 0 17 24 10 53 -15 32 -28 57 -82 52 -111 -2
-10 -4 -40 -4 -66 -1 -60 -24 -65 -39 -10 -9 33 -11 35 -17 15 -8 -27 -6 -26
-41 -13 -23 9 -26 14 -20 41 4 21 1 31 -9 35 -8 4 -13 10 -10 14 3 5 1 11 -5
15 -6 4 -9 -9 -8 -34 1 -46 -5 -59 -24 -44 -7 6 -30 16 -51 22 -20 7 -42 21
-47 31 -5 10 -9 56 -9 102 1 45 -2 91 -6 101 -6 15 6 12 63 -17 39 -20 76 -45
82 -56z m-5013 53 c-1 -1 -23 1 -47 4 -37 6 -41 8 -20 13 20 5 74 -9 67 -17z
m-567 -22 c0 -16 -7 -34 -15 -41 -13 -11 -15 -7 -15 29 0 30 4 41 15 41 10 0
15 -10 15 -29z m469 13 c10 -9 -6 -11 -36 -7 -18 3 -33 9 -33 14 0 8 59 1 69
-7z m4335 0 c10 -25 7 -112 -4 -119 -5 -3 -14 -20 -19 -38 -8 -28 -9 -26 -6
18 3 32 8 49 16 47 7 -2 9 3 4 15 -13 30 -18 93 -7 93 5 0 13 -7 16 -16z
m-4679 -9 c39 -8 98 -19 131 -26 34 -6 66 -14 71 -18 13 -8 26 -61 14 -61 -5
0 -12 11 -15 24 -6 24 -8 24 -88 21 -46 -1 -106 -6 -134 -10 -48 -7 -51 -6
-57 16 -9 33 -9 69 1 69 4 0 39 -6 77 -15z m9252 -47 c-2 -13 -4 -3 -4 22 0
25 2 35 4 23 2 -13 2 -33 0 -45z m-4830 5 c-3 -10 -5 -2 -5 17 0 19 2 27 5 18
2 -10 2 -26 0 -35z m163 10 l0 -38 -19 25 c-18 22 -18 25 -3 37 10 7 18 13 20
13 1 0 2 -17 2 -37z m410 -12 c8 -28 7 -32 -8 -29 -12 2 -18 15 -20 43 -4 47
13 39 28 -14z m6455 14 c-3 -47 -15 -58 -15 -13 0 29 6 48 15 48 1 0 1 -16 0
-35z m-11018 9 c-3 -3 -12 -4 -19 -1 -8 3 -5 6 6 6 11 1 17 -2 13 -5z m11580
-26 c-3 -7 -5 -2 -5 12 0 14 2 19 5 13 2 -7 2 -19 0 -25z m-7452 -33 c12 -10
27 -145 15 -145 -3 1 -16 10 -30 21 -22 19 -23 22 -7 30 9 6 17 19 17 30 0 11
-4 18 -9 15 -5 -3 -9 16 -9 42 0 26 2 40 5 32 3 -8 11 -20 18 -25z m-4275 15
c0 -5 -5 -10 -11 -10 -5 0 -7 5 -4 10 3 6 8 10 11 10 2 0 4 -4 4 -10z m4611
-49 c3 -24 5 -79 3 -122 -1 -54 2 -79 9 -79 7 0 21 -3 33 -6 15 -4 23 1 31 18
11 21 12 19 12 -19 1 -47 1 -47 -43 -33 -17 5 -42 12 -56 14 l-25 5 2 128 c2
70 3 132 3 136 0 5 6 7 13 5 6 -3 15 -24 18 -47z m1559 34 c0 -11 -11 -15 -42
-15 -42 1 -43 1 -18 15 33 19 60 19 60 0z m-6097 -2 c-7 -2 -19 -2 -25 0 -7 3
-2 5 12 5 14 0 19 -2 13 -5z m9370 0 c-7 -2 -19 -2 -25 0 -7 3 -2 5 12 5 14 0
19 -2 13 -5z m-46 -9 c-3 -3 -12 -4 -19 -1 -8 3 -5 6 6 6 11 1 17 -2 13 -5z
m-4440 -46 c-3 -8 -6 -5 -6 6 -1 11 2 17 5 13 3 -3 4 -12 1 -19z m417 6 c9
-24 7 -94 -3 -94 -5 0 -11 18 -15 39 -3 22 -9 46 -12 55 -4 10 -1 16 9 16 8 0
18 -7 21 -16z m-384 -14 c0 -5 -5 -10 -11 -10 -5 0 -7 5 -4 10 3 6 8 10 11 10
2 0 4 -4 4 -10z m-786 -15 c11 -8 15 -15 10 -15 -6 0 -19 7 -30 15 -10 8 -14
14 -9 14 6 0 19 -6 29 -14z m641 -25 c0 -14 5 -28 10 -33 6 -5 4 -12 -6 -20
-18 -14 -27 -117 -10 -117 6 0 11 5 11 10 0 6 4 10 10 10 5 0 7 -7 4 -15 -4
-8 -1 -22 5 -29 16 -19 -2 -30 -35 -22 -24 6 -27 16 -26 76 0 14 0 58 1 98 1
64 3 73 19 70 11 -2 17 -12 17 -28z m1072 14 c-3 -3 -12 -4 -19 -1 -8 3 -5 6
6 6 11 1 17 -2 13 -5z m5833 -8 c0 -3 -4 -8 -10 -11 -5 -3 -10 -1 -10 4 0 6 5
11 10 11 6 0 10 -2 10 -4z m-5580 -26 c0 -5 -4 -10 -10 -10 -5 0 -10 5 -10 10
0 6 5 10 10 10 6 0 10 -4 10 -10z m-1162 -55 c-2 -19 -8 -29 -17 -27 -7 2 -23
-5 -35 -15 -20 -18 -20 -18 -6 2 8 11 21 25 29 31 12 10 11 14 -7 30 -31 26
-27 34 8 21 26 -10 30 -16 28 -42z m1242 40 c0 -8 -2 -15 -4 -15 -2 0 -6 7
-10 15 -3 8 -1 15 4 15 6 0 10 -7 10 -15z m5186 4 c3 -6 16 -8 28 -5 11 3 28
1 36 -4 13 -9 12 -13 -8 -28 -21 -16 -22 -23 -17 -87 6 -66 5 -72 -24 -115
-29 -42 -31 -43 -31 -18 0 15 4 37 9 50 5 13 11 52 15 88 6 57 5 62 -6 38 -14
-29 -73 -78 -95 -78 -22 0 -14 25 27 83 22 30 40 63 40 71 0 18 16 21 26 5z
m-6382 -28 c4 -5 2 -21 -4 -35 -12 -33 4 -43 27 -16 19 22 48 26 58 9 4 -6 14
-8 22 -5 8 3 24 1 36 -6 12 -7 29 -11 37 -10 28 4 65 -45 62 -82 -2 -19 2 -37
7 -41 6 -3 9 -11 6 -16 -4 -5 -2 -9 3 -9 14 0 25 31 23 63 -3 32 16 36 28 5 5
-14 10 -18 15 -10 4 7 12 10 17 7 14 -10 11 -45 -6 -51 -8 -4 -13 -10 -10 -14
7 -11 -85 -30 -145 -30 -28 0 -50 -4 -50 -8 0 -10 -96 9 -125 24 -11 6 -41 17
-67 24 -43 11 -86 40 -60 40 5 0 13 16 16 35 5 22 13 35 23 35 11 0 14 -6 9
-25 -7 -27 8 -65 25 -65 5 0 3 13 -6 29 -9 19 -11 32 -5 36 15 9 32 -5 26 -21
-4 -9 3 -18 17 -24 13 -5 16 -9 7 -10 -9 -1 -5 -5 9 -11 31 -12 39 -4 17 19
-10 12 -14 26 -10 37 5 12 4 16 -4 11 -6 -4 -20 2 -32 14 -23 23 -27 45 -6 37
10 -4 12 4 10 34 -2 28 1 39 11 39 8 0 16 -4 19 -9z m-966 -33 c6 -22 5 -36
-2 -40 -20 -14 -24 -8 -23 32 2 48 13 52 25 8z m842 17 c0 -8 -4 -15 -10 -15
-5 0 -10 7 -10 15 0 8 5 15 10 15 6 0 10 -7 10 -15z m6360 -17 c0 -18 -2 -20
-9 -8 -6 8 -7 18 -5 22 9 14 14 9 14 -14z m-6805 2 c3 -5 17 -10 29 -10 13 0
29 -7 37 -16 11 -14 9 -15 -27 -9 -40 8 -64 21 -64 36 0 12 17 11 25 -1z
m1725 -15 c11 -13 8 -15 -19 -15 -33 0 -42 16 -13 23 9 3 18 5 18 6 1 0 7 -6
14 -14z m5350 -3 c0 -10 -11 -29 -25 -42 l-25 -23 0 41 c0 38 2 42 25 42 18 0
25 -5 25 -18z m-6632 -22 c-3 -17 -1 -33 4 -36 10 -6 1 -24 -13 -24 -10 0 -13
73 -2 83 12 13 15 7 11 -23z m1401 -37 c1 -7 -6 -13 -14 -13 -16 0 -22 50 -8
64 7 7 20 -23 22 -51z m-79 19 c0 -15 -2 -15 -10 -2 -13 20 -13 33 0 25 6 -3
10 -14 10 -23z m4833 11 c-13 -2 -33 -2 -45 0 -13 2 -3 4 22 4 25 0 35 -2 23
-4z m100 0 c3 -5 -8 -8 -24 -9 -16 -1 -29 3 -29 7 0 11 47 12 53 2z m485 -15
c11 -14 10 -16 -5 -14 -10 2 -17 6 -15 9 1 4 2 12 2 19 0 6 1 9 3 7 1 -2 8
-12 15 -21z m237 -7 c-6 -5 -25 10 -25 20 0 5 6 4 14 -3 8 -7 12 -15 11 -17z
m-618 3 c-3 -3 -12 -4 -19 -1 -8 3 -5 6 6 6 11 1 17 -2 13 -5z m-5037 -60 c0
-23 -10 -31 -23 -17 -4 3 -2 12 4 20 9 10 6 13 -12 13 -18 0 -20 3 -10 9 21
14 41 2 41 -25z m-2014 11 c18 -13 18 -14 -4 -8 -12 3 -25 9 -28 14 -8 14 10
11 32 -6z m1939 -16 c-4 -5 -1 -9 5 -9 6 0 8 -5 5 -10 -9 -15 -25 -2 -25 21 0
11 5 17 10 14 6 -4 8 -11 5 -16z m5441 5 c-3 -9 -6 -18 -6 -20 0 -2 -4 -4 -9
-4 -5 0 -7 9 -4 20 3 11 10 20 15 20 6 0 7 -7 4 -16z m-7512 -10 c12 -32 7
-84 -9 -84 -11 0 -15 12 -15 50 0 49 12 66 24 34z m1376 -46 c0 -5 -4 -8 -10
-8 -5 0 -10 10 -10 23 0 18 2 19 10 7 5 -8 10 -18 10 -22z m-3436 -3 c6 -17
-2 -45 -14 -45 -22 0 -40 14 -40 30 0 29 44 41 54 15z m2106 -11 c0 -14 -4
-23 -9 -20 -5 3 -7 15 -4 26 7 28 13 25 13 -6z m720 11 c10 -13 9 -15 -9 -15
-12 0 -21 6 -21 15 0 8 4 15 9 15 5 0 14 -7 21 -15z m760 5 c0 -5 -7 -10 -15
-10 -8 0 -15 5 -15 10 0 6 7 10 15 10 8 0 15 -4 15 -10z m-820 -16 c0 -2 -7
-4 -15 -4 -8 0 -15 4 -15 10 0 5 7 7 15 4 8 -4 15 -8 15 -10z m1498 -25 c1
-22 4 -45 8 -50 3 -5 1 -9 -4 -9 -10 0 -24 79 -16 92 9 14 11 9 12 -33z
m-3848 11 c0 -5 -5 -12 -11 -16 -12 -7 -31 15 -23 28 6 9 34 -1 34 -12z m1740
10 c0 -5 -4 -10 -10 -10 -5 0 -10 5 -10 10 0 6 5 10 10 10 6 0 10 -4 10 -10z
m2010 0 c0 -5 -4 -10 -10 -10 -5 0 -7 -7 -4 -15 4 -9 0 -15 -10 -15 -19 0 -20
5 -6 31 11 20 30 26 30 9z m37 4 c-3 -3 -12 -4 -19 -1 -8 3 -5 6 6 6 11 1 17
-2 13 -5z m5295 -31 c1 -21 0 -59 -1 -84 -2 -34 1 -48 13 -52 12 -5 14 -12 7
-29 -4 -13 -7 -34 -5 -47 5 -29 -12 -51 -38 -51 -26 0 -31 21 -18 71 11 40 10
45 -9 60 -26 22 -27 29 0 29 12 0 19 5 16 13 -2 6 -13 11 -25 10 -11 -1 -23 5
-26 14 -7 18 10 43 29 43 7 0 15 14 19 30 8 45 36 39 38 -7z m185 15 c-3 -8
-6 -5 -6 6 -1 11 2 17 5 13 3 -3 4 -12 1 -19z m-5968 -20 c44 -14 51 -32 51
-144 0 -67 -13 -84 -47 -59 -10 8 -25 15 -34 15 -9 0 -23 7 -30 16 -7 9 -22
20 -34 24 l-20 9 20 0 c18 1 20 6 17 36 -3 26 -9 35 -23 35 -20 0 -22 -7 -19
-54 2 -27 0 -28 -27 -22 -15 3 -52 10 -81 16 -29 5 -57 12 -62 15 -6 3 -10 28
-10 55 l0 48 84 7 c46 4 90 4 96 0 7 -4 10 -18 7 -31 -3 -19 0 -24 16 -24 15
0 18 5 15 25 -4 17 0 29 11 35 21 12 24 12 70 -2z m-377 -25 c-2 -13 0 -23 5
-23 4 0 14 -9 21 -21 13 -20 12 -21 -20 -14 -18 4 -66 21 -107 39 -68 29 -71
31 -45 38 16 3 56 5 89 5 56 -2 60 -3 57 -24z m-1182 2 c101 -3 97 -2 83 -16
-6 -6 -9 -28 -6 -48 4 -30 1 -39 -12 -44 -36 -14 -85 44 -54 64 19 11 11 15
-43 23 -40 6 -48 5 -48 -8 0 -9 -9 -16 -20 -16 -16 0 -20 7 -20 31 0 26 3 30
18 23 9 -4 55 -8 102 -9z m197 -24 c-2 -32 -11 -29 -22 7 -5 16 -2 22 9 22 11
0 15 -9 13 -29z m417 13 c10 -27 7 -44 -8 -38 -17 7 -28 32 -20 45 8 14 21 11
28 -7z m1426 6 c-18 -12 -53 -13 -46 -2 2 4 17 8 33 10 21 1 24 -1 13 -8z
m-3795 -10 c3 -5 -1 -10 -9 -10 -9 0 -16 5 -16 10 0 6 4 10 9 10 6 0 13 -4 16
-10z m8099 -26 c7 -19 -1 -34 -18 -34 -18 0 -39 27 -31 40 10 16 42 12 49 -6z
m836 7 c0 -5 -14 -21 -31 -35 -27 -23 -39 -26 -110 -26 -43 0 -79 4 -79 9 0
20 33 32 106 37 44 4 83 10 89 15 12 12 25 12 25 0z m-11693 -7 c-3 -3 -12 -4
-19 -1 -8 3 -5 6 6 6 11 1 17 -2 13 -5z m4803 -30 c0 -8 4 -14 8 -14 12 0 42
-56 42 -79 0 -12 6 -21 14 -21 8 0 21 -3 30 -6 12 -5 15 1 14 29 -1 21 6 42
16 52 9 10 15 24 12 31 -6 17 -5 17 27 5 19 -8 26 -19 31 -53 16 -111 18 -100
-22 -93 -21 3 -55 8 -77 10 -49 4 -95 21 -95 35 0 5 -8 10 -19 10 -14 0 -17 6
-13 25 2 14 8 25 13 25 5 0 5 -8 2 -17 -5 -12 -2 -15 10 -10 10 4 20 0 26 -11
10 -16 10 -15 11 2 0 10 -11 29 -25 42 -24 22 -36 72 -15 59 6 -3 10 -13 10
-21z m1696 -6 c-13 -43 -13 -53 0 -65 7 -7 14 -18 16 -25 6 -17 28 0 28 23 0
37 15 18 17 -21 1 -28 -3 -40 -13 -40 -14 0 -54 38 -54 52 0 4 -7 8 -15 8 -12
0 -14 7 -9 28 12 53 15 62 26 62 6 0 8 -9 4 -22z m60 6 c-3 -9 -6 -20 -6 -26
0 -5 -10 -8 -22 -6 -13 2 -21 8 -18 13 3 6 9 9 14 7 5 -2 6 4 3 13 -5 10 0 15
14 15 15 0 19 -5 15 -16z m5207 -6 c7 -25 0 -41 -14 -33 -12 8 -12 55 0 55 5
0 11 -10 14 -22z m-7268 2 c3 -5 -1 -10 -9 -10 -8 0 -18 5 -21 10 -3 6 1 10 9
10 8 0 18 -4 21 -10z m409 -5 c-4 -8 -8 -15 -10 -15 -2 0 -4 7 -4 15 0 8 4 15
10 15 5 0 7 -7 4 -15z m-194 -1 c0 -3 -7 -13 -16 -21 -15 -15 -14 -18 8 -34
16 -13 18 -19 8 -19 -37 0 -54 35 -31 61 16 17 31 24 31 13z m-285 -24 c12
-13 19 -41 22 -82 2 -35 5 -70 6 -78 2 -17 -3 -20 -38 -20 l-25 0 0 100 c0 55
4 100 8 100 5 0 17 -9 27 -20z m1036 1 c-7 -5 -10 -14 -7 -20 4 -6 3 -11 -2
-11 -19 0 -21 14 -5 32 9 10 19 16 22 13 3 -4 -1 -10 -8 -14z m-3423 -27 c9
-6 23 -9 33 -7 9 3 20 0 23 -6 5 -7 -8 -11 -38 -11 -45 0 -46 0 -45 33 0 17 3
25 6 17 4 -8 13 -20 21 -26z m3084 -19 c3 -14 -1 -30 -8 -36 -10 -9 -8 -15 14
-35 l27 -23 -42 -1 c-41 0 -56 14 -36 34 4 4 6 25 4 46 -1 22 0 44 4 50 10 16
32 -5 37 -35z m1514 -30 c3 -50 1 -66 -8 -63 -9 3 -12 25 -11 69 2 76 1 74 9
66 3 -3 8 -36 10 -72z m-1379 50 c19 -8 47 -15 62 -15 14 -1 37 -7 50 -14 14
-8 31 -12 38 -9 19 7 33 -39 33 -107 0 -56 -12 -85 -23 -56 -3 7 -24 16 -46
20 -32 5 -44 12 -51 32 -6 14 -14 23 -20 19 -5 -3 -7 -12 -3 -20 9 -26 -17
-16 -29 10 -8 19 -8 28 2 40 7 8 8 15 2 15 -5 0 -12 -7 -16 -15 -13 -34 -26
-12 -26 42 0 43 -3 54 -12 45 -6 -6 -12 -35 -12 -64 -1 -37 -5 -53 -14 -53
-10 0 -14 18 -16 60 -3 87 11 99 81 70z m-2491 -36 c1 -19 3 -56 5 -83 5 -68
-16 -71 -24 -4 -11 86 -9 130 6 125 6 -2 12 -19 13 -38z m8902 33 c6 -1 12
-11 12 -22 0 -18 -7 -20 -69 -20 -68 0 -88 8 -78 34 4 10 78 15 135 8z m69 -9
c5 -10 8 -38 8 -62 l0 -43 -85 -28 c-77 -25 -87 -27 -102 -12 -26 23 -23 71 5
81 40 15 116 21 122 10 13 -20 34 11 28 42 -6 32 11 40 24 12z m210 -30 c13
-43 8 -59 -13 -42 -14 12 -20 79 -6 79 4 0 12 -17 19 -37z m-7393 16 c-3 -6
-1 -15 6 -19 10 -6 10 -15 0 -43 -15 -39 -8 -67 16 -67 11 0 15 6 11 20 -3 11
-2 20 3 20 9 0 20 -61 13 -72 -7 -13 -50 -9 -61 5 -6 6 -9 41 -7 77 3 88 4 90
16 90 5 0 7 -5 3 -11z m983 -5 c-3 -3 -12 -4 -19 -1 -8 3 -5 6 6 6 11 1 17 -2
13 -5z m6510 -60 c-13 -13 -23 7 -19 38 l6 33 9 -33 c6 -18 7 -35 4 -38z
m-6404 35 c20 -5 37 -14 37 -18 0 -5 14 -11 32 -15 17 -3 29 -9 25 -12 -3 -3
-23 0 -44 7 -21 7 -42 14 -48 15 -5 1 -26 9 -45 17 -42 18 -15 23 43 6z m5812
-9 c-3 -5 -12 -10 -18 -10 -7 0 -6 4 3 10 19 12 23 12 15 0z m325 -34 c-14
-14 -22 -2 -14 18 5 14 9 15 15 4 4 -7 4 -17 -1 -22z m-10270 7 c25 -3 49 -9
55 -14 5 -5 19 -9 32 -9 13 0 23 -4 23 -10 0 -12 -19 -12 -85 1 -27 5 -65 11
-84 14 -40 6 -51 12 -51 27 0 6 12 8 33 3 17 -3 52 -9 77 -12z m700 -29 c0 -8
-4 -12 -10 -9 -5 3 -10 10 -10 16 0 5 5 9 10 9 6 0 10 -7 10 -16z m-432 -16
c58 -15 54 -32 -5 -24 -90 13 -113 18 -113 27 0 5 -7 5 -17 2 -11 -4 -14 -3
-9 6 8 13 67 9 144 -11z m2872 -5 c-1 -24 -2 -26 -11 -10 -5 9 -7 22 -4 27 10
17 15 11 15 -17z m70 -8 c0 -36 -10 -44 -28 -22 -14 17 -4 57 14 57 9 0 14
-12 14 -35z m170 -1 c0 -8 -6 -11 -15 -8 -8 4 -15 12 -15 20 0 8 6 11 15 8 8
-4 15 -12 15 -20z m1270 16 c0 -5 -4 -10 -10 -10 -5 0 -10 5 -10 10 0 6 5 10
10 10 6 0 10 -4 10 -10z m6001 -2 c6 -55 12 -449 7 -454 -3 -2 -15 6 -28 18
-22 21 -23 23 -16 182 8 193 15 266 27 266 5 0 10 -6 10 -12z m-9801 -8 c0 -5
-6 -10 -14 -10 -8 0 -18 5 -21 10 -3 6 3 10 14 10 12 0 21 -4 21 -10z m3890 0
c0 -5 -4 -10 -10 -10 -5 0 -10 5 -10 10 0 6 5 10 10 10 6 0 10 -4 10 -10z
m-1323 -22 c1 -13 4 -44 7 -70 5 -54 -1 -62 -38 -48 -34 13 -34 29 0 22 l27
-5 -7 62 c-4 33 -3 61 1 61 4 0 9 -10 10 -22z m1633 8 c0 -27 -20 -67 -30 -61
-5 3 -10 1 -10 -4 0 -6 6 -11 13 -11 8 0 8 -3 -2 -9 -17 -11 -7 -41 14 -41 24
0 18 -19 -10 -32 -20 -9 -28 -9 -38 1 -9 10 -9 11 5 6 14 -6 15 -2 9 27 -10
44 -3 98 17 121 18 21 32 22 32 3z m-2070 -6 c0 -5 -4 -10 -10 -10 -5 0 -10 5
-10 10 0 6 5 10 10 10 6 0 10 -4 10 -10z m305 -57 c4 -15 17 -26 38 -33 31 -9
31 -10 -8 -4 -22 3 -43 8 -47 10 -10 6 -10 41 -1 74 l8 25 3 -25 c1 -14 5 -35
7 -47z m1100 27 c8 0 13 -13 13 -36 0 -20 5 -41 11 -47 8 -8 11 -4 11 14 0 13
4 30 9 38 12 19 31 -16 31 -57 0 -27 -4 -30 -39 -36 -26 -4 -49 -1 -68 8 -15
8 -36 17 -46 21 -16 4 -18 13 -13 63 3 31 5 61 5 65 1 5 17 0 37 -12 19 -12
41 -21 49 -21z m-3535 -30 c0 -55 -2 -60 -22 -60 -16 0 -19 3 -11 11 7 7 10
30 6 60 -5 41 -3 49 11 49 13 0 16 -11 16 -60z m3420 33 c0 -29 -12 -24 -17 7
-2 11 2 20 7 20 6 0 10 -12 10 -27z m1238 12 c207 -2 318 -7 325 -14 6 -6 12
-40 14 -76 4 -55 2 -65 -12 -65 -9 0 -13 -5 -10 -10 4 -6 10 -8 14 -5 13 7 21
-76 21 -211 l0 -124 93 -1 c50 0 115 -4 142 -9 l50 -7 -45 -2 c-25 -1 -88 -2
-142 -1 -53 1 -99 -3 -102 -8 -3 -5 -7 -76 -8 -157 -2 -90 -6 -149 -13 -151
-5 -1 -40 -4 -77 -6 -58 -3 -68 -2 -68 13 0 10 -11 19 -30 23 l-30 6 0 140 c0
120 -2 140 -15 140 -14 0 -16 -19 -14 -137 0 -76 -3 -138 -7 -140 -5 -1 -15 1
-23 6 -10 6 -11 13 -2 29 17 31 14 92 -4 92 -8 0 -17 -12 -20 -27 -3 -16 -13
-50 -21 -77 -7 -26 -14 -55 -14 -63 0 -13 -10 -14 -61 -9 -39 5 -59 4 -55 -3
11 -17 -15 -24 -27 -7 -8 10 -17 13 -26 7 -9 -6 -10 -11 -2 -15 13 -9 15 -26
2 -26 -5 0 -12 7 -15 16 -7 18 39 68 55 59 5 -4 9 52 9 139 0 80 -4 147 -9
150 -16 10 -20 -36 -16 -156 3 -65 2 -118 -1 -118 -16 0 -44 23 -44 35 0 8 -7
15 -15 15 -9 0 -15 -9 -15 -25 0 -14 7 -28 15 -31 15 -6 20 -35 9 -47 -4 -3
-15 -2 -26 4 -21 11 -48 1 -29 -10 7 -5 9 -20 5 -39 -5 -23 -12 -32 -26 -32
-17 0 -20 5 -16 30 5 35 3 37 -42 45 l-33 6 7 -41 c6 -36 4 -42 -14 -47 -14
-4 -20 -14 -20 -34 0 -16 -5 -29 -11 -29 -8 0 -9 11 -4 33 13 55 15 478 3 470
-8 -4 -9 0 -5 11 9 24 19 75 11 59 -9 -20 -24 -15 -24 7 0 11 7 20 15 20 23 0
19 41 -5 47 -24 6 -24 5 -6 47 8 20 12 51 9 80 -3 27 -2 46 4 46 17 0 31 -72
39 -197 l7 -123 78 0 79 0 2 88 c0 48 2 98 4 112 1 14 4 84 6 155 l3 130 -109
3 -109 3 6 -46 c4 -25 9 -56 13 -70 5 -22 3 -25 -20 -25 -25 0 -26 2 -26 58 0
32 6 70 13 86 11 25 15 27 57 20 25 -3 186 -8 358 -9z m-1867 -42 c1 -27 1
-52 -1 -58 -1 -5 4 -5 11 2 11 11 15 26 19 78 1 18 2 18 10 -3 8 -20 14 -22
50 -16 37 6 40 5 40 -17 0 -13 4 -35 7 -49 7 -23 8 -21 13 14 6 47 25 61 73
52 57 -11 67 -27 67 -113 0 -60 -3 -74 -14 -70 -8 3 -34 11 -57 17 -24 7 -52
16 -62 21 -10 6 -47 13 -83 16 -35 3 -64 10 -64 14 0 5 -17 9 -39 9 l-39 0 1
72 c0 63 1 69 13 53 8 -10 14 -22 14 -27 0 -4 5 -8 10 -8 6 0 10 14 10 30 0
50 20 34 21 -17z m-712 14 c19 -21 21 -32 17 -83 -5 -59 4 -84 30 -84 9 0 15
22 20 70 6 66 8 70 30 66 13 -3 31 -9 41 -15 17 -10 17 -10 1 -11 -10 0 -18
-4 -18 -10 0 -5 8 -11 18 -11 15 -1 15 -2 0 -6 -25 -6 -30 -30 -7 -36 12 -3
19 -14 20 -29 0 -12 2 -32 4 -43 2 -10 0 -24 -5 -30 -6 -7 -6 -24 -1 -43 5
-17 11 -48 13 -69 3 -38 2 -38 -32 -35 -35 2 -35 2 -12 -14 12 -9 22 -27 22
-41 0 -21 -4 -24 -27 -21 -27 3 -28 6 -31 63 -5 93 5 142 31 150 20 6 20 7 -9
14 -38 9 -56 20 -50 30 5 7 -14 10 -71 11 l-33 1 0 99 c0 109 7 120 49 77z
m567 -35 c1 -22 4 -44 8 -50 9 -15 -32 -22 -44 -7 -7 9 -5 19 8 36 19 22 19
59 1 59 -5 0 -9 5 -9 10 0 7 6 8 17 1 11 -6 18 -23 19 -49z m704 53 c0 -2 -22
-16 -50 -30 -41 -21 -50 -30 -51 -53 0 -15 -3 -21 -6 -14 -8 19 -30 14 -36 -9
-4 -16 -11 -19 -26 -14 -12 4 -21 2 -21 -4 0 -6 17 -11 37 -11 28 0 34 -3 25
-12 -9 -9 -7 -14 6 -24 22 -16 10 -28 -20 -21 -37 10 -55 30 -61 69 -4 28 -2
37 11 41 9 3 28 12 42 20 36 21 110 54 148 66 1 1 2 -1 2 -4z m535 -92 c-1
-54 -2 -149 -3 -212 -1 -63 -4 -112 -7 -109 -3 2 -5 70 -6 149 0 238 1 269 10
269 4 0 7 -44 6 -97z m1142 91 c-3 -3 -12 -4 -19 -1 -8 3 -5 6 6 6 11 1 17 -2
13 -5z m4113 -4 c0 -5 -5 -10 -11 -10 -5 0 -7 5 -4 10 3 6 8 10 11 10 2 0 4
-4 4 -10z m-6819 -10 c11 0 18 -4 15 -9 -7 -11 -54 -2 -63 12 -4 7 0 8 11 4
10 -4 27 -7 37 -7z m3044 0 c-3 -5 -13 -10 -21 -10 -8 0 -14 -4 -14 -10 0 -5
8 -10 19 -10 18 0 19 -11 20 -201 2 -196 2 -201 -18 -194 -19 6 -20 2 -15
-187 l4 -194 -152 -1 -153 -1 3 145 3 144 39 -2 c22 -2 42 0 46 4 4 4 13 2 20
-3 6 -6 16 -10 20 -9 22 4 34 -2 34 -16 0 -8 7 -15 16 -15 14 0 14 -3 4 -15
-11 -13 -8 -15 15 -15 23 0 26 2 15 15 -10 12 -10 15 4 15 9 0 16 5 16 10 0 6
-13 10 -30 10 -45 0 -36 18 11 22 40 3 43 5 55 47 9 32 11 103 8 262 l-4 219
31 0 c17 0 28 -4 24 -10z m1470 -30 c3 -5 -3 -10 -15 -10 -12 0 -18 5 -15 10
3 6 10 10 15 10 5 0 12 -4 15 -10z m-3135 -10 c0 -5 -9 -10 -20 -10 -11 0 -20
5 -20 10 0 6 9 10 20 10 11 0 20 -4 20 -10z m5369 7 c-2 -2 -17 -11 -34 -21
l-30 -17 24 20 c13 12 28 21 34 21 6 0 8 -1 6 -3z m-2359 -147 l-7 -55 -3 58
c-5 116 0 160 10 97 4 -24 4 -69 0 -100z m-2640 99 c0 -5 -4 -9 -10 -9 -5 0
-10 7 -10 16 0 8 5 12 10 9 6 -3 10 -10 10 -16z m2847 -91 c-2 -24 -4 -7 -4
37 0 44 2 63 4 43 2 -21 2 -57 0 -80z m-4559 59 c2 -22 -3 -45 -10 -54 -10
-13 -10 -17 0 -20 6 -3 9 -9 6 -14 -3 -6 -1 -16 6 -24 13 -16 0 -27 -20 -15
-18 11 -23 49 -9 66 7 9 8 14 1 14 -14 0 -24 29 -15 43 4 7 6 20 4 30 -2 14 3
18 16 15 13 -2 19 -14 21 -41z m1382 24 c5 -11 7 -33 4 -50 -6 -30 -8 -31 -43
-25 -20 4 -41 14 -48 23 -15 21 -10 25 16 12 25 -14 35 0 27 35 -5 19 -3 24
13 24 11 0 25 -9 31 -19z m-3804 -16 c14 -13 13 -15 -4 -15 -11 0 -28 3 -37 6
-13 5 -14 8 -3 15 19 12 27 11 44 -6z m58 0 c-4 -8 -10 -15 -15 -15 -4 0 -6 7
-3 15 4 8 10 15 15 15 4 0 6 -7 3 -15z m3487 -32 c45 -26 68 -50 35 -37 -7 3
-16 -2 -19 -10 -8 -19 -5 -19 28 -4 14 6 25 15 25 20 0 5 15 8 33 6 32 -3 32
-3 37 -67 6 -71 0 -78 -46 -60 -16 6 -53 12 -82 13 -55 3 -72 14 -72 49 0 9 6
17 14 17 11 0 30 58 21 68 -1 1 -27 5 -56 7 -30 3 -48 3 -41 -1 17 -8 15 -24
-2 -24 -19 0 -29 17 -22 35 10 26 91 19 147 -12z m3369 -85 c0 -15 -9 -18 -50
-18 -38 0 -50 4 -50 15 0 8 4 15 10 15 5 0 17 17 25 37 29 68 38 71 52 17 7
-27 13 -57 13 -66z m-4345 92 c3 -5 1 -10 -4 -10 -6 0 -11 5 -11 10 0 6 2 10
4 10 3 0 8 -4 11 -10z m131 -99 c2 -69 -1 -81 -13 -77 -8 3 -21 6 -28 6 -8 0
-19 9 -25 20 -10 18 -8 19 14 10 14 -5 27 -6 30 -2 2 4 2 35 0 70 -2 46 0 62
9 59 8 -2 12 -32 13 -86z m1554 54 c0 -8 6 -15 13 -15 8 0 9 -3 1 -8 -18 -12
-44 -72 -31 -72 7 0 13 -14 14 -30 2 -25 -1 -30 -21 -30 -22 0 -24 3 -19 43 3
23 10 53 16 67 6 14 9 33 8 43 -1 9 3 17 8 17 6 0 11 -7 11 -15z m-4200 -25
c0 -16 -5 -30 -11 -30 -7 0 -9 10 -6 26 3 18 1 24 -9 20 -8 -3 -14 -1 -14 4 0
6 9 10 20 10 16 0 20 -7 20 -30z m2583 16 c4 -10 1 -13 -8 -9 -8 3 -12 9 -9
14 7 12 11 11 17 -5z m207 -56 c-12 -7 -12 -10 2 -15 22 -9 39 2 31 20 -3 8 0
15 6 15 6 0 11 7 11 16 0 11 5 14 16 10 9 -3 19 -6 23 -6 4 0 8 -6 9 -12 1 -7
5 -28 8 -45 5 -24 3 -33 -7 -33 -9 -1 -7 -6 5 -15 30 -23 7 -39 -46 -31 -23 3
-59 7 -78 8 -34 3 -35 4 -38 48 -2 24 -1 59 3 76 l5 32 32 -30 c25 -23 29 -31
18 -38z m660 54 c0 -17 -22 -14 -28 4 -2 7 3 12 12 12 9 0 16 -7 16 -16z
m6009 -28 c-3 -3 -11 5 -18 17 -13 21 -12 21 5 5 10 -10 16 -20 13 -22z m47 4
c8 0 14 -4 14 -9 0 -5 -9 -7 -20 -4 -11 3 -20 13 -19 22 0 10 2 11 6 4 2 -7
11 -13 19 -13z m-6558 -23 c2 -16 10 -27 18 -27 8 0 13 4 10 9 -4 5 -3 16 0
25 7 18 59 22 69 6 4 -6 14 -9 23 -8 14 2 18 -7 20 -51 5 -86 0 -96 -49 -98
-23 -1 -51 4 -63 12 -11 8 -28 15 -38 15 -15 0 -17 10 -15 75 1 45 6 74 12 72
6 -2 11 -16 13 -30z m783 2 c3 -13 11 -23 17 -21 8 1 12 -14 12 -44 0 -41 -2
-45 -22 -42 -13 2 -29 15 -36 31 -8 17 -21 27 -35 27 -21 1 -21 2 6 23 15 13
27 31 27 41 0 25 23 14 31 -15z m-1663 -1 c7 -7 12 -24 12 -38 0 -15 8 -52 19
-83 10 -31 16 -59 13 -62 -3 -3 -18 -5 -33 -5 -35 0 -41 17 -38 119 3 83 6 90
27 69z m389 -23 c2 -11 0 -14 -3 -7 -3 6 -12 12 -20 12 -8 0 -14 5 -14 11 0
19 35 4 37 -16z m243 5 c0 -11 -4 -20 -9 -20 -5 0 -7 9 -4 20 3 11 7 20 9 20
2 0 4 -9 4 -20z m-2699 -31 c-9 -22 -10 -22 -10 -3 -1 11 2 24 6 27 12 12 14
0 4 -24z m2557 -7 c-10 -2 -25 3 -33 12 -24 23 -18 26 18 8 24 -12 28 -17 15
-20z m6302 -1 c0 -11 -4 -22 -9 -26 -5 -3 -12 -19 -16 -35 -6 -29 -15 -37 -27
-25 -9 9 12 89 25 97 19 12 27 9 27 -11z m-8860 -36 c0 -7 -10 -11 -22 -9 -30
3 -30 3 -24 12 7 12 46 9 46 -3z m3515 5 c3 -5 16 -10 29 -10 12 0 26 -3 30
-7 4 -5 18 -8 29 -8 19 0 22 -6 25 -50 3 -65 6 -73 34 -78 13 -2 5 -2 -17 1
-22 3 -57 5 -78 6 -23 1 -43 8 -50 17 -9 11 -22 15 -44 12 l-33 -5 1 66 1 66
34 0 c18 0 36 -4 39 -10z m-3646 -6 c48 -10 38 -28 -11 -20 -24 4 -61 10 -83
13 -22 3 -42 7 -44 9 -7 6 104 5 138 -2z m9670 -18 c14 -8 31 -12 38 -9 10 4
13 -13 13 -71 0 -43 -4 -76 -10 -76 -6 0 -6 -9 -1 -22 5 -13 14 -126 22 -251
12 -214 11 -230 -5 -258 -17 -28 -17 -32 -2 -48 14 -16 16 -47 14 -237 l-3
-219 -37 -3 c-35 -3 -37 -1 -42 30 -7 47 -15 145 -21 278 -8 166 -15 234 -25
250 -7 10 -10 -14 -10 -70 -2 -173 -9 -302 -20 -355 -6 -30 -13 -55 -14 -55
-2 0 -2 55 -1 123 2 67 4 179 4 250 1 110 3 127 17 127 13 0 15 7 11 33 -4 17
-9 93 -13 167 -3 74 -9 137 -14 140 -4 3 -7 12 -7 20 0 8 -4 23 -8 32 -5 12
-2 20 9 24 9 3 16 16 16 29 0 13 10 30 25 39 14 9 25 21 25 27 0 6 -11 24 -25
41 -31 37 -31 50 -2 64 30 16 38 15 66 0z m-6969 -44 c0 -7 -4 -10 -10 -7 -5
3 -10 16 -10 28 0 18 2 19 10 7 5 -8 10 -21 10 -28z m-190 18 c0 -5 -5 -10
-11 -10 -5 0 -7 5 -4 10 3 6 8 10 11 10 2 0 4 -4 4 -10z m1800 0 c10 -6 11
-10 3 -10 -7 0 -13 -10 -13 -22 0 -19 2 -20 10 -8 8 13 10 13 10 -1 0 -17 -27
-46 -35 -38 -2 3 -7 24 -11 47 -7 44 3 53 36 32z m-1400 -10 c8 -5 15 -17 15
-26 0 -26 52 -30 60 -5 11 35 85 34 85 -2 0 -16 3 -18 12 -9 12 12 95 16 122
6 22 -9 24 -164 2 -164 -40 0 -46 11 -46 81 0 63 -2 69 -21 69 -18 0 -20 -5
-18 -38 2 -21 0 -43 -4 -49 -4 -7 0 -16 9 -21 16 -9 15 -10 -4 -16 -12 -4 -31
-2 -43 4 -20 11 -165 31 -216 31 -21 -1 -23 4 -23 59 0 47 3 60 15 60 17 0 20
-16 5 -25 -10 -6 -6 -52 5 -63 3 -4 10 0 16 8 13 21 7 83 -11 97 -13 11 -12
12 5 13 11 0 27 -5 35 -10z m966 -20 c5 0 8 -21 6 -46 -4 -38 -7 -45 -24 -42
-16 3 -20 13 -24 62 -4 57 -3 58 14 42 10 -9 23 -16 28 -16z m-1101 10 c4 -6
8 -35 11 -65 4 -50 3 -55 -16 -55 -29 0 -38 30 -14 47 13 9 15 16 7 21 -10 6
-17 34 -14 55 2 10 19 9 26 -3z m-2225 -21 c0 -11 -4 -17 -10 -14 -5 3 -10 13
-10 21 0 8 5 14 10 14 6 0 10 -9 10 -21z m-852 -54 l0 -30 -8 30 c-4 17 -8 39
-8 50 l-1 20 9 -20 c5 -11 8 -33 8 -50z m259 43 c-3 -8 -6 -5 -6 6 -1 11 2 17
5 13 3 -3 4 -12 1 -19z m9385 2 c23 -21 18 -24 -19 -14 -13 4 -20 11 -16 20 7
18 10 18 35 -6z m96 8 c6 -6 25 -11 42 -10 30 1 30 0 30 -49 0 -31 -4 -48 -10
-44 -5 3 -10 19 -10 35 0 33 -16 48 -33 31 -28 -28 -82 4 -57 34 15 18 22 19
38 3z m514 -95 c1 -60 3 -182 4 -273 1 -91 3 -232 4 -315 1 -82 2 -166 1 -185
-4 -63 -20 -3 -20 78 -1 55 -4 72 -15 72 -17 0 -16 -4 -16 235 0 114 4 171 12
176 7 5 9 25 4 60 -17 136 -18 199 -6 229 7 16 16 30 21 30 5 0 10 -48 11
-107z m-9810 -10 c-4 -87 -6 -93 -26 -93 -11 0 -28 5 -36 11 -12 8 -10 10 11
7 23 -4 25 -2 21 24 -3 16 0 28 7 28 6 0 8 11 5 30 -8 36 4 106 15 94 5 -5 6
-51 3 -101z m2397 66 c35 -17 35 -17 9 -18 -44 -2 -78 16 -78 40 0 19 2 20 16
8 9 -7 33 -21 53 -30z m4719 2 c3 -24 -2 -37 -16 -47 -11 -8 -23 -28 -27 -44
-4 -17 -11 -30 -16 -30 -14 0 -11 39 7 90 9 25 18 51 20 58 7 25 29 6 32 -27z
m-4554 -5 c-6 -15 -24 -23 -24 -11 0 8 24 34 28 30 1 -1 0 -10 -4 -19z m1326
-13 c0 -7 -4 -13 -10 -13 -5 0 -10 12 -10 28 0 21 2 24 10 12 5 -8 10 -21 10
-27z m3028 -25 c-4 -78 -28 -95 -28 -20 0 55 7 82 22 82 5 0 8 -28 6 -62z
m509 -71 c-2 -23 -3 -1 -3 48 0 50 1 68 3 42 2 -26 2 -67 0 -90z m-7610 101
c-3 -8 -6 -5 -6 6 -1 11 2 17 5 13 3 -3 4 -12 1 -19z m6890 -80 c-2 -18 -4 -4
-4 32 0 36 2 50 4 33 2 -18 2 -48 0 -65z m-4602 72 c3 -5 -3 -10 -14 -10 -12
0 -21 -7 -21 -15 0 -8 5 -15 11 -15 6 0 1 -9 -12 -19 -23 -19 -23 -20 -5 -27
12 -4 21 -3 23 3 2 5 14 25 28 42 l24 33 15 -30 c16 -31 48 -51 54 -33 2 6 8
11 14 11 6 0 6 -6 -2 -15 -10 -12 -8 -16 15 -25 36 -14 26 -23 -24 -22 -39 1
-39 1 -30 -30 12 -43 5 -48 -43 -33 -31 9 -44 18 -46 34 -3 18 -6 19 -24 10
-11 -6 -21 -9 -23 -7 -2 2 -6 38 -9 81 l-6 77 34 0 c19 0 38 -4 41 -10z m3320
0 c3 -5 1 -10 -4 -10 -6 0 -11 5 -11 10 0 6 2 10 4 10 3 0 8 -4 11 -10z
m-5021 -28 c0 -12 -1 -51 -2 -87 -2 -52 -5 -65 -18 -65 -13 0 -15 10 -10 68 3
37 6 77 6 90 0 14 5 22 13 19 6 -2 12 -13 11 -25z m3069 13 c39 -16 47 -30 47
-83 0 -54 -12 -68 -47 -56 -33 11 -50 54 -45 113 2 23 5 41 7 41 1 0 18 -7 38
-15z m586 -22 c0 -25 -1 -26 -9 -8 -12 27 -12 35 0 35 6 0 10 -12 9 -27z
m-279 -4 c0 -5 -4 -9 -10 -9 -5 0 -10 7 -10 16 0 8 5 12 10 9 6 -3 10 -10 10
-16z m398 -16 c4 -26 -14 -30 -43 -10 -23 17 -11 39 18 35 14 -2 23 -11 25
-25z m77 17 c10 -16 -16 -43 -28 -31 -11 11 -2 41 12 41 5 0 13 -5 16 -10z
m1166 -42 c-9 -20 -10 -18 -10 17 0 31 2 36 9 23 6 -10 7 -25 1 -40z m-3044
-20 c1 -32 -3 -48 -13 -52 -25 -10 -16 -36 14 -37 15 0 36 -4 47 -9 13 -6 -16
-9 -84 -9 -84 -1 -101 1 -93 12 6 7 8 23 5 36 -6 22 9 41 32 41 6 0 4 -4 -3
-9 -12 -7 -12 -12 -1 -30 8 -11 19 -21 25 -21 12 0 30 90 25 118 -1 9 6 12 21
10 20 -3 23 -9 25 -50z m1322 43 c17 -11 -1 -23 -23 -15 -13 5 -14 1 -6 -24 4
-17 6 -32 4 -35 -2 -2 2 -4 10 -4 9 0 13 8 11 19 -3 14 1 18 13 16 15 -3 18
-13 13 -48 -2 -20 -37 -29 -62 -16 -17 8 -29 9 -41 2 -11 -7 -21 -6 -32 3 -21
18 -20 33 7 75 18 29 28 35 57 35 19 1 41 -3 49 -8z m-1188 -18 c31 -16 32
-18 11 -21 -27 -4 -40 -28 -23 -45 8 -8 11 -6 11 10 0 14 8 23 25 27 14 4 23
11 20 16 -3 6 -1 10 4 10 6 0 11 -8 11 -18 0 -10 4 -22 9 -27 5 -6 11 -33 13
-62 3 -49 2 -52 -24 -55 -15 -3 -37 1 -50 8 -13 8 -30 13 -38 14 -12 0 -15 13
-13 65 1 36 -2 65 -8 65 -5 0 -9 -7 -9 -15 0 -8 -4 -15 -10 -15 -5 0 -10 11
-10 24 0 19 4 23 20 19 11 -3 20 0 20 6 0 14 1 14 41 -6z m7166 -25 c-3 -8 -6
-5 -6 6 -1 11 2 17 5 13 3 -3 4 -12 1 -19z m-7027 -12 c8 -16 10 -39 7 -63 -6
-32 -3 -41 16 -55 22 -17 22 -18 -20 -18 -24 0 -43 5 -43 10 0 6 4 10 8 10 4
0 6 32 4 70 -4 73 5 88 28 46z m1124 2 c3 -13 4 -57 3 -98 -2 -74 -3 -76 -38
-71 -10 1 -5 129 7 174 7 24 23 21 28 -5z m-1007 -2 c8 -6 -26 -51 -40 -54
-13 -3 -17 4 -17 32 0 35 1 36 28 30 15 -4 28 -7 29 -8z m6390 -18 c-3 -7 -5
-2 -5 12 0 14 2 19 5 13 2 -7 2 -19 0 -25z m-6211 5 c5 -10 11 -43 12 -74 2
-51 0 -57 -20 -63 -57 -15 -161 0 -116 17 9 3 7 9 -7 20 -24 18 -39 12 -32
-14 3 -11 0 -19 -7 -19 -21 0 -13 52 9 60 11 4 23 6 26 4 3 -2 5 5 5 14 0 73
-1 72 62 72 44 0 60 -4 68 -17z m915 -44 c8 -34 7 -45 -5 -57 -12 -12 -18 -13
-29 -4 -16 14 -16 35 1 75 7 16 9 34 6 40 -5 9 -4 9 5 1 7 -7 17 -31 22 -55z
m83 -11 c6 -64 4 -74 -13 -63 -13 7 -15 125 -2 125 4 0 11 -28 15 -62z m-1504
31 c0 -11 -4 -18 -10 -14 -5 3 -7 12 -3 20 7 21 13 19 13 -6z m618 5 c20 -6
22 -12 22 -74 0 -67 -1 -69 -28 -75 -48 -10 -103 21 -72 40 6 4 8 11 5 16 -10
16 5 47 25 52 13 3 17 11 13 26 -6 22 -1 24 35 15z m-260 -16 c-6 -18 -28 -21
-28 -4 0 9 7 16 16 16 9 0 14 -5 12 -12z m712 -59 c0 -4 -5 -11 -10 -14 -20
-12 -1 -21 34 -17 30 4 36 8 36 29 0 21 3 23 23 17 12 -4 41 -7 65 -6 l42 0
-2 -64 c-3 -60 -4 -64 -28 -65 -14 0 -55 -3 -92 -5 -37 -2 -70 1 -73 6 -4 6
-22 10 -41 10 -30 0 -34 3 -34 28 -1 15 -3 44 -6 65 -9 64 -1 72 46 46 22 -13
40 -26 40 -30z m-765 21 c-3 -5 -13 -10 -21 -10 -8 0 -12 5 -9 10 3 6 13 10
21 10 8 0 12 -4 9 -10z m-642 -26 c22 -2 41 -5 42 -6 1 -2 5 -42 8 -91 l6 -87
-62 2 c-52 3 -62 6 -61 21 0 9 1 53 2 98 2 57 5 78 13 73 7 -4 30 -8 52 -10z
m1927 -9 c0 -14 -4 -25 -9 -25 -4 0 -6 11 -3 25 2 14 6 25 8 25 2 0 4 -11 4
-25z m-3634 -85 c2 -91 -11 -121 -14 -34 -1 25 -4 50 -7 54 -6 10 6 70 14 70
3 0 7 -40 7 -90z m2331 74 c-3 -3 -12 -4 -19 -1 -8 3 -5 6 6 6 11 1 17 -2 13
-5z m6497 -110 c-1 -63 -5 -118 -8 -121 -6 -7 -9 44 -8 142 1 89 1 95 10 95 4
0 6 -52 6 -116z m-9237 71 c-1 -19 -2 -35 -4 -35 -8 0 -23 52 -17 61 12 20 22
7 21 -26z m2365 -1 c6 -8 26 -11 68 -7 62 5 75 -3 40 -25 -16 -9 -18 -17 -10
-36 5 -13 6 -27 3 -30 -4 -3 0 -6 8 -6 12 0 12 -2 -1 -10 -8 -5 -11 -12 -7
-16 4 -4 18 3 32 16 l25 23 0 -31 0 -31 -72 5 c-40 2 -86 6 -103 8 -16 2 -36
4 -44 5 -8 0 -11 8 -8 20 2 10 0 25 -5 34 -7 14 -13 14 -34 5 -20 -10 -27 -9
-35 3 -15 24 -11 52 7 45 9 -3 27 -9 42 -13 21 -5 24 -3 18 12 -3 10 -4 26 -1
36 5 15 13 17 38 12 18 -3 35 -12 39 -19z m163 -2 c-3 -3 -11 0 -18 7 -9 10
-8 11 6 5 10 -3 15 -9 12 -12z m1315 1 c0 -10 -7 -27 -15 -37 -14 -19 -15 -18
-15 17 0 26 4 37 15 37 8 0 15 -8 15 -17z m870 -13 c0 -5 -4 -10 -10 -10 -5 0
-10 5 -10 10 0 6 5 10 10 10 6 0 10 -4 10 -10z m-2026 -36 c-11 -43 -9 -59 5
-59 8 0 17 -9 22 -20 6 -16 8 -12 10 18 3 60 4 62 22 59 10 -2 24 2 31 7 7 6
35 12 62 13 49 3 49 3 52 -29 4 -40 17 -42 34 -5 17 36 65 40 60 5 -2 -16 2
-23 12 -23 9 0 16 6 16 14 0 20 20 25 53 13 26 -9 27 -12 27 -79 l0 -70 -41 7
c-23 4 -55 8 -72 9 -19 2 -36 11 -45 24 -18 28 -32 28 -32 1 0 -22 -2 -22
-122 -15 -67 4 -126 10 -130 12 -8 5 -9 133 -2 146 2 3 13 4 24 1 15 -4 18
-11 14 -29z m1281 -5 c5 -31 3 -45 -9 -57 -15 -15 -16 -14 -16 8 0 21 -2 22
-11 10 -8 -12 -9 -10 -5 10 3 14 6 35 6 48 0 39 28 25 35 -19z m6099 4 c6 -20
2 -22 -48 -28 -91 -12 -104 17 -20 46 52 18 58 16 68 -18z m-7439 -54 c0 -85
-19 -88 -22 -3 -2 64 3 91 15 80 4 -4 7 -39 7 -77z m1143 2 l3 -62 -35 7 c-38
7 -39 6 -40 -46 -1 -23 -5 -25 -59 -28 l-57 -3 3 48 c2 36 7 49 20 51 13 3 17
-4 17 -28 0 -18 4 -29 10 -25 6 3 10 21 10 39 0 39 15 56 51 56 20 0 30 7 39
30 19 46 35 30 38 -39z m1668 12 l-1 -48 -50 -6 c-28 -3 -56 -4 -62 -1 -22 8
-5 19 32 20 48 2 58 9 52 40 -5 24 11 54 24 46 4 -2 6 -25 5 -51z m-5466 25
c0 -16 -3 -19 -11 -11 -6 6 -8 16 -5 22 11 17 16 13 16 -11z m3900 -39 c6 -46
5 -52 -16 -61 -13 -6 -31 -7 -41 -4 -17 7 -17 8 2 24 11 9 21 26 23 37 11 80
22 81 32 4z m219 2 c-6 -29 -13 -50 -16 -47 -3 3 0 28 7 56 16 66 24 59 9 -9z
m121 22 c0 -7 -2 -13 -5 -13 -10 0 -43 38 -38 44 8 8 43 -17 43 -31z m5480 12
c0 -8 -7 -15 -15 -15 -8 0 -15 7 -15 15 0 8 7 15 15 15 8 0 15 -7 15 -15z
m-6207 -17 c15 -7 27 -17 27 -22 0 -5 9 -1 19 8 11 10 24 15 29 12 12 -7 15
-143 4 -150 -5 -3 -24 -1 -41 4 -33 9 -61 4 -61 -11 0 -5 8 -9 18 -9 31 0 31
-10 1 -43 -24 -26 -31 -29 -39 -17 -5 8 -6 18 -3 23 9 15 4 120 -7 131 -13 13
-13 28 0 60 11 30 16 31 53 14z m664 -25 c-3 -10 -5 -4 -5 12 0 17 2 24 5 18
2 -7 2 -21 0 -30z m628 17 c-8 -13 6 -40 20 -40 15 0 28 27 20 41 -4 5 1 6 9
3 19 -7 21 -35 4 -52 -7 -7 -30 -12 -51 -12 -36 0 -39 2 -32 23 4 12 7 30 7
39 -1 11 5 15 14 11 7 -3 12 -9 9 -13z m-2505 -21 c0 -5 -6 -12 -14 -15 -17
-7 -59 14 -52 25 7 10 66 1 66 -10z m2730 1 c0 -5 -4 -10 -10 -10 -5 0 -10 5
-10 10 0 6 5 10 10 10 6 0 10 -4 10 -10z m-5011 -38 c14 -20 20 -46 21 -92 2
-97 4 -92 -32 -85 -66 13 -69 17 -59 64 1 2 8 -3 18 -10 15 -13 16 -11 9 14
-5 20 -3 27 9 27 8 0 15 5 15 10 0 6 -4 10 -9 10 -14 0 -21 28 -14 60 7 37 16
38 42 2z m4221 -12 l0 -40 -57 0 c-41 0 -54 3 -43 10 8 5 25 10 38 10 12 0 22
6 22 13 0 8 4 7 10 -3 8 -12 10 -10 10 11 0 23 7 39 17 39 2 0 3 -18 3 -40z
m1050 31 c0 -16 -30 -20 -179 -20 -157 0 -184 16 -36 21 50 2 118 4 153 6 34
1 62 -2 62 -7z m-1320 -17 c0 12 29 -25 30 -37 0 -5 -10 -7 -22 -5 -17 2 -23
10 -25 33 -2 22 0 26 7 15 5 -8 10 -11 10 -6z m-5073 -44 c1 -27 -3 -40 -12
-40 -9 0 -12 11 -11 33 4 44 5 47 14 47 4 0 8 -18 9 -40z m3208 -58 c-3 -64
-7 -87 -17 -87 -17 0 -21 166 -5 177 21 13 25 -3 22 -90z m1951 82 c-3 -9 -6
-20 -6 -25 0 -6 -4 -8 -9 -5 -12 8 -2 46 11 46 6 0 7 -7 4 -16z m5164 6 c0 -5
-2 -10 -4 -10 -3 0 -8 5 -11 10 -3 6 -1 10 4 10 6 0 11 -4 11 -10z m-9890 -10
c0 -5 -2 -10 -4 -10 -3 0 -8 5 -11 10 -3 6 -1 10 4 10 6 0 11 -4 11 -10z
m2901 5 c3 -2 0 -42 -6 -87 l-10 -83 -41 -3 -40 -3 -1 68 c-1 83 7 101 50 106
17 2 35 5 38 5 3 1 8 0 10 -3z m59 -36 c0 -5 -5 -9 -11 -9 -8 0 -8 -5 1 -15 8
-9 10 -27 6 -46 -3 -16 -2 -28 3 -25 4 3 13 -6 19 -19 14 -30 2 -38 -33 -25
-22 9 -26 15 -21 35 4 14 2 25 -3 25 -5 0 -5 15 1 38 5 20 10 42 10 49 1 13
28 5 28 -8z m256 -56 c-9 -110 -6 -104 -46 -101 -25 2 -36 8 -39 23 -3 16 -1
17 12 7 20 -17 24 -9 32 63 9 70 11 75 31 75 13 0 15 -11 10 -67z m-63 12 c-3
-34 -6 -37 -27 -29 -19 7 -21 35 -4 52 19 19 33 8 31 -23z m162 25 c3 -5 -1
-10 -9 -10 -9 0 -16 5 -16 10 0 6 4 10 9 10 6 0 13 -4 16 -10z m6620 -7 c3
-10 -1 -13 -12 -11 -9 2 -18 8 -20 14 -5 16 25 13 32 -3z m-6865 -34 c0 -5 -9
-9 -20 -9 -19 0 -27 20 -13 33 7 8 33 -11 33 -24z m590 6 c31 -2 40 1 36 11
-9 24 13 15 30 -11 20 -30 34 -32 34 -4 0 12 5 19 13 17 15 -6 23 -158 7 -158
-5 0 -10 5 -10 11 0 7 -9 9 -23 6 -34 -9 -45 3 -50 57 -7 57 -7 57 -36 49 -19
-5 -22 -11 -19 -46 2 -40 1 -42 -32 -50 -43 -10 -50 -11 -75 -8 -16 1 -17 3
-6 10 10 6 15 27 15 60 0 50 8 65 20 36 9 -25 23 -17 30 18 5 23 9 28 15 18 5
-7 28 -15 51 -16z m-247 -49 c0 -29 -3 -58 -6 -62 -4 -8 -43 -10 -75 -5 -10 1
-9 31 1 48 4 6 4 18 1 27 -4 11 -1 16 10 16 9 0 17 -7 17 -15 3 -31 4 -35 14
-37 6 -2 11 13 13 32 7 81 25 79 25 -4z m75 52 c7 -7 12 -22 12 -34 0 -12 6
-25 13 -27 6 -3 0 -6 -15 -6 -21 -1 -28 -6 -28 -20 0 -23 -16 -36 -22 -18 -4
9 -3 104 1 115 3 7 29 0 39 -10z m1987 -9 c5 -7 -5 -8 -32 -3 -51 9 -54 14
-10 14 20 0 39 -5 42 -11z m4465 -10 c0 -5 -4 -9 -10 -9 -5 0 -10 7 -10 16 0
8 5 12 10 9 6 -3 10 -10 10 -16z m-6090 1 c8 -5 11 -10 5 -10 -5 0 -17 5 -25
10 -8 5 -10 10 -5 10 6 0 17 -5 25 -10z m873 -7 c4 -2 7 -9 7 -15 0 -6 -21 -8
-57 -5 -33 3 -51 2 -42 -3 26 -17 2 -19 -82 -10 -46 5 -102 11 -124 14 -22 2
-63 -1 -92 -7 -54 -11 -75 -5 -55 15 6 6 59 13 121 15 96 4 111 2 111 -11 0
-11 10 -16 34 -16 26 0 35 5 39 21 5 20 10 21 69 14 35 -4 66 -9 71 -12z m619
-3 c79 -11 159 -25 178 -30 19 -6 58 -10 87 -10 29 0 77 -9 108 -21 49 -18 58
-27 80 -69 29 -58 25 -87 -8 -65 -36 23 -239 36 -642 41 l-380 5 -1 29 c-1 34
-20 60 -43 60 -9 0 -23 5 -31 10 -10 6 6 9 51 8 74 -1 89 4 89 32 0 18 10 20
168 23 92 1 175 4 184 5 10 1 82 -7 160 -18z m-4234 -30 c1 -42 -13 -38 -16 6
-2 20 1 33 6 30 5 -3 9 -19 10 -36z m4549 25 c10 -27 -6 -30 -29 -7 l-22 22
22 0 c12 0 25 -7 29 -15z m4217 -1 c3 -8 2 -12 -4 -9 -6 3 -10 10 -10 16 0 14
7 11 14 -7z m-6794 -33 c0 -11 8 -22 18 -24 9 -3 3 -5 -14 -6 -38 -1 -46 6
-33 30 13 25 29 24 29 0z m3027 13 c-3 -3 -12 -4 -19 -1 -8 3 -5 6 6 6 11 1
17 -2 13 -5z m3833 -10 c0 -14 -3 -14 -15 -4 -8 7 -15 14 -15 16 0 2 7 4 15 4
8 0 15 -7 15 -16z m-4079 -31 c0 -5 2 -60 5 -123 4 -74 10 -123 20 -137 8 -13
10 -24 4 -28 -5 -3 -21 17 -35 45 -21 42 -25 59 -21 112 3 35 5 80 6 101 0 20
5 37 10 37 6 0 10 -3 11 -7z m3996 -15 c-3 -8 -6 -5 -6 6 -1 11 2 17 5 13 3
-3 4 -12 1 -19z m80 -10 c-3 -7 -5 -2 -5 12 0 14 2 19 5 13 2 -7 2 -19 0 -25z
m-9407 2 c0 -5 -2 -10 -4 -10 -3 0 -8 5 -11 10 -3 6 -1 10 4 10 6 0 11 -4 11
-10z m170 -22 c0 -19 -2 -20 -12 -6 -7 9 -20 18 -28 21 -8 3 -3 6 13 6 21 1
27 -3 27 -21z m2085 -68 c0 -79 7 -95 38 -79 21 12 55 3 41 -10 -5 -5 -34 -12
-65 -16 l-57 -7 3 73 c1 41 3 84 4 97 1 17 6 22 19 20 14 -3 17 -15 17 -78z
m-1680 -1 c-3 -24 -7 -44 -9 -46 -7 -7 -17 98 -10 109 13 20 25 -20 19 -63z
m8760 60 c11 -17 -1 -21 -15 -4 -8 9 -8 15 -2 15 6 0 14 -5 17 -11z m-6952
-76 c0 -40 -4 -77 -8 -83 -4 -6 -4 -19 0 -28 4 -9 7 -34 6 -54 -2 -20 2 -45 8
-56 8 -15 7 -23 -4 -32 -17 -14 -21 -35 -5 -25 6 4 18 1 26 -6 13 -11 14 -9 8
17 -7 27 -6 28 11 14 12 -10 16 -11 11 -2 -9 15 2 68 12 57 4 -4 7 -24 8 -46
0 -36 9 -58 18 -48 3 2 8 32 12 67 l7 62 -29 1 c-27 2 -27 2 6 9 45 8 76 -9
72 -40 -3 -17 0 -21 12 -17 22 9 20 -10 -1 -22 -17 -9 -17 -10 0 -16 22 -9 22
-28 -1 -48 -15 -13 -36 -16 -103 -14 -78 2 -84 1 -85 -18 -1 -11 -2 -23 -4
-27 -1 -5 -3 -11 -5 -15 -9 -32 -19 -40 -47 -39 -17 1 -33 7 -36 14 -3 10 -7
10 -18 1 -23 -19 -18 -105 6 -122 24 -17 16 -27 -19 -27 -26 0 -26 1 -26 75 1
72 2 77 29 95 22 14 35 16 54 9 l25 -10 -5 76 c-5 69 1 91 17 65 18 -30 24 16
20 156 -4 143 -3 155 13 152 14 -3 17 -15 15 -75z m273 -18 l0 -75 -27 0 c-42
0 -57 9 -52 31 3 10 0 19 -6 19 -6 0 -11 10 -11 21 0 16 5 20 18 16 47 -13 47
-13 44 25 -4 45 5 65 22 48 6 -6 11 -44 12 -85z m-321 26 c-8 -33 -11 -35 -31
-27 -13 5 -15 9 -6 18 17 17 15 31 -3 24 -20 -7 -33 23 -15 34 8 5 23 2 37 -7
19 -13 23 -22 18 -42z m203 52 c0 -5 2 -16 7 -26 9 -23 0 -33 -18 -19 -10 8
-13 6 -14 -9 -1 -14 3 -19 13 -15 11 4 14 -4 14 -34 0 -39 -1 -40 -35 -40 -34
0 -35 1 -34 38 1 20 3 29 6 19 2 -9 8 -15 13 -12 11 7 3 34 -17 56 -22 25 -6
49 33 49 19 0 33 -3 32 -7z m-106 -38 c-12 -22 -27 -2 -18 22 5 12 10 13 17 6
7 -7 8 -17 1 -28z m174 28 c-10 -11 -37 -12 -30 -2 3 5 12 9 21 9 9 0 13 -3 9
-7z m181 -68 c-1 -36 1 -65 6 -65 16 0 38 28 27 35 -5 3 -10 19 -10 36 0 24 4
29 25 29 23 0 24 -2 15 -21 -16 -29 -3 -76 23 -83 21 -7 21 -7 2 -15 -11 -4
-42 -5 -70 -2 -55 7 -53 0 -42 106 5 47 4 45 17 45 5 0 8 -29 7 -65z m479 40
c3 -14 3 -46 -1 -71 -5 -34 -12 -47 -28 -53 -31 -12 -35 -7 -31 46 7 88 45
138 60 78z m-246 4 c0 -6 8 -8 20 -4 17 5 20 0 26 -44 4 -28 11 -51 16 -51 5
0 6 -4 3 -10 -3 -5 -26 -10 -51 -10 -40 0 -44 2 -44 24 0 32 16 41 30 19 10
-16 11 -15 6 7 -3 14 -6 30 -6 35 0 6 -4 4 -8 -2 -5 -7 -22 -14 -39 -15 -18
-2 -32 -7 -31 -13 0 -5 5 -8 12 -7 6 2 8 0 4 -4 -4 -4 -3 -13 3 -20 6 -7 8
-18 4 -24 -8 -13 -55 -13 -55 0 0 6 4 10 9 10 10 0 9 14 -4 44 -6 13 -4 21 3
24 7 2 10 7 7 12 -7 12 23 33 36 24 9 -5 8 -10 -4 -19 -14 -10 -12 -12 13 -13
18 0 28 3 24 9 -3 6 -3 16 0 24 6 17 26 20 26 4z m104 -72 c13 -45 13 -47 -6
-47 -14 0 -19 6 -17 23 2 12 0 28 -5 35 -8 13 0 49 9 40 3 -2 11 -26 19 -51z
m2558 31 c-7 -7 -12 -8 -12 -2 0 14 12 26 19 19 2 -3 -1 -11 -7 -17z m-3249
-19 c-4 -15 -8 -17 -14 -8 -8 14 -3 29 11 29 4 0 6 -9 3 -21z m6802 2 c3 -5 1
-12 -5 -16 -5 -3 -10 1 -10 9 0 18 6 21 15 7z m-6502 -36 c5 -29 1 -35 -28
-35 -31 0 -35 8 -18 40 16 33 39 31 46 -5z m-2773 10 c-7 -8 -17 -15 -23 -15
-6 0 -2 7 9 15 25 19 30 19 14 0z m5457 -11 c-3 -3 -12 -4 -19 -1 -8 3 -5 6 6
6 11 1 17 -2 13 -5z m206 -1 c-7 -2 -19 -2 -25 0 -7 3 -2 5 12 5 14 0 19 -2
13 -5z m3617 -7 c0 -3 -4 -8 -10 -11 -5 -3 -10 -1 -10 4 0 6 5 11 10 11 6 0
10 -2 10 -4z m-3563 -48 c-3 -7 -5 -2 -5 12 0 14 2 19 5 13 2 -7 2 -19 0 -25z
m-203 13 c3 -4 -6 -6 -19 -3 -14 2 -25 6 -25 8 0 8 39 4 44 -5z m-3226 -30
c24 -21 28 -37 11 -43 -6 -2 -13 -26 -15 -53 -5 -51 -19 -80 -28 -54 -10 29
-11 169 -1 169 6 -1 20 -9 33 -19z m992 -3 c0 -7 -14 -27 -32 -45 -29 -30 -32
-31 -44 -15 -18 23 -17 33 0 26 9 -3 21 5 31 20 18 27 45 35 45 14z m-588 -33
c10 -38 4 -55 -21 -55 -11 0 -21 -8 -24 -17 -2 -10 -3 7 -1 37 1 34 -2 58 -9
63 -7 4 0 7 17 5 23 -2 31 -9 38 -33z m170 29 c9 -8 -3 -44 -14 -44 -6 0 -7 8
-4 17 4 9 1 20 -6 25 -10 6 -9 8 3 8 9 0 18 -3 21 -6z m199 -3 c-9 -6 -12 -19
-7 -42 4 -19 7 -42 7 -52 0 -10 6 -16 12 -14 7 3 10 11 8 18 -8 28 -1 54 16
67 16 11 16 14 3 23 -11 7 -8 9 15 7 29 -3 30 -4 27 -53 -2 -27 -9 -56 -15
-63 -7 -9 -7 -16 2 -25 9 -9 14 -9 21 3 5 8 12 12 15 8 3 -3 -1 -13 -10 -21
-8 -9 -15 -29 -15 -46 0 -22 -5 -31 -16 -31 -13 0 -15 7 -10 30 5 26 2 32 -20
40 -18 7 -35 6 -61 -5 -47 -20 -51 -19 -46 9 3 15 10 23 18 20 14 -6 26 25 30
77 3 42 11 59 28 59 8 0 7 -3 -2 -9z m139 5 c0 -11 -19 -15 -25 -6 -3 5 1 10
9 10 9 0 16 -2 16 -4z m-3919 -29 c-10 -9 -11 -8 -5 6 3 10 9 15 12 12 3 -3 0
-11 -7 -18z m3182 -7 c-3 -11 -7 -20 -9 -20 -2 0 -4 9 -4 20 0 11 4 20 9 20 5
0 7 -9 4 -20z m452 -12 c2 -13 4 -38 2 -57 -1 -20 3 -36 11 -38 8 -3 12 6 12
26 0 16 5 33 10 36 7 4 9 -11 7 -42 -3 -47 -4 -48 -33 -44 -36 4 -46 10 -39
21 9 14 -14 50 -30 50 -16 0 -20 16 -6 24 5 3 12 -2 15 -11 6 -15 8 -15 16 -3
6 8 10 25 10 38 0 12 4 22 10 22 5 0 12 -10 15 -22z m-2818 -12 c-7 -14 -13
-23 -15 -21 -7 6 9 45 18 45 4 0 3 -11 -3 -24z m2880 2 c-3 -8 -6 -5 -6 6 -1
11 2 17 5 13 3 -3 4 -12 1 -19z m2551 -15 c-10 -2 -26 -2 -35 0 -10 3 -2 5 17
5 19 0 27 -2 18 -5z m-4921 -65 c-2 -13 -4 -3 -4 22 0 25 2 35 4 23 2 -13 2
-33 0 -45z m2598 42 c-3 -5 -11 -10 -16 -10 -6 0 -7 5 -4 10 3 6 11 10 16 10
6 0 7 -4 4 -10z m2183 -31 c2 -36 -14 -55 -22 -26 -15 47 -15 63 2 64 13 1 18
-8 20 -38z m4271 -9 c10 0 4 -208 -6 -223 -10 -16 -19 120 -14 203 3 36 6 55
9 43 2 -13 7 -23 11 -23z m-6951 -8 c-4 -23 -68 -30 -68 -8 0 9 7 16 15 16 8
0 14 3 14 8 -3 19 3 22 22 12 11 -6 19 -19 17 -28z m-2502 -17 c-5 -19 -11
-25 -22 -21 -9 3 -27 6 -40 6 -13 0 -24 5 -24 11 0 8 13 9 40 5 36 -6 40 -4
40 16 0 12 3 19 6 15 4 -3 3 -18 0 -32z m-826 15 c0 -5 -2 -10 -4 -10 -3 0 -8
5 -11 10 -3 6 -1 10 4 10 6 0 11 -4 11 -10z m9699 -18 c0 -9 3 -88 7 -174 5
-105 3 -158 -3 -158 -17 0 -23 55 -23 212 0 90 4 147 9 143 6 -3 10 -13 10
-23z m-9439 7 c0 -5 -5 -7 -11 -4 -6 4 -16 -1 -23 -11 -7 -10 -18 -14 -25 -10
-9 6 -9 11 0 22 13 16 59 19 59 3z m10067 -5 c-3 -3 -12 -4 -19 -1 -8 3 -5 6
6 6 11 1 17 -2 13 -5z m-247 -40 c0 -2 -7 -4 -15 -4 -8 0 -15 4 -15 10 0 5 7
7 15 4 8 -4 15 -8 15 -10z m84 -131 c-7 -152 -16 -198 -28 -149 -3 14 -11 26
-16 26 -12 0 -2 88 14 115 21 35 18 74 -9 103 -14 15 -25 30 -25 34 0 14 28
-4 39 -25 11 -21 11 -21 6 4 -5 26 1 39 17 39 5 0 6 -62 2 -147z m-7079 127
c3 -5 -1 -10 -10 -10 -12 0 -15 -6 -10 -19 3 -11 1 -22 -5 -26 -13 -8 -13 -45
0 -45 6 0 10 7 10 15 0 8 5 15 10 15 15 0 12 -70 -2 -71 -7 0 -3 -4 10 -10 13
-5 21 -12 18 -17 -4 -7 -58 -8 -99 -3 -4 1 -3 10 3 21 6 11 17 19 25 18 7 -2
15 1 17 7 2 5 -6 10 -17 10 -11 0 -20 6 -19 13 1 6 2 19 3 27 0 8 8 15 16 15
10 0 13 9 10 35 -4 29 -2 35 14 35 11 0 23 -4 26 -10z m70 0 c3 -5 -3 -10 -15
-10 -12 0 -18 5 -15 10 3 6 10 10 15 10 5 0 12 -4 15 -10z m370 -36 c-2 -10
-4 -34 -4 -51 -1 -24 -6 -33 -18 -34 -13 0 -11 -3 7 -11 14 -6 32 -10 39 -9
13 2 13 0 2 -13 -33 -39 -81 -8 -75 48 1 11 3 41 3 65 1 34 4 42 16 37 8 -3
15 0 15 7 0 7 4 6 10 -4 5 -8 7 -24 5 -35z m6827 19 c-3 -16 -7 -22 -10 -15
-4 13 4 42 11 42 2 0 2 -12 -1 -27z m176 9 c2 -7 -3 -12 -12 -12 -9 0 -16 7
-16 16 0 17 22 14 28 -4z m126 3 c3 -8 1 -15 -4 -15 -6 0 -10 7 -10 15 0 8 2
15 4 15 2 0 6 -7 10 -15z m-7049 -6 c-16 -25 5 -56 45 -68 42 -13 47 -36 5
-25 -16 4 -30 0 -41 -10 -23 -24 -49 -16 -48 14 2 42 9 74 19 87 12 15 29 17
20 2z m2379 -11 c3 -13 6 -57 6 -99 0 -72 1 -76 23 -75 12 1 25 5 28 10 4 4
10 3 13 -3 4 -6 2 -11 -5 -11 -6 0 -9 -8 -6 -20 6 -25 -13 -32 -35 -12 -17 14
-18 12 -18 -40 0 -50 2 -56 28 -68 l27 -14 -27 -4 c-21 -2 -28 -9 -28 -25 0
-11 -10 -40 -21 -64 -19 -40 -20 -45 -5 -61 12 -15 14 -25 5 -55 -5 -20 -14
-39 -19 -42 -5 -3 -5 8 1 24 8 24 7 35 -5 53 -9 12 -16 33 -16 45 0 31 -21 29
-61 -4 l-33 -28 -295 -3 c-199 -1 -291 1 -281 8 8 5 33 10 55 10 74 0 370 38
418 53 26 8 63 25 83 36 20 12 37 21 38 19 18 -43 52 -61 67 -36 5 7 9 43 9
80 0 55 -4 71 -22 92 -22 25 -26 26 -162 27 -77 0 -145 3 -152 6 -22 8 -4 33
20 27 31 -7 72 11 79 35 4 16 0 21 -16 23 -32 2 -39 1 -69 -7 -27 -7 -28 -6
-28 34 0 39 -2 41 -30 41 -16 0 -30 -5 -30 -10 0 -6 -21 -8 -57 -4 -45 6 -54
5 -48 -6 5 -8 4 -11 -3 -7 -5 4 -31 -2 -58 -13 -57 -25 -70 -20 -17 7 21 10
51 27 66 38 26 17 50 19 245 19 201 1 220 3 262 23 58 28 66 28 74 1z m-2686
-1 c12 -14 16 -44 14 -100 -2 -34 -6 -40 -37 -53 -54 -22 -56 -20 -54 86 0 30
5 60 11 67 13 17 52 17 66 0z m-2478 -23 c0 -8 -4 -14 -10 -14 -5 0 -10 5 -10
10 0 6 -8 10 -17 10 -15 0 -15 2 -4 9 18 12 41 3 41 -15z m2356 1 c3 -14 4
-36 2 -48 -3 -13 1 -29 9 -35 29 -28 2 -59 -39 -46 -14 4 -18 12 -15 26 3 11
0 21 -8 24 -10 4 -11 12 -5 29 5 12 6 33 3 45 -4 17 -2 21 8 18 8 -3 13 -14
11 -24 -2 -18 -2 -18 8 -1 6 9 8 22 5 27 -3 6 -2 10 4 10 6 0 13 -11 17 -25z
m-2466 11 c0 -3 -4 -8 -10 -11 -5 -3 -10 -1 -10 4 0 6 5 11 10 11 6 0 10 -2
10 -4z m2745 -94 c-4 -24 -13 -46 -21 -49 -22 -8 -30 5 -16 28 9 14 10 25 2
39 -8 15 -8 20 1 20 6 0 9 6 6 14 -3 7 0 19 6 25 17 17 30 -26 22 -77z m1618
81 c-7 -2 -19 -2 -25 0 -7 3 -2 5 12 5 14 0 19 -2 13 -5z m83 -8 c-10 -8 -23
-12 -28 -9 -14 9 2 24 25 24 21 -1 21 -1 3 -15z m114 5 c0 -5 -16 -10 -35 -10
-19 0 -35 5 -35 10 0 6 16 10 35 10 19 0 35 -4 35 -10z m-4493 -37 c-3 -10 -5
-4 -5 12 0 17 2 24 5 18 2 -7 2 -21 0 -30z m8643 27 c0 -5 -9 -10 -21 -10 -11
0 -17 5 -14 10 3 6 13 10 21 10 8 0 14 -4 14 -10z m930 -26 c0 -19 -4 -33 -8
-30 -8 5 -4 66 4 66 2 0 4 -16 4 -36z m77 4 c-3 -7 -5 -2 -5 12 0 14 2 19 5
13 2 -7 2 -19 0 -25z m233 -18 c0 -9 -6 -22 -12 -28 -16 -16 -15 1 -16 -236
-1 -110 -5 -196 -9 -192 -10 10 -10 456 0 456 4 0 7 -4 7 -10 0 -5 4 -10 10
-10 5 0 7 14 4 33 -4 24 -3 28 5 17 6 -8 11 -22 11 -30z m-9834 -23 c-3 -16
-6 -39 -6 -50 0 -32 -18 -7 -20 28 -4 55 -1 65 16 58 12 -4 14 -14 10 -36z
m8575 21 c-9 -24 -12 -25 -48 -13 -15 4 -23 2 -23 -5 0 -6 -4 -8 -10 -5 -23
14 -9 34 28 38 20 2 42 4 49 5 9 2 10 -5 4 -20z m-3841 3 c0 -12 -20 -25 -27
-18 -7 7 6 27 18 27 5 0 9 -4 9 -9z m492 -36 c-6 -32 -16 -39 -32 -20 -16 19
-6 45 18 45 15 0 18 -5 14 -25z m4311 -47 c3 -20 2 -39 -1 -43 -4 -4 -7 -40
-8 -81 0 -40 -3 -77 -7 -81 -12 -11 -8 -23 8 -23 8 0 15 -7 15 -15 0 -18 -12
-19 -28 -3 -15 15 -16 58 -2 58 7 0 8 7 3 18 -5 9 -7 64 -5 121 3 101 14 122
25 49z m-9573 16 c0 -8 -4 -12 -10 -9 -5 3 -10 13 -10 21 0 8 5 12 10 9 6 -3
10 -13 10 -21z m450 5 c0 -5 -4 -9 -10 -9 -5 0 -10 7 -10 16 0 8 5 12 10 9 6
-3 10 -10 10 -16z m-800 1 c0 -5 -5 -10 -11 -10 -5 0 -7 5 -4 10 3 6 8 10 11
10 2 0 4 -4 4 -10z m5220 -10 c0 -5 -4 -10 -10 -10 -5 0 -10 5 -10 10 0 6 5
10 10 10 6 0 10 -4 10 -10z m460 -5 c0 -8 -7 -15 -15 -15 -8 0 -15 7 -15 15 0
8 7 15 15 15 8 0 15 -7 15 -15z m4147 -17 c-3 -8 -6 -5 -6 6 -1 11 2 17 5 13
3 -3 4 -12 1 -19z m163 6 c0 -8 -4 -12 -10 -9 -5 3 -10 10 -10 16 0 5 5 9 10
9 6 0 10 -7 10 -16z m347 -21 c-3 -10 -5 -4 -5 12 0 17 2 24 5 18 2 -7 2 -21
0 -30z m-11419 16 c14 0 13 -2 -3 -9 -27 -12 -37 -12 -31 -1 4 5 3 11 -1 14
-5 2 -2 2 5 0 8 -1 21 -3 30 -4z m113 -3 c-18 -10 -32 -11 -53 -4 -15 6 -28
12 -28 14 0 2 24 4 53 4 49 -1 51 -1 28 -14z m975 -1 c-3 -8 -1 -15 4 -15 6 0
10 8 10 18 1 16 1 16 11 0 5 -10 20 -18 32 -19 14 0 16 -2 7 -6 -8 -2 -26 -10
-39 -16 -19 -10 -25 -8 -36 7 -14 19 -10 46 7 46 6 0 8 -7 4 -15z m-1247 -11
c2 -2 -25 -4 -61 -4 -97 0 -128 -8 -128 -34 -1 -19 -1 -20 -11 -3 -20 35 -4
46 73 49 68 3 118 0 127 -8z m1071 4 c31 -10 32 -12 12 -19 -27 -10 -52 -2
-52 17 0 17 -1 17 40 2z m3230 -4 c0 -3 -10 -20 -22 -37 -13 -19 -23 -51 -26
-84 -5 -55 -16 -73 -34 -55 -7 7 -7 26 0 58 7 33 7 51 0 55 -5 3 -8 17 -6 30
3 23 5 24 81 38 4 0 7 -2 7 -5z m2070 -10 c0 -2 -37 -3 -82 -2 l-83 2 70 5
c66 6 95 4 95 -5z m-2177 -11 c-7 -3 -9 -11 -6 -19 6 -17 -18 -19 -35 -2 -10
10 -16 7 -28 -10 -17 -25 -36 -30 -28 -8 7 19 84 57 98 49 7 -5 6 -8 -1 -10z
m7047 -4 c0 -5 -4 -9 -10 -9 -5 0 -10 7 -10 16 0 8 5 12 10 9 6 -3 10 -10 10
-16z m-11993 -29 c0 -16 -4 -30 -9 -30 -4 0 -8 3 -8 8 0 4 -3 17 -6 30 -5 15
-2 22 8 22 10 0 15 -10 15 -30z m4459 -86 c-2 -45 -7 -87 -10 -93 -4 -5 2 -14
11 -20 17 -10 17 -10 -1 -11 -13 0 -16 -5 -11 -17 4 -10 8 -25 9 -33 1 -8 5
-22 8 -30 15 -38 15 -61 0 -77 -16 -16 -17 -15 -20 13 -2 16 -8 34 -14 41 -11
13 -12 318 -1 335 4 7 11 4 19 -7 10 -13 12 -43 10 -101z m7871 94 c-3 -8 -6
-5 -6 6 -1 11 2 17 5 13 3 -3 4 -12 1 -19z m-12940 -14 c8 -21 -13 -64 -32
-64 -16 0 -20 34 -9 64 8 21 33 21 41 0z m83 -13 c0 -29 -21 -57 -33 -44 -9 8
-9 58 0 66 16 17 33 5 33 -22z m160 -11 c0 -22 -4 -40 -10 -40 -12 0 -24 45
-16 65 11 29 26 15 26 -25z m12193 -52 c-3 -46 -10 -87 -15 -93 -7 -7 -9 12
-4 60 3 39 6 83 6 98 0 16 4 26 9 23 5 -3 6 -43 4 -88z m156 52 c0 -10 -3 -8
-9 5 -12 27 -12 43 0 25 5 -8 9 -22 9 -30z m-7469 16 c0 -9 -7 -12 -20 -9 -11
3 -20 9 -20 14 0 5 9 9 20 9 11 0 20 -6 20 -14z m2710 2 c-45 -9 -257 -4 -268
6 -3 3 66 6 154 5 126 -1 150 -3 114 -11z m-2284 -35 c-11 -11 -19 6 -11 24 8
17 8 17 12 0 3 -10 2 -21 -1 -24z m2447 30 c-7 -2 -19 -2 -25 0 -7 3 -2 5 12
5 14 0 19 -2 13 -5z m-5835 -37 c-10 -7 -18 -19 -19 -27 0 -8 -4 -5 -8 6 -6
14 -4 22 8 27 27 11 37 8 19 -6z m55 -6 c-4 -14 -13 -20 -32 -19 -24 2 -24 2
-3 6 15 3 22 10 18 19 -3 8 1 14 8 14 9 0 12 -7 9 -20z m304 -22 c-3 -8 -6 -5
-6 6 -1 11 2 17 5 13 3 -3 4 -12 1 -19z m10081 -3 c-1 -14 -6 -25 -10 -25 -4
0 -8 11 -8 25 0 14 4 25 10 25 5 0 9 -11 8 -25z m-11415 -22 c-4 -10 -9 -11
-16 -4 -5 5 -7 18 -3 28 6 14 9 15 16 4 4 -8 6 -21 3 -28z m1527 33 c0 -3 -4
-8 -10 -11 -5 -3 -10 -1 -10 4 0 6 5 11 10 11 6 0 10 -2 10 -4z m2825 -16 c8
-24 -1 -40 -21 -40 -9 0 -14 11 -14 30 0 35 25 42 35 10z m6714 -30 c11 0 23
-4 26 -10 8 -13 -16 -13 -49 -1 -19 8 -23 15 -19 32 l6 23 8 -22 c5 -13 17
-22 28 -22z m-9266 0 c-6 -22 -23 -38 -23 -21 0 17 12 41 20 41 5 0 6 -9 3
-20z m-2991 -25 c4 -16 4 -54 0 -85 -5 -36 -4 -63 2 -74 8 -12 7 -19 -4 -26
-8 -5 -19 -9 -23 -7 -9 3 -18 194 -10 215 8 20 26 9 35 -23z m3408 10 c0 -8
-4 -15 -10 -15 -5 0 -10 7 -10 15 0 8 5 15 10 15 6 0 10 -7 10 -15z m8910 -1
c0 -8 -4 -12 -10 -9 -5 3 -10 10 -10 16 0 5 5 9 10 9 6 0 10 -7 10 -16z
m-10070 2 c0 -3 -4 -8 -10 -11 -5 -3 -10 -1 -10 4 0 6 5 11 10 11 6 0 10 -2
10 -4z m288 -33 c3 -43 -12 -36 -23 10 -5 20 -3 27 7 27 9 0 15 -13 16 -37z
m4487 28 c3 -5 1 -12 -5 -16 -5 -3 -10 1 -10 9 0 18 6 21 15 7z m5575 -11 c0
-11 -2 -20 -4 -20 -2 0 -6 9 -9 20 -3 11 -1 20 4 20 5 0 9 -9 9 -20z m-12340
-5 c0 -8 -4 -15 -10 -15 -5 0 -10 7 -10 15 0 8 5 15 10 15 6 0 10 -7 10 -15z
m7150 11 c0 -2 -7 -6 -15 -10 -8 -3 -15 -1 -15 4 0 6 7 10 15 10 8 0 15 -2 15
-4z m785 -6 c3 -5 1 -10 -4 -10 -6 0 -11 5 -11 10 0 6 2 10 4 10 3 0 8 -4 11
-10z m-8105 -12 c0 -7 -4 -19 -9 -26 -6 -10 -10 -7 -13 12 -4 18 -1 26 8 26 8
0 14 -6 14 -12z m2083 -56 c20 -2 27 1 27 13 0 9 5 13 10 10 6 -3 10 -1 10 6
0 7 3 10 6 7 17 -18 -53 -78 -91 -78 -3 0 -4 26 -4 58 1 48 3 51 8 22 5 -29
11 -36 34 -38z m3422 26 c-4 -18 -11 -38 -16 -44 -4 -5 -6 -20 -2 -32 3 -13 1
-22 -6 -22 -15 0 -14 67 2 73 9 4 9 7 -1 15 -16 11 -5 42 15 42 11 0 13 -7 8
-32z m7352 -30 c-2 -13 -4 -3 -4 22 0 25 2 35 4 23 2 -13 2 -33 0 -45z m-7447
41 c0 -6 -9 -9 -20 -6 -11 3 -23 1 -26 -4 -8 -14 -21 -11 -28 6 -4 12 3 15 34
15 23 0 40 -5 40 -11z m6821 -40 c-10 -23 -10 -23 -10 7 -1 17 2 34 7 38 11
12 14 -18 3 -45z m-9671 11 c0 -5 -4 -10 -9 -10 -6 0 -13 5 -16 10 -3 6 1 10
9 10 9 0 16 -4 16 -10z m9950 -2 c0 -4 -11 -8 -25 -8 -14 0 -25 4 -25 10 0 5
11 9 25 8 14 -1 25 -6 25 -10z m-11392 -7 c10 -6 10 -10 -2 -21 -9 -7 -13 -16
-10 -21 3 -5 0 -9 -6 -9 -14 0 -24 26 -16 45 6 17 15 19 34 6z m11239 -39 c1
-27 -4 -45 -15 -54 -10 -8 -13 -9 -9 -1 4 6 3 30 -2 52 -9 41 -5 54 13 48 6
-2 12 -22 13 -45z m-9037 8 c0 -5 -5 -10 -11 -10 -5 0 -7 5 -4 10 3 6 8 10 11
10 2 0 4 -4 4 -10z m8500 -5 c0 -8 -4 -15 -10 -15 -5 0 -7 7 -4 15 4 8 8 15
10 15 2 0 4 -7 4 -15z m-11826 -56 c-8 -14 -24 -10 -24 6 0 9 6 12 15 9 8 -4
12 -10 9 -15z m5130 -40 c-15 -15 -31 -26 -35 -23 -13 8 2 37 30 61 37 31 42
0 5 -38z m-3488 26 c8 -34 -2 -57 -23 -53 -12 2 -18 13 -18 31 1 15 -4 27 -10
28 -10 0 23 17 37 18 4 1 10 -10 14 -24z m492 13 c9 -12 0 -58 -12 -58 -11 0
-26 40 -20 54 7 19 18 20 32 4z m-68 -39 c0 -5 -4 -9 -10 -9 -5 0 -10 7 -10
16 0 8 5 12 10 9 6 -3 10 -10 10 -16z m6060 -9 c0 -6 -11 -10 -25 -10 -23 0
-34 18 -19 33 9 8 44 -11 44 -23z m4236 -10 c8 0 14 -7 14 -15 0 -13 -3 -13
-20 -3 -11 7 -19 22 -19 33 1 17 2 17 6 3 2 -10 11 -18 19 -18z m-11246 6 c0
-3 -4 -8 -10 -11 -5 -3 -10 -1 -10 4 0 6 5 11 10 11 6 0 10 -2 10 -4z m6890
-16 c-24 -15 -37 -11 -16 5 11 8 22 12 25 9 3 -3 -1 -9 -9 -14z m-8086 -32 c7
-52 7 -47 4 -180 -1 -81 -5 -108 -15 -108 -7 0 -13 3 -13 8 0 4 -3 41 -6 82
-5 86 5 240 16 240 4 0 11 -19 14 -42z m2133 20 c-3 -8 -6 -5 -6 6 -1 11 2 17
5 13 3 -3 4 -12 1 -19z m3308 2 c3 -5 -1 -10 -10 -10 -9 0 -13 5 -10 10 3 6 8
10 10 10 2 0 7 -4 10 -10z m3700 -6 c13 -5 14 -8 3 -15 -19 -13 -28 -11 -28 6
0 17 2 18 25 9z m2869 -39 l31 -13 -27 -1 c-31 -1 -31 -1 -28 -93 l1 -58 -92
0 c-107 0 -112 12 -7 17 40 2 74 6 77 8 2 3 0 20 -5 38 -7 21 -7 42 0 60 9 25
7 31 -14 49 l-25 20 29 -7 c16 -3 43 -12 60 -20z m-11384 -16 c0 -10 -4 -19
-10 -19 -5 0 -10 12 -10 26 0 14 4 23 10 19 6 -3 10 -15 10 -26z m12330 -3 c0
-37 -15 -55 -32 -38 -7 7 -5 18 6 34 9 14 13 28 9 31 -3 4 -1 7 5 7 7 0 12
-15 12 -34z m-12870 -5 c0 -10 -6 -24 -14 -30 -11 -10 -16 -8 -21 8 -3 12 -3
25 0 31 11 17 35 11 35 -9z m2674 10 c7 -11 -60 -20 -76 -10 -10 6 4 11 59 18
6 0 14 -3 17 -8z m5292 -29 c27 -15 42 -47 18 -38 -47 18 -183 24 -511 22
-306 -2 -380 1 -360 16 5 4 498 13 662 13 112 0 177 -5 191 -13z m-6879 -24
c-3 -8 -6 -5 -6 6 -1 11 2 17 5 13 3 -3 4 -12 1 -19z m1063 12 c0 -5 -7 -10
-15 -10 -8 0 -15 5 -15 10 0 6 7 10 15 10 8 0 15 -4 15 -10z m3245 -11 c8 -9
-74 -21 -87 -12 -8 4 -6 8 5 12 22 8 74 8 82 0z m3453 -29 c9 -15 23 -20 60
-20 57 0 94 -9 86 -21 -3 -5 -52 -8 -108 -7 -101 1 -103 2 -92 22 28 53 35 56
54 26z m5079 4 c9 -25 -30 -58 -61 -50 -35 9 -33 29 7 48 43 21 47 21 54 2z
m-13372 -35 c0 -7 -8 -15 -17 -17 -18 -3 -25 18 -11 32 10 10 28 1 28 -15z
m545 12 c0 -6 -4 -13 -10 -16 -5 -3 -10 1 -10 9 0 9 5 16 10 16 6 0 10 -4 10
-9z m-1102 -99 c-5 -73 -28 -66 -28 8 0 55 2 61 15 50 11 -9 15 -27 13 -58z
m84 -2 c2 -35 -1 -45 -13 -48 -14 -3 -17 6 -16 58 0 50 3 59 13 48 7 -7 14
-33 16 -58z m82 54 c8 -22 7 -64 -2 -64 -9 0 -31 68 -24 75 10 9 20 5 26 -11z
m396 -34 c0 -4 -7 -10 -15 -14 -10 -4 -15 1 -15 14 0 13 5 18 15 14 8 -4 15
-10 15 -14z m8295 10 c17 -7 14 -9 -13 -9 -20 -1 -31 3 -27 9 7 12 13 12 40 0z
m118 -7 c-7 -2 -19 -2 -25 0 -7 3 -2 5 12 5 14 0 19 -2 13 -5z m347 -19 c0
-15 -42 -29 -62 -21 -9 4 -7 6 4 6 9 1 19 10 23 20 7 22 35 18 35 -5z m-1220
-8 c0 -3 -4 -8 -10 -11 -5 -3 -10 -1 -10 4 0 6 5 11 10 11 6 0 10 -2 10 -4z
m1066 -3 c-10 -10 -46 -11 -46 -1 0 4 12 8 27 8 14 0 23 -3 19 -7z m1414 -13
c0 -5 -10 -10 -22 -10 -19 0 -20 2 -8 10 19 13 30 13 30 0z m2360 -30 c0 -5
-5 -10 -11 -10 -8 0 -7 -5 2 -16 11 -14 11 -18 -4 -29 -9 -7 -17 -18 -17 -24
0 -7 -10 -11 -22 -9 -16 2 -22 9 -20 21 2 9 -2 17 -8 17 -5 0 -10 5 -10 10 0
6 14 10 30 10 23 0 30 4 30 20 0 11 7 20 15 20 8 0 15 -4 15 -10z m-10816 -9
c3 -5 -1 -11 -9 -15 -15 -6 -29 7 -18 18 9 9 21 8 27 -3z m5552 -5 c25 -1 64
-33 64 -53 0 -20 -208 -18 -235 3 -18 14 -11 15 84 9 83 -5 102 -4 99 7 -3 7
-12 13 -21 13 -8 0 -19 4 -23 8 -4 4 -16 7 -26 7 -11 0 -16 5 -13 10 4 6 16 8
28 4 12 -4 32 -8 43 -8z m-652 -2 c23 -9 20 -23 -4 -17 -11 3 -20 9 -20 14 0
11 3 11 24 3z m4607 -9 c0 -10 -80 -24 -100 -17 -25 8 -8 21 32 25 57 5 68 4
68 -8z m-4546 -5 c-3 -5 -11 -10 -16 -10 -6 0 -7 5 -4 10 3 6 11 10 16 10 6 0
7 -4 4 -10z m65 -2 c0 -4 -9 -8 -20 -8 -11 0 -20 4 -20 8 0 4 9 8 20 8 11 0
20 -4 20 -8z m5420 8 c0 -3 -4 -8 -10 -11 -5 -3 -10 -1 -10 4 0 6 5 11 10 11
6 0 10 -2 10 -4z m-4438 -31 c110 -11 159 -12 163 -4 3 4 19 3 36 -3 16 -6 42
-8 57 -5 15 3 48 3 72 -1 l45 -6 -55 -6 c-30 -4 -135 -7 -232 -8 -141 -2 -178
1 -178 11 0 16 21 38 31 32 4 -3 31 -7 61 -10z m939 -5 c10 0 19 5 19 11 0 8
4 8 14 -1 8 -6 33 -13 54 -15 22 -1 44 -4 48 -6 5 -3 43 -3 84 -2 186 7 334 2
349 -12 3 -3 -165 -5 -372 -4 -218 0 -377 5 -377 10 0 5 18 9 39 9 22 0 43 5
46 10 8 12 37 9 47 -5 4 -5 10 -1 14 10 5 11 9 14 12 7 2 -7 12 -12 23 -12z
m-1606 1 c-6 -11 -64 -25 -72 -18 -12 13 11 27 43 27 19 0 33 -4 29 -9z m2605
-11 c0 -5 14 -10 30 -10 17 0 30 5 30 13 0 9 2 9 8 0 4 -6 14 -11 22 -11 8 1
49 0 90 -2 74 -3 73 -3 -35 -10 -60 -3 -166 -5 -235 -3 -69 1 -144 3 -167 3
-24 0 -43 4 -43 9 0 5 63 8 140 7 77 0 140 2 140 7 0 4 5 7 10 7 6 0 10 -4 10
-10z m1450 -19 c0 -3 -145 -6 -323 -5 -381 1 -402 2 -394 11 4 3 160 6 347 6
227 -1 340 2 340 9 0 6 6 5 15 -2 8 -7 15 -15 15 -19z m-2937 12 c-13 -2 -33
-2 -45 0 -13 2 -3 4 22 4 25 0 35 -2 23 -4z m75 0 c-10 -2 -26 -2 -35 0 -10 3
-2 5 17 5 19 0 27 -2 18 -5z m62 3 c0 -3 -4 -8 -10 -11 -5 -3 -10 -1 -10 4 0
6 5 11 10 11 6 0 10 -2 10 -4z m975 -6 c18 -8 17 -9 -7 -9 -16 -1 -28 4 -28 9
0 12 8 12 35 0z m1055 0 c0 -6 -63 -10 -182 -9 -209 2 -186 13 35 17 96 2 147
-1 147 -8z m1360 -19 c0 -13 -27 -21 -45 -15 -8 4 -12 10 -9 15 7 12 54 12 54
0z m-4707 -218 c-7 -2 -19 -2 -25 0 -7 3 -2 5 12 5 14 0 19 -2 13 -5z m275 2
c-7 -8 -148 -8 -156 -1 -3 3 32 6 78 6 46 0 81 -2 78 -5z m417 -5 c54 -6 33
-7 -92 -7 -90 0 -163 4 -163 9 0 10 155 9 255 -2z m178 -7 c-7 -2 -19 -2 -25
0 -7 3 -2 5 12 5 14 0 19 -2 13 -5z m95 0 c-16 -2 -40 -2 -55 0 -16 2 -3 4 27
4 30 0 43 -2 28 -4z m369 0 c-10 -9 -127 -10 -127 0 0 4 30 7 67 7 36 0 63 -3
60 -7z m273 -3 c0 -12 -237 -14 -244 -2 -2 4 51 9 120 10 75 1 124 -2 124 -8z
m100 6 c0 -3 -4 -8 -10 -11 -5 -3 -10 -1 -10 4 0 6 5 11 10 11 6 0 10 -2 10
-4z m124 -6 c-6 -6 -21 -6 -39 -1 -30 9 -30 9 10 10 25 1 36 -2 29 -9z m125
-6 c2 -2 -20 -4 -50 -3 -41 1 -48 3 -29 9 22 7 68 3 79 -6z m231 6 c0 -12
-177 -13 -184 -2 -2 4 38 9 90 10 54 0 94 -3 94 -8z m179 -6 c2 -2 -33 -4 -78
-4 -56 0 -80 3 -76 11 7 10 143 4 154 -7z m3045 5 c9 -9 -278 -21 -299 -13
-17 7 -17 8 -2 13 22 8 294 8 301 0z m-2991 -6 c-7 -2 -19 -2 -25 0 -7 3 -2 5
12 5 14 0 19 -2 13 -5z m264 1 c-3 -3 -12 -4 -19 -1 -8 3 -5 6 6 6 11 1 17 -2
13 -5z m231 -1 c-10 -2 -28 -2 -40 0 -13 2 -5 4 17 4 22 1 32 -1 23 -4z m568
-2 c-49 -7 -387 -3 -395 5 -2 2 97 3 220 3 126 -1 203 -5 175 -8z m272 4 c-7
-7 -208 -8 -215 -1 -4 3 45 6 107 6 62 0 111 -2 108 -5z m110 -2 c-15 -2 -42
-2 -60 0 -18 2 -6 4 27 4 33 0 48 -2 33 -4z m122 3 c0 -11 -19 -15 -25 -6 -3
5 1 10 9 10 9 0 16 -2 16 -4z m657 -3 c-20 -2 -52 -2 -70 0 -17 2 0 4 38 4 39
0 53 -2 32 -4z m280 1 c-3 -3 -12 -4 -19 -1 -8 3 -5 6 6 6 11 1 17 -2 13 -5z
m567 -43 c10 -10 14 -21 9 -24 -11 -6 -44 7 -46 18 -1 6 -10 9 -19 8 -10 -2
-18 2 -18 7 0 18 56 11 74 -9z m-169 -1 c-3 -5 2 -10 11 -10 21 0 16 -7 -10
-12 -12 -2 -20 3 -21 15 -2 9 3 17 11 17 9 0 12 -4 9 -10z m-190 -40 c3 -5 -4
-6 -15 -3 -11 3 -22 9 -25 13 -3 5 4 6 15 3 11 -3 22 -9 25 -13z m72 -16 c-3
-3 -12 -4 -19 -1 -8 3 -5 6 6 6 11 1 17 -2 13 -5z m363 -4 c35 -10 140 -93
130 -103 -3 -3 -17 -8 -33 -12 -24 -6 -27 -5 -27 19 0 29 -25 46 -67 46 -16 0
-34 5 -41 12 -7 7 -12 8 -12 4 0 -5 -7 -3 -15 4 -12 10 -13 16 -4 26 14 17 23
17 69 4z m-203 -26 c-3 -3 -12 -4 -19 -1 -8 3 -5 6 6 6 11 1 17 -2 13 -5z
m248 -54 c3 -5 -1 -10 -10 -10 -9 0 -13 5 -10 10 3 6 8 10 10 10 2 0 7 -4 10
-10z m-990 -20 c3 -5 2 -10 -4 -10 -5 0 -13 5 -16 10 -3 6 -2 10 4 10 5 0 13
-4 16 -10z m-1045 -30 c0 -5 -5 -10 -11 -10 -5 0 -7 5 -4 10 3 6 8 10 11 10 2
0 4 -4 4 -10z m2240 -90 c0 -5 -4 -10 -10 -10 -5 0 -10 5 -10 10 0 6 5 10 10
10 6 0 10 -4 10 -10z m-1095 -48 c-3 -3 -11 0 -18 7 -9 10 -8 11 6 5 10 -3 15
-9 12 -12z m-7002 -1079 c-7 -2 -21 -2 -30 0 -10 3 -4 5 12 5 17 0 24 -2 18
-5z m-3153 -63 c-20 -13 -40 -13 -40 0 0 6 12 10 28 10 21 0 24 -2 12 -10z
m1680 0 c-8 -5 -22 -10 -30 -10 -13 0 -13 1 0 10 8 5 22 10 30 10 13 0 13 -1
0 -10z m1850 -74 c0 -2 -8 -10 -17 -17 -16 -13 -17 -12 -4 4 13 16 21 21 21
13z m6903 -223 c-7 -2 -19 -2 -25 0 -7 3 -2 5 12 5 14 0 19 -2 13 -5z m-7229
-58 c-7 -16 -51 -32 -61 -21 -11 10 19 36 43 36 17 0 22 -4 18 -15z m-2839
-183 c-3 -3 -11 0 -18 7 -9 10 -8 11 6 5 10 -3 15 -9 12 -12z m1255 -22 c0 -5
-5 -10 -11 -10 -5 0 -7 5 -4 10 3 6 8 10 11 10 2 0 4 -4 4 -10z m9575 -2629
l40 -1 -29 -15 c-23 -12 -86 -15 -371 -15 l-343 0 -6 -35 c-4 -20 -3 -41 1
-48 4 -6 6 -20 4 -31 -1 -10 3 -22 9 -26 7 -4 14 -23 15 -41 1 -19 6 -46 10
-60 6 -25 4 -27 -34 -31 -34 -3 -41 0 -50 19 -18 40 -50 176 -53 228 l-3 50
70 5 c58 4 600 5 740 1z m285 0 c0 -13 -53 -21 -141 -21 -77 0 -122 16 -52 18
20 1 38 4 41 7 9 9 152 5 152 -4z m114 -17 c3 -9 4 -19 1 -24 -3 -4 3 -11 12
-14 9 -4 20 -1 24 6 4 7 10 10 12 8 11 -13 76 -138 82 -157 6 -21 4 -22 -27
-17 -23 5 -30 3 -23 -4 6 -6 23 -12 40 -14 32 -3 51 -38 21 -38 -9 0 -16 5
-16 10 0 7 -13 8 -34 5 -31 -6 -35 -4 -50 26 -9 17 -16 37 -16 43 0 7 -9 30
-20 51 -12 22 -19 48 -16 58 2 9 1 15 -4 12 -10 -6 -25 13 -34 43 -6 19 -4 22
17 22 14 0 28 -7 31 -16z m36 -4 c0 -5 -2 -10 -4 -10 -3 0 -8 5 -11 10 -3 6
-1 10 4 10 6 0 11 -4 11 -10z m-395 -150 c-27 -12 -43 -12 -25 0 8 5 22 9 30
9 10 0 8 -3 -5 -9z m-55 -109 c0 -11 -51 -21 -65 -13 -5 3 1 9 15 13 36 10 50
10 50 0z m530 -21 c21 -17 23 -21 10 -29 -17 -12 -36 1 -43 29 -6 25 1 25 33
0z m-1339 -65 c13 4 19 1 19 -9 0 -24 -46 -20 -64 6 -25 35 -19 58 5 25 15
-19 27 -26 40 -22z m195 22 c14 -14 -5 -33 -32 -31 -69 3 -74 4 -74 23 0 15 7
18 50 17 27 -1 52 -5 56 -9z m990 -15 c-3 -5 -31 -10 -63 -10 -41 -2 -54 1
-43 8 18 12 113 13 106 2z m-196 -13 c0 -5 -61 -9 -135 -9 -74 0 -135 4 -135
8 0 5 61 9 135 9 74 1 135 -3 135 -8z m-375 -8 c-8 -8 -327 -18 -360 -12 -5 2
-1 6 10 11 27 12 362 13 350 1z m-382 -8 c-7 -2 -19 -2 -25 0 -7 3 -2 5 12 5
14 0 19 -2 13 -5z m-7583 -4689 c0 -2 -7 -4 -15 -4 -8 0 -15 4 -15 10 0 5 7 7
15 4 8 -4 15 -8 15 -10z m1420 -1448 c-16 -51 -47 -46 -64 11 -6 19 -3 22 31
25 21 2 40 2 41 1 2 -1 -1 -18 -8 -37z m90 -36 c0 -13 -60 -80 -71 -80 -19 0
-8 32 21 60 31 30 50 38 50 20z"/>
<path d="M7426 26573 c-4 -9 -2 -21 4 -27 7 -7 10 -2 10 17 0 31 -5 34 -14 10z"/>
<path d="M14720 26310 c0 -5 4 -10 9 -10 6 0 13 5 16 10 3 6 -1 10 -9 10 -9 0
-16 -4 -16 -10z"/>
<path d="M14635 26280 c-4 -6 7 -10 27 -9 27 0 30 2 13 9 -27 12 -33 12 -40 0z"/>
<path d="M14841 25874 c0 -11 3 -14 6 -6 3 7 2 16 -1 19 -3 4 -6 -2 -5 -13z"/>
<path d="M14637 25813 c-13 -13 -7 -21 13 -16 11 3 20 9 20 14 0 10 -24 12
-33 2z"/>
<path d="M13377 25573 c-11 -10 -8 -121 3 -128 6 -4 10 20 10 64 0 71 -1 77
-13 64z"/>
<path d="M13239 25507 c-2 -33 -1 -64 2 -69 13 -20 17 8 10 67 l-7 60 -5 -58z"/>
<path d="M15173 24410 c-29 -65 -37 -103 -11 -50 13 25 27 48 31 51 5 4 7 15
5 25 -4 14 -10 8 -25 -26z"/>
<path d="M15146 24242 c-6 -9 28 -140 40 -151 3 -3 4 25 1 63 -5 65 -26 111
-41 88z"/>
<path d="M15072 24085 c0 -16 2 -22 5 -12 2 9 2 23 0 30 -3 6 -5 -1 -5 -18z"/>
<path d="M15013 23597 c-10 -21 -4 -209 7 -220 3 -3 6 51 8 119 1 68 1 124 -1
124 -2 0 -8 -10 -14 -23z"/>
<path d="M8536 23954 c-4 -9 -4 -19 -2 -21 8 -8 26 8 26 23 0 19 -16 18 -24
-2z"/>
<path d="M8700 23839 c0 -5 5 -7 10 -4 6 3 10 8 10 11 0 2 -4 4 -10 4 -5 0
-10 -5 -10 -11z"/>
<path d="M8528 23336 c-4 -18 0 -26 14 -29 20 -6 21 -3 12 31 -8 29 -20 28
-26 -2z"/>
<path d="M9100 23350 c0 -7 -8 -9 -20 -5 -15 5 -18 3 -14 -9 8 -20 28 -21 43
-2 8 10 9 16 1 21 -5 3 -10 1 -10 -5z"/>
<path d="M9190 23349 c0 -5 5 -7 10 -4 6 3 10 8 10 11 0 2 -4 4 -10 4 -5 0
-10 -5 -10 -11z"/>
<path d="M8997 23145 c-4 -8 -2 -17 3 -20 6 -4 10 3 10 14 0 25 -6 27 -13 6z"/>
<path d="M9070 23119 c0 -5 5 -7 10 -4 6 3 10 8 10 11 0 2 -4 4 -10 4 -5 0
-10 -5 -10 -11z"/>
<path d="M8535 23130 c-4 -6 3 -10 14 -10 25 0 27 6 6 13 -8 4 -17 2 -20 -3z"/>
<path d="M8535 23070 c9 -41 13 -50 24 -50 9 0 -10 65 -23 77 -5 5 -5 -8 -1
-27z"/>
<path d="M9155 23119 c-4 -6 -5 -12 -2 -15 2 -3 7 2 10 11 7 17 1 20 -8 4z"/>
<path d="M8933 22655 c0 -22 2 -30 4 -17 2 12 2 30 0 40 -3 9 -5 -1 -4 -23z"/>
<path d="M9150 22665 c0 -8 -5 -15 -12 -15 -6 0 -9 -2 -6 -5 3 -3 13 -3 22 1
17 7 22 34 6 34 -5 0 -10 -7 -10 -15z"/>
<path d="M8970 22616 c0 -9 -4 -14 -10 -11 -5 3 -10 2 -10 -4 0 -5 5 -13 10
-16 6 -3 10 -2 10 4 0 6 8 7 18 4 15 -6 16 -5 2 13 -8 10 -16 21 -17 23 -2 2
-3 -3 -3 -13z"/>
<path d="M9140 22620 c0 -13 11 -13 30 0 12 8 11 10 -7 10 -13 0 -23 -4 -23
-10z"/>
<path d="M9180 22560 c0 -13 11 -13 30 0 12 8 11 10 -7 10 -13 0 -23 -4 -23
-10z"/>
<path d="M3130 23030 c8 -5 29 -9 45 -9 29 1 29 1 5 9 -14 4 -34 8 -45 9 -16
1 -17 -1 -5 -9z"/>
<path d="M3230 23011 c-22 -7 -20 -8 16 -12 28 -3 41 0 41 8 0 14 -18 15 -57
4z"/>
<path d="M8053 22943 c9 -9 19 -14 23 -11 10 10 -6 28 -24 28 -15 0 -15 -1 1
-17z"/>
<path d="M8710 22835 c0 -8 4 -15 8 -15 5 0 9 7 9 15 0 8 -4 15 -9 15 -4 0 -8
-7 -8 -15z"/>
<path d="M8550 22790 c0 -5 5 -10 10 -10 6 0 10 5 10 10 0 6 -4 10 -10 10 -5
0 -10 -4 -10 -10z"/>
<path d="M3127 22913 c-4 -3 -7 -12 -7 -20 0 -15 26 -18 34 -4 7 11 -18 33
-27 24z"/>
<path d="M8582 22506 c-37 -21 -37 -26 -1 -26 28 0 35 4 36 20 2 23 -3 23 -35
6z"/>
<path d="M14985 22280 c-3 -5 -2 -10 4 -10 5 0 13 5 16 10 3 6 2 10 -4 10 -5
0 -13 -4 -16 -10z"/>
<path d="M8945 22400 c-10 -16 7 -60 27 -71 17 -9 19 -8 16 8 -2 10 -10 17
-16 16 -14 -3 -17 24 -3 29 5 2 3 9 -4 15 -8 8 -16 9 -20 3z"/>
<path d="M7693 22358 c2 -12 8 -22 13 -20 14 3 11 35 -4 40 -8 2 -11 -4 -9
-20z"/>
<path d="M8093 22259 c-2 -34 1 -49 9 -47 17 6 29 58 17 80 -16 30 -24 21 -26
-33z"/>
<path d="M8450 22170 c0 -5 5 -10 11 -10 5 0 7 5 4 10 -3 6 -8 10 -11 10 -2 0
-4 -4 -4 -10z"/>
<path d="M15291 21801 c-1 -46 2 -82 5 -78 11 11 15 101 5 132 -7 24 -9 14
-10 -54z"/>
<path d="M8995 22010 c3 -5 10 -10 16 -10 5 0 9 5 9 10 0 6 -7 10 -16 10 -8 0
-12 -4 -9 -10z"/>
<path d="M10020 22031 c0 -28 4 -53 10 -56 5 -3 106 -7 224 -9 l214 -3 4 54
c2 30 1 57 -1 59 -2 2 -105 4 -228 4 l-223 0 0 -49z"/>
<path d="M10029 21933 c-2 -10 -3 -91 -1 -181 3 -158 4 -163 24 -156 11 3 51
7 89 8 38 1 71 4 73 7 3 2 6 74 7 159 l2 155 -64 7 c-35 3 -78 10 -95 13 -25
6 -32 3 -35 -12z"/>
<path d="M10263 21762 c2 -149 4 -171 17 -166 13 6 64 10 155 13 19 1 20 7 17
88 -2 49 1 122 5 163 l9 75 -103 0 -102 0 2 -173z"/>
<path d="M10335 21560 c5 -7 86 -2 94 6 3 3 -18 4 -46 3 -29 -1 -50 -5 -48 -9z"/>
<path d="M8256 22011 c-3 -4 2 -17 10 -27 9 -10 13 -13 9 -6 -4 7 -1 19 5 27
10 12 9 15 -3 15 -9 0 -18 -4 -21 -9z"/>
<path d="M7700 21750 c0 -5 5 -10 11 -10 5 0 7 5 4 10 -3 6 -8 10 -11 10 -2 0
-4 -4 -4 -10z"/>
<path d="M10840 21959 c0 -5 5 -7 10 -4 6 3 10 8 10 11 0 2 -4 4 -10 4 -5 0
-10 -5 -10 -11z"/>
<path d="M10688 21483 c7 -3 16 -2 19 1 4 3 -2 6 -13 5 -11 0 -14 -3 -6 -6z"/>
<path d="M10665 21451 c-3 -5 -1 -12 5 -16 5 -3 10 1 10 9 0 18 -6 21 -15 7z"/>
<path d="M10726 21453 c-11 -11 -6 -23 9 -23 8 0 15 4 15 9 0 13 -16 22 -24
14z"/>
<path d="M10778 21433 c7 -3 16 -2 19 1 4 3 -2 6 -13 5 -11 0 -14 -3 -6 -6z"/>
<path d="M10697 21403 c12 -2 24 -12 26 -21 4 -16 5 -16 6 0 0 9 9 18 19 20 9
3 -3 4 -28 5 -25 0 -35 -2 -23 -4z"/>
<path d="M10683 21320 c1 -13 8 -20 22 -19 11 0 14 3 8 6 -7 2 -13 11 -13 19
0 8 -4 14 -9 14 -6 0 -9 -9 -8 -20z"/>
<path d="M10625 21310 c3 -5 14 -10 23 -10 15 0 15 2 2 10 -20 13 -33 13 -25
0z"/>
<path d="M10735 21309 c-3 -4 12 -9 33 -11 22 -2 39 1 39 7 0 11 -66 15 -72 4z"/>
<path d="M10708 21283 c6 -2 18 -2 25 0 6 3 1 5 -13 5 -14 0 -19 -2 -12 -5z"/>
<path d="M9060 21865 c0 -8 0 -18 -1 -22 0 -4 3 -9 8 -10 4 -2 8 8 8 22 0 14
-3 25 -7 25 -5 0 -8 -7 -8 -15z"/>
<path d="M9010 21834 c0 -14 4 -23 10 -19 6 3 10 15 10 26 0 10 -4 19 -10 19
-5 0 -10 -12 -10 -26z"/>
<path d="M8460 21789 c0 -5 5 -7 10 -4 6 3 10 8 10 11 0 2 -4 4 -10 4 -5 0
-10 -5 -10 -11z"/>
<path d="M9081 21664 c0 -11 3 -14 6 -6 3 7 2 16 -1 19 -3 4 -6 -2 -5 -13z"/>
<path d="M15061 21680 c0 -14 4 -43 8 -65 l9 -40 1 50 c0 28 -4 57 -9 65 -8
12 -10 10 -9 -10z"/>
<path d="M15006 21568 c-8 -32 -7 -375 1 -478 l8 -85 6 55 c10 83 10 530 0
530 -5 0 -11 -10 -15 -22z"/>
<path d="M8430 21560 c0 -5 5 -10 10 -10 6 0 10 5 10 10 0 6 -4 10 -10 10 -5
0 -10 -4 -10 -10z"/>
<path d="M15293 21181 c2 -83 7 -154 10 -158 4 -3 7 62 7 145 0 96 -4 153 -11
157 -7 5 -9 -38 -6 -144z"/>
<path d="M8005 21421 c-3 -5 -1 -12 5 -16 5 -3 10 1 10 9 0 18 -6 21 -15 7z"/>
<path d="M9163 21323 c4 -3 1 -13 -6 -22 -11 -14 -10 -14 5 -2 16 12 16 31 1
31 -4 0 -3 -3 0 -7z"/>
<path d="M7592 21315 c0 -16 2 -22 5 -12 2 9 2 23 0 30 -3 6 -5 -1 -5 -18z"/>
<path d="M7842 21273 c2 -9 9 -18 16 -21 18 -6 15 25 -4 32 -11 4 -14 1 -12
-11z"/>
<path d="M9222 21213 c-16 -3 -22 -9 -18 -20 3 -8 6 -17 6 -19 0 -2 8 -4 19
-4 13 0 19 7 19 25 0 14 -1 24 -2 24 0 -1 -11 -4 -24 -6z"/>
<path d="M8950 21185 c0 -8 4 -15 10 -15 5 0 7 7 4 15 -4 8 -8 15 -10 15 -2 0
-4 -7 -4 -15z"/>
<path d="M8981 21134 c0 -11 3 -14 6 -6 3 7 2 16 -1 19 -3 4 -6 -2 -5 -13z"/>
<path d="M5475 21121 c-3 -5 -1 -12 5 -16 5 -3 10 1 10 9 0 18 -6 21 -15 7z"/>
<path d="M8550 20973 c0 -5 5 -15 10 -23 8 -12 10 -11 10 8 0 12 -4 22 -10 22
-5 0 -10 -3 -10 -7z"/>
<path d="M9653 20958 c-2 -5 12 -8 31 -8 20 0 36 4 36 10 0 11 -59 9 -67 -2z"/>
<path d="M9740 20960 c0 -5 5 -10 11 -10 5 0 7 5 4 10 -3 6 -8 10 -11 10 -2 0
-4 -4 -4 -10z"/>
<path d="M9982 20923 c3 -15 16 -18 81 -21 42 -2 77 1 77 6 0 22 -29 32 -93
32 -60 0 -68 -2 -65 -17z"/>
<path d="M9595 20919 c-4 -6 -5 -12 -2 -15 7 -7 37 7 37 17 0 13 -27 11 -35
-2z"/>
<path d="M9645 20920 c3 -5 16 -10 28 -10 18 0 19 2 7 10 -20 13 -43 13 -35 0z"/>
<path d="M7941 20786 c-10 -12 -6 -26 10 -26 11 0 19 29 10 35 -5 2 -14 -1
-20 -9z"/>
<path d="M10400 20339 c0 -17 8 -19 91 -19 81 0 90 2 87 18 -3 14 -16 17 -91
19 -80 1 -87 0 -87 -18z"/>
<path d="M10425 20020 c-3 -5 3 -10 14 -10 12 0 21 5 21 10 0 6 -6 10 -14 10
-8 0 -18 -4 -21 -10z"/>
<path d="M8110 20235 c0 -8 2 -15 4 -15 2 0 6 7 10 15 3 8 1 15 -4 15 -6 0
-10 -7 -10 -15z"/>
<path d="M14970 14366 c0 -2 7 -7 16 -10 8 -3 12 -2 9 4 -6 10 -25 14 -25 6z"/>
<path d="M15025 14291 c3 -6 -3 -14 -12 -20 -17 -10 -16 -11 5 -17 22 -6 31
-24 11 -24 -5 0 -7 -5 -4 -10 4 -6 12 -4 21 5 13 13 14 20 2 45 -7 17 -17 30
-21 30 -5 0 -6 -4 -2 -9z"/>
<path d="M16177 14403 c-4 -3 -1 -16 7 -28 8 -12 16 -35 18 -51 2 -19 10 -30
22 -32 17 -4 18 0 12 39 -9 55 -39 92 -59 72z"/>
</g>
</svg>
