<svg width="20" height="24" viewBox="0 0 20 24" fill="none" xmlns="http://www.w3.org/2000/svg">
<path d="M0.800049 24C0.800049 21.5752 1.76331 19.2496 3.47793 17.535C5.19255 15.8204 7.51807 14.8571 9.94291 14.8571C12.3677 14.8571 14.6933 15.8204 16.4079 17.535C18.1225 19.2496 19.0858 21.5752 19.0858 24H16.8C16.8 22.1814 16.0776 20.4372 14.7916 19.1513C13.5057 17.8653 11.7615 17.1429 9.94291 17.1429C8.12428 17.1429 6.38014 17.8653 5.09417 19.1513C3.80821 20.4372 3.08576 22.1814 3.08576 24H0.800049ZM9.94291 13.7143C6.15433 13.7143 3.08576 10.6457 3.08576 6.85714C3.08576 3.06857 6.15433 0 9.94291 0C13.7315 0 16.8 3.06857 16.8 6.85714C16.8 10.6457 13.7315 13.7143 9.94291 13.7143ZM9.94291 11.4286C12.4686 11.4286 14.5143 9.38286 14.5143 6.85714C14.5143 4.33143 12.4686 2.28571 9.94291 2.28571C7.41719 2.28571 5.37148 4.33143 5.37148 6.85714C5.37148 9.38286 7.41719 11.4286 9.94291 11.4286Z" fill="#E5E1DE"/>
</svg>
