<svg width="16" height="16" viewBox="0 0 16 16" fill="none" xmlns="http://www.w3.org/2000/svg">
<circle cx="8" cy="8" r="8" fill="#F1E0AC"/>
<path d="M7.92 11.09C7.45333 11.09 7.01 11.02 6.59 10.88C6.17 10.7333 5.81667 10.5233 5.53 10.25L5.83 9.6C6.15667 9.86667 6.48667 10.06 6.82 10.18C7.15333 10.3 7.51333 10.36 7.9 10.36C8.40667 10.36 8.79333 10.25 9.06 10.03C9.33333 9.80333 9.47 9.47333 9.47 9.04C9.47 8.62667 9.33333 8.31333 9.06 8.1C8.78667 7.88667 8.39 7.78 7.87 7.78H6.83V7.07H7.8C8.25333 7.07 8.61 6.95333 8.87 6.72C9.13667 6.48 9.27 6.15333 9.27 5.74C9.27 5.37333 9.14667 5.09 8.9 4.89C8.66 4.69 8.31667 4.59 7.87 4.59C7.13667 4.59 6.49667 4.85667 5.95 5.39L5.65 4.75C5.91 4.47 6.24 4.25333 6.64 4.1C7.04667 3.94 7.47333 3.86 7.92 3.86C8.6 3.86 9.13 4.02 9.51 4.34C9.89667 4.66 10.09 5.10333 10.09 5.67C10.09 6.06333 9.99 6.41 9.79 6.71C9.59 7.00333 9.31333 7.21667 8.96 7.35C9.38 7.46333 9.70667 7.67333 9.94 7.98C10.1733 8.28 10.29 8.65333 10.29 9.1C10.29 9.70667 10.0767 10.19 9.65 10.55C9.23 10.91 8.65333 11.09 7.92 11.09Z" fill="#1D1E22"/>
</svg>
