<svg width="20" height="20" viewBox="0 0 20 20" fill="none" xmlns="http://www.w3.org/2000/svg">
<g filter="url(#filter0_d_557_23410)">
<path fill-rule="evenodd" clip-rule="evenodd" d="M6.80169 9.21923C6.09919 8.73242 5.67811 8.43966 5.53842 8.34108C5.28375 8.16856 5.04335 7.93129 4.81745 7.62933C4.59153 7.32739 4.47852 7.04692 4.47852 6.78811C4.47852 6.4677 4.56375 6.20066 4.73422 5.98702C4.90471 5.77342 5.14814 5.66663 5.46445 5.66663H14.5355C14.8024 5.66663 15.0335 5.76313 15.2287 5.95624C15.4238 6.14931 15.5215 6.38145 15.5215 6.65263C15.5215 6.97714 15.4209 7.28733 15.2194 7.58301C15.0182 7.87882 14.7676 8.13152 14.4677 8.34095C12.9231 9.41325 11.9617 10.0809 11.5838 10.3437C11.5427 10.3725 11.4553 10.4351 11.3219 10.5317C11.1883 10.6283 11.0774 10.7064 10.9891 10.766C10.9008 10.8255 10.794 10.8922 10.6687 10.9662C10.5435 11.04 10.4252 11.0956 10.3144 11.1324C10.2034 11.1695 10.1007 11.1878 10.0062 11.1878H9.99999H9.99379C9.89932 11.1878 9.79662 11.1695 9.68568 11.1324C9.57476 11.0956 9.45663 11.0401 9.33132 10.9662C9.20596 10.8923 9.09916 10.8255 9.01081 10.766C8.92254 10.7064 8.81159 10.6283 8.67807 10.5317C8.54458 10.4352 8.45731 10.3725 8.41624 10.3437C8.04238 10.0809 7.50421 9.70603 6.80169 9.21923ZM11.8364 11.1264C12.5347 10.6211 13.5578 9.91233 14.9051 9.00038C15.1394 8.8402 15.3448 8.66138 15.5215 8.46428V13.357C15.5215 13.6284 15.425 13.8603 15.2319 14.0535C15.0388 14.2466 14.8066 14.3432 14.5355 14.3432H5.46452C5.19336 14.3432 4.9612 14.2466 4.76813 14.0535C4.57502 13.8604 4.47852 13.6284 4.47852 13.357V8.46428C4.65928 8.66555 4.86675 8.84437 5.10098 9.00038C6.58814 10.011 7.60902 10.7197 8.16366 11.1264C8.39781 11.2989 8.58783 11.4335 8.73363 11.53C8.87948 11.6266 9.07362 11.7252 9.31597 11.8258C9.55831 11.9265 9.7843 11.9768 9.99381 11.9768H10H10.0063C10.2158 11.9768 10.4417 11.9265 10.6841 11.8258C10.9265 11.7252 11.1205 11.6266 11.2664 11.53C11.4123 11.4335 11.6022 11.2989 11.8364 11.1264Z" fill="white"/>
</g>
<defs>
<filter id="filter0_d_557_23410" x="-8.52148" y="-5.33337" width="37.043" height="34.6765" filterUnits="userSpaceOnUse" color-interpolation-filters="sRGB">
<feFlood flood-opacity="0" result="BackgroundImageFix"/>
<feColorMatrix in="SourceAlpha" type="matrix" values="0 0 0 0 0 0 0 0 0 0 0 0 0 0 0 0 0 0 127 0" result="hardAlpha"/>
<feMorphology radius="9" operator="dilate" in="SourceAlpha" result="effect1_dropShadow_557_23410"/>
<feOffset dy="2"/>
<feGaussianBlur stdDeviation="2"/>
<feColorMatrix type="matrix" values="0 0 0 0 0.0546562 0 0 0 0 0.0276042 0 0 0 0 0.220833 0 0 0 0.25 0"/>
<feBlend mode="normal" in2="BackgroundImageFix" result="effect1_dropShadow_557_23410"/>
<feBlend mode="normal" in="SourceGraphic" in2="effect1_dropShadow_557_23410" result="shape"/>
</filter>
</defs>
</svg>
