<svg width="20" height="20" viewBox="0 0 20 20" fill="none" xmlns="http://www.w3.org/2000/svg">
<g filter="url(#filter0_d_557_23427)">
<path fill-rule="evenodd" clip-rule="evenodd" d="M6.20629 5.16663H9.93895C11.4998 5.16663 12.5896 6.24223 12.5896 7.78366V12.2163C12.5896 13.7577 11.4998 14.8333 9.93895 14.8333H6.20629C4.64543 14.8333 3.55566 13.7577 3.55566 12.2163V7.78366C3.55566 6.24223 4.64543 5.16663 6.20629 5.16663ZM15.1286 6.6998C15.4115 6.55586 15.7434 6.57091 16.0134 6.74102C16.2834 6.91047 16.4446 7.20489 16.4446 7.52678V12.4736C16.4446 12.7962 16.2834 13.0899 16.0134 13.2594C15.8658 13.3516 15.7009 13.3988 15.5346 13.3988C15.396 13.3988 15.2575 13.366 15.1279 13.3L14.1735 12.8184C13.8203 12.6392 13.6012 12.2793 13.6012 11.8796V8.1202C13.6012 7.71979 13.8203 7.35995 14.1735 7.18199L15.1286 6.6998Z" fill="white"/>
</g>
<defs>
<filter id="filter0_d_557_23427" x="-9.44434" y="-5.83337" width="38.8889" height="35.6666" filterUnits="userSpaceOnUse" color-interpolation-filters="sRGB">
<feFlood flood-opacity="0" result="BackgroundImageFix"/>
<feColorMatrix in="SourceAlpha" type="matrix" values="0 0 0 0 0 0 0 0 0 0 0 0 0 0 0 0 0 0 127 0" result="hardAlpha"/>
<feMorphology radius="9" operator="dilate" in="SourceAlpha" result="effect1_dropShadow_557_23427"/>
<feOffset dy="2"/>
<feGaussianBlur stdDeviation="2"/>
<feColorMatrix type="matrix" values="0 0 0 0 0.0546562 0 0 0 0 0.0276042 0 0 0 0 0.220833 0 0 0 0.25 0"/>
<feBlend mode="normal" in2="BackgroundImageFix" result="effect1_dropShadow_557_23427"/>
<feBlend mode="normal" in="SourceGraphic" in2="effect1_dropShadow_557_23427" result="shape"/>
</filter>
</defs>
</svg>
