<svg width="16" height="16" viewBox="0 0 16 16" fill="none" xmlns="http://www.w3.org/2000/svg">
<path d="M7.8 0.392456C3.49891 0.392456 0 3.73434 0 7.8424C0 11.9505 3.49891 15.2923 7.8 15.2923C12.1011 15.2923 15.6 11.9505 15.6 7.8424C15.6 3.73434 12.1011 0.392456 7.8 0.392456ZM11.5096 11.6958C11.3828 11.8169 11.2164 11.8778 11.05 11.8778C10.8837 11.8778 10.7171 11.8169 10.5905 11.6958L7.34047 8.59176C7.21824 8.47569 7.15004 8.31791 7.15004 8.15285V4.11743C7.15004 3.77412 7.44116 3.49664 7.8 3.49664C8.15884 3.49664 8.44996 3.77412 8.44996 4.11743V7.89583L11.5096 10.818C11.7637 11.0608 11.7637 11.4531 11.5096 11.6958Z" fill="#E5E1DE"/>
</svg>
