<svg width="24" height="24" viewBox="0 0 24 24" fill="none" xmlns="http://www.w3.org/2000/svg">
<path d="M21.375 7H5.125C4.77969 7 4.5 6.72031 4.5 6.375V3.875C4.5 3.52969 4.77969 3.25 5.125 3.25H21.375C21.7203 3.25 22 3.52969 22 3.875V6.375C22 6.72031 21.7203 7 21.375 7ZM2.625 10.125H18.875C19.2203 10.125 19.5 10.4047 19.5 10.75V13.25C19.5 13.5953 19.2203 13.875 18.875 13.875H2.625C2.27969 13.875 2 13.5953 2 13.25V10.75C2 10.4047 2.27969 10.125 2.625 10.125ZM5.125 17H21.375C21.7203 17 22 17.2797 22 17.625V20.125C22 20.4703 21.7203 20.75 21.375 20.75H5.125C4.77969 20.75 4.5 20.4703 4.5 20.125V17.625C4.5 17.2797 4.77969 17 5.125 17Z" fill="white"/>
</svg>
