<svg width="16" height="16" viewBox="0 0 16 16" fill="none" xmlns="http://www.w3.org/2000/svg">
<ellipse cx="8.24118" cy="7.87018" rx="7.54294" ry="7.5429" fill="#F1E0AC"/>
<path d="M8.39813 11.405C8.0248 11.405 7.67013 11.349 7.33413 11.237C6.99813 11.1197 6.71547 10.9517 6.48613 10.733L6.72613 10.213C6.98747 10.4263 7.25147 10.581 7.51813 10.677C7.7848 10.773 8.0728 10.821 8.38213 10.821C8.78747 10.821 9.0968 10.733 9.31013 10.557C9.5288 10.3757 9.63813 10.1117 9.63813 9.76501C9.63813 9.43434 9.5288 9.18367 9.31013 9.01301C9.09147 8.84234 8.77413 8.75701 8.35813 8.75701H7.52613V8.18901H8.30213C8.6648 8.18901 8.95013 8.09567 9.15813 7.90901C9.37147 7.71701 9.47813 7.45567 9.47813 7.12501C9.47813 6.83167 9.37947 6.60501 9.18213 6.44501C8.99013 6.28501 8.71547 6.20501 8.35813 6.20501C7.77147 6.20501 7.25947 6.41834 6.82213 6.84501L6.58213 6.33301C6.79013 6.10901 7.05413 5.93567 7.37413 5.81301C7.69947 5.68501 8.0408 5.62101 8.39813 5.62101C8.94213 5.62101 9.36613 5.74901 9.67013 6.00501C9.97947 6.26101 10.1341 6.61567 10.1341 7.06901C10.1341 7.38367 10.0541 7.66101 9.89413 7.90101C9.73413 8.13567 9.5128 8.30634 9.23013 8.41301C9.56613 8.50367 9.82747 8.67167 10.0141 8.91701C10.2008 9.15701 10.2941 9.45567 10.2941 9.81301C10.2941 10.2983 10.1235 10.685 9.78213 10.973C9.44613 11.261 8.9848 11.405 8.39813 11.405Z" fill="#1D1E22"/>
</svg>
