<svg width="17" height="28" viewBox="0 0 17 28" fill="none" xmlns="http://www.w3.org/2000/svg">
<path d="M8.48083 8.76092C10.7026 8.76092 12.5038 6.9598 12.5038 4.738C12.5038 2.51621 10.7026 0.715088 8.48083 0.715088C6.25902 0.715088 4.45789 2.51621 4.45789 4.738C4.45789 6.9598 6.25902 8.76092 8.48083 8.76092Z" stroke="white" stroke-linecap="round" stroke-linejoin="round"/>
<path d="M15.5209 15.8006C15.5209 13.9334 14.7791 12.1428 13.4589 10.8225C12.1386 9.50222 10.3479 8.7605 8.48074 8.7605C6.61358 8.7605 4.8229 9.50222 3.50262 10.8225C2.18234 12.1428 1.44061 13.9334 1.44061 15.8006V18.8178H4.45781L5.46354 26.8636H11.4979L12.5037 18.8178H15.5209V15.8006Z" stroke="white" stroke-linecap="round" stroke-linejoin="round"/>
</svg>
